<svg width="300" height="500" viewBox="0 0 300 500" fill="none" xmlns="http://www.w3.org/2000/svg">
<path d="M42.2986 192.755C42.1632 192.661 42.033 192.567 41.8976 192.473C40.559 192.765 41.0382 193.927 40.7101 194.703L41.0538 194.885C41.4653 194.177 41.882 193.463 42.2986 192.755ZM126.299 431.968C126.408 431.838 126.497 431.687 126.606 431.557C125.736 430.994 124.892 430.411 124.049 429.848C123.939 430.02 123.83 430.171 123.72 430.343C124.59 430.885 125.455 431.427 126.299 431.968ZM102.429 133.838C102.559 133.927 102.715 134.005 102.866 134.083C103.58 132.885 104.314 131.687 105.033 130.489C104.903 130.411 104.747 130.333 104.622 130.25C103.882 131.447 103.148 132.64 102.429 133.838ZM89.1215 250.963C88.3663 249.906 87.6111 248.822 86.8611 247.76C86.757 249.406 87.9028 250.208 89.1215 250.963ZM105.747 157.401C105.418 158.687 106.111 159.588 106.96 160.583C107.345 159.432 107.304 159.302 105.747 157.401ZM45.8767 194.588C47.1163 193.088 46.908 192.062 45.2726 191.484C45.4653 192.489 45.6684 193.515 45.8767 194.588ZM145.944 429.421C147.288 428.796 148.283 426.848 148.111 424.786C147.356 426.437 146.637 427.973 145.944 429.421ZM107.606 332.151C107.413 332.125 107.22 332.125 107.023 332.104C106.913 333.666 106.809 335.223 106.679 336.786C106.809 336.807 106.934 336.807 107.064 336.828C107.241 335.265 107.434 333.708 107.606 332.151ZM83.684 391.994C83.4601 393.619 84.4392 395.114 86.0434 395.677C85.2309 394.401 84.507 393.276 83.684 391.994ZM82.8247 155.25C82.7778 155.338 82.7309 155.421 82.684 155.515C82.9757 155.901 83.2882 156.276 83.5486 156.677C83.7986 157.067 83.9913 157.494 84.3351 158.14C84.6945 157.479 85.1997 156.666 85.1476 156.625C84.4184 156.109 83.6111 155.692 82.8247 155.25ZM60.3767 157.651L60.1007 157.328C58.7153 158.541 56.809 159.161 56.033 161.072C57.4809 159.932 58.9288 158.791 60.3767 157.651ZM125.606 65.1453C125.434 65.1453 125.262 65.1506 125.085 65.1558C125.215 67.4943 125.345 69.8381 125.476 72.1766C125.523 72.1766 125.564 72.1714 125.606 72.1714V65.1453ZM97.8403 256.156C97.7986 256.328 97.7517 256.5 97.6892 256.677C98.7726 257.02 99.8299 257.39 101.111 257.802C100.892 257.151 100.741 256.76 100.59 256.328C99.6788 256.265 98.7726 256.218 97.8403 256.156ZM41.8976 196.437C42.3403 196.458 42.7778 196.635 42.9757 196.479C43.908 195.765 44.257 193.947 43.6632 192.932C43.0955 194.062 42.5486 195.14 41.8976 196.437ZM98.0799 417.692C98.2101 417.739 98.3142 417.781 98.4445 417.802C98.7257 417.13 99.3767 416.328 99.184 415.833C98.9653 415.27 98.033 414.963 97.408 414.552C97.2986 414.64 97.2101 414.729 97.1267 414.812C97.4497 415.765 97.7726 416.744 98.0799 417.692ZM89.934 157.989C89.3767 158.875 88.908 159.609 88.4288 160.359H91.9497C91.257 159.536 90.6684 158.848 89.934 157.989ZM167.976 118.687C167.799 118.734 167.648 118.781 167.476 118.828C168.215 121.619 168.97 124.411 169.705 127.208C169.861 127.166 170.012 127.125 170.184 127.083C169.45 124.286 168.71 121.489 167.976 118.687ZM124.872 55.3901C124.7 55.3901 124.523 55.3901 124.351 55.3901C124.653 58.3745 124.981 61.3589 125.283 64.3381C125.434 64.3276 125.585 64.312 125.736 64.2964C125.434 61.3276 125.153 58.3589 124.872 55.3901ZM71.1632 374.921C73.6788 375.984 76.8715 375.244 76.9809 373.88C75.1111 374.208 73.2049 374.552 71.1632 374.921ZM39.0747 195.682C39.0747 194.932 39.1215 194.27 39.0434 193.625C39.0174 193.427 38.6372 193.13 38.4184 193.125C37.4549 193.119 36.4913 193.197 35.4132 193.25C36.6215 194.046 37.7257 194.781 39.0747 195.682ZM126.278 148.322C124.674 151.307 125.372 153.677 127.814 154.088C126.299 152.541 126.257 150.588 126.278 148.322ZM46.7622 214.421C46.8507 214.442 46.9445 214.484 47.0382 214.505C47.6945 212.776 48.3507 211.041 49.0903 209.067C48.1892 209.786 47.5538 210.281 46.7622 210.911V214.421ZM54.1111 143.932C54.9236 145.317 55.6215 146.505 56.4913 147.984C56.5538 146.593 56.6007 145.447 56.6632 144.067C55.7726 144.015 54.9705 143.973 54.1111 143.932ZM128.835 152.854C129.116 151.239 129.377 149.708 129.637 148.177C128.642 147.843 128.356 147.942 127.944 148.77C127.231 150.213 127.601 152.02 128.835 152.854ZM105.528 353.911C106.741 353.911 107.694 354.104 108.497 353.843C109.059 353.671 108.476 351.505 107.585 350.489C106.981 351.484 106.398 352.479 105.528 353.911ZM148.892 64.4474C148.934 64.2495 148.981 64.0568 149.043 63.8641C145.622 63.0203 142.2 62.1714 138.778 61.3328C138.731 61.5308 138.689 61.7235 138.627 61.9214C142.049 62.7651 145.47 63.6037 148.892 64.4474ZM85.4809 162.328C86.434 160.885 87.3663 159.468 88.2934 158.052C88.1788 157.911 88.0642 157.765 87.9497 157.619C87.1997 157.927 86.3611 158.104 85.7309 158.562C84.3507 159.562 84.7153 160.885 85.4809 162.328ZM102.517 348.317C101.372 350.026 100.309 351.609 99.158 353.317C102.174 353.057 103.512 351.067 102.517 348.317ZM85.2622 481.484C84.9705 477.755 84.6997 474.291 84.4236 470.848C83.5538 474.442 83.5017 477.953 85.2622 481.484ZM49.2934 205.317C49.4965 203.26 49.8038 201.177 48.7101 199.078C48.033 199.619 47.4601 200.072 47.0122 200.421C47.8351 202.197 48.5642 203.755 49.2934 205.317ZM88.1163 162.661C89.6111 163.312 91.0799 163.968 92.5747 164.567C92.5955 164.572 93.1163 163.802 93.007 163.541C92.3611 161.864 89.934 161.208 88.1163 162.661ZM55.5226 138.307C51.2726 137.38 47.309 136.515 43.3455 135.651C43.3195 135.802 43.2882 135.953 43.2622 136.109C47.1788 137.239 50.9809 138.989 55.5226 138.307ZM106.872 342.036C105.444 343.27 104.361 344.526 105.569 346.453C105.877 346.932 105.726 347.708 105.679 348.338C105.637 349.244 105.507 350.177 105.418 351.088C105.595 351.109 105.788 351.13 105.981 351.151C106.502 348.14 106.83 345.13 106.872 342.036ZM86.0538 246.494C85.1892 244.39 84.382 242.526 83.6528 240.619C82.9236 238.718 82.2726 236.765 81.5226 234.666C81.4445 234.989 81.3142 235.208 81.3611 235.359C82.1945 238.39 82.9705 241.421 83.9497 244.39C84.2205 245.213 84.4757 246.468 86.0538 246.494ZM30.1267 142.255C25.2413 144.161 20.2726 145.937 17.1163 150.583C20.8767 146.89 25.8351 145.098 30.1267 142.255ZM122.814 240.036C120.215 244.328 117.507 248.572 113.372 252.057C116.595 251.755 121.059 244.802 122.814 240.036ZM39.2153 140.833C39.184 141.01 39.1528 141.192 39.1215 141.369C41.6528 141.828 44.2049 142.166 46.6997 142.77C49.8663 143.541 52.7205 144.869 53.9132 148.291C54.0017 148.546 54.184 148.765 54.4132 149.156C54.4549 147.213 53.8507 146.046 52.3403 144.921C50.0017 143.171 47.507 141.942 44.4809 141.802C42.7153 141.718 40.9705 141.171 39.2153 140.833ZM126.757 229.421C127.814 224.375 125.455 212.682 122.924 211.619C123.96 214.588 125.283 217.401 125.913 220.348C126.538 223.359 126.517 226.52 126.757 229.421ZM90.8872 120.119C90.908 120.02 90.9288 119.911 90.9288 119.812C88.8924 119.479 86.8403 119.171 84.8038 118.802C83.2361 118.52 82.4132 118.958 82.4965 120.546C82.5747 122.067 81.6684 122.958 81.0226 124.057C80.8403 124.364 80.6684 124.677 80.4965 124.989C81.0278 124.796 81.3715 124.5 81.684 124.177C82.5278 123.296 83.8351 122.598 82.8507 121.005C82.783 120.89 83.257 120.229 83.5695 120.14C84.0747 119.994 84.6528 120.114 85.1945 120.119H90.8872ZM102.408 355.067V355.437C104.512 356.822 106.59 358.208 108.648 359.593C108.585 358.75 108.606 357.838 108.387 356.973C108.278 356.473 107.825 355.781 107.413 355.697C105.767 355.39 104.08 355.26 102.408 355.067ZM43.2622 200.848C44.434 203.38 45.7205 206.177 47.1528 209.276C47.3038 208.041 47.6007 207 47.5226 205.958C47.4028 204.38 46.9132 202.817 45.4913 201.843C44.7726 201.369 43.882 201.13 43.2622 200.848ZM63.9965 157.562C59.8924 157.588 50.4392 167.395 50.783 170.963C52.5642 168.598 54.5382 166.083 56.3976 163.484C58.3663 160.729 61.4549 159.484 63.9965 157.562ZM9.22049 162.072C11.5851 157.281 13.6007 152.291 17.1684 148.197C12.7309 151.781 9.9132 156.307 9.22049 162.072ZM98.1007 118.578C104.424 118.697 112.783 114.447 113.757 111.619C111.314 113.036 108.929 114.703 106.33 115.864C103.689 117.031 100.851 117.697 98.1007 118.578ZM47.507 180.463C47.382 180.437 47.2622 180.416 47.1372 180.395C45.007 183.479 39.3715 186.76 33.2622 188.656C34.9288 188.505 36.6007 188.291 38.2101 187.859C41.8976 186.859 44.5799 184.317 47.1684 181.692C47.434 181.432 47.4028 180.88 47.507 180.463ZM98.4028 141.135C98.2726 141.046 98.1215 140.947 97.9705 140.854C97.7309 141.171 97.4705 141.473 97.257 141.812C96.4965 143.02 95.8038 144.276 95.0017 145.453C92.8559 148.562 90.6892 151.64 88.533 154.729C87.9861 155.515 87.8299 156.291 88.632 157.14C91.9028 151.776 95.1528 146.458 98.4028 141.135ZM61.7882 137.437C67.1997 137.588 78.059 132.088 78.8247 128.729C73.8351 133.093 67.6684 134.89 61.7882 137.437ZM95.4132 495.432C89.6945 491.057 84.9809 485.901 82.4913 478.776C82.7309 485.208 89.184 494.088 95.4132 495.432ZM60.4549 152.578C59.0434 152.687 57.783 152.776 56.5226 152.89C55.434 152.989 54.7049 153.343 55.0434 154.692C55.1736 155.187 54.9653 155.765 54.9028 156.302C54.757 157.546 54.6059 158.786 54.4392 160.223C55.7517 159.083 56.7049 157.88 57.9497 157.26C59.9236 156.276 60.2049 154.614 60.4549 152.578ZM132.366 397.875C138.387 398.916 143.174 401.927 146.856 406.822C150.648 411.848 151.58 417.411 150.257 423.458C152.465 416.526 150.778 410.286 146.595 404.677C143.111 399.979 137.955 398.307 132.366 397.875ZM78.6788 369.239C75.8663 370.473 73.0642 371.713 69.9288 371.083C66.8976 370.5 64.4861 368.697 62.2101 366.687C63.7257 369.197 65.7309 371.145 68.382 372.276C69.6059 372.791 70.9653 373.119 72.2882 373.229C74.1424 373.401 75.6892 372.468 77.1528 371.406C77.882 370.885 78.934 370.651 78.6788 369.239ZM98.1215 138C98.0538 137.838 97.9705 137.677 97.9028 137.51C93.5278 139.812 89.2882 142.39 84.7674 144.348C80.1945 146.328 75.3559 147.692 70.9757 149.208C80.6997 147.703 90.1476 144.609 98.1215 138ZM121.533 153.031C119.783 152.343 118.7 150.869 116.205 151.625C113.476 152.453 110.924 153.328 108.627 154.942C106.872 156.187 106.934 156.276 108.325 158.192C112.137 155.052 116.361 152.953 121.533 153.031ZM41.6788 203.302C41.6476 203.302 41.6163 203.281 41.5799 203.281C41.3819 204.864 41.2153 206.468 40.9705 208.067C40.8611 208.76 40.4601 209.432 40.4132 210.151C40.1736 213.807 38.7465 217.145 37.1632 220.307C35.7726 223.104 33.809 225.593 31.2778 227.541C30.6059 228.041 29.908 228.536 29.2257 229.036C31.658 228.343 33.6059 226.937 35.0174 224.921C36.6788 222.536 38.1684 220.046 39.7257 217.598C41.283 215.171 42.2726 212.51 42.2778 209.609C42.283 207.505 41.8924 205.406 41.6788 203.302ZM130.241 431.838C129.439 431.083 128.898 430.432 128.205 429.953C124.262 427.291 122.486 423.067 120.58 419.036C119.653 417.026 119.543 414.619 119.09 412.364C118.892 411.411 118.741 410.437 118.569 409.484C115.773 416.135 123.418 430.822 130.241 431.838ZM145.71 301.208C145.903 301.552 146.095 301.921 146.314 302.244C147.747 304.411 149.283 306.494 150.58 308.723C151.752 310.718 152.507 312.947 153.679 314.942C156.908 320.572 156.861 326.505 155.585 332.593C155.262 334.067 154.981 335.562 154.674 337.031C155.174 336.817 155.392 336.515 155.523 336.187C157.382 331.031 157.663 325.812 156.319 320.505C155.043 315.479 152.898 310.802 150.559 306.234C149.715 304.541 148.502 303.026 147.46 301.421C146.986 300.666 146.424 300.666 145.71 301.208ZM62.4392 156.416C63.507 156.239 64.5695 156 65.6424 155.901C68.1997 155.671 70.7622 155.338 73.3142 155.375C75.3038 155.401 77.4392 155.307 79.1163 156.802C79.9497 157.536 80.7778 158.27 81.7049 159.083C81.4965 156.973 80.4913 155.39 79.0174 154.218C78.4392 153.755 77.3924 153.817 76.5538 153.77C74.3038 153.651 72.033 153.395 69.7986 153.578C67.1372 153.791 64.6528 154.807 62.4392 156.416ZM122.382 428.88C120.887 426.453 119.283 424.067 117.918 421.578C115.924 417.895 115.038 413.953 115.752 409.729C115.819 409.296 115.622 408.802 115.533 408.322C115.101 408.973 114.929 409.906 114.71 409.927C113.736 409.968 113.845 410.682 113.694 411.244C112.96 414.104 114.106 416.64 114.97 419.218C116.361 423.27 118.981 426.364 122.382 428.88ZM108.778 340.505C108.648 340.526 108.517 340.526 108.387 340.526C108.387 341.526 108.257 342.5 108.408 343.453C108.908 346.677 109.47 349.906 110.122 353.109C110.184 353.5 110.965 354.062 111.314 354C111.788 353.911 112.439 353.328 112.502 352.895C112.653 351.833 112.611 350.708 112.46 349.625C111.96 346.312 110.595 343.322 108.778 340.505ZM130.913 399.682C142.892 402.953 149.366 410.317 148.543 423.203C150.819 415.385 148.049 409.276 142.439 404.098C139.189 401.109 135.309 399.786 130.913 399.682ZM110.403 117.145C107.372 118.208 104.616 119.171 101.502 120.26C100.632 121.557 101.694 122.953 102.517 124.364C102.84 124.911 103.278 125.395 103.668 125.885C104.554 126.916 105.137 126.843 105.747 125.635C106.241 124.671 106.7 123.687 107.241 122.739C108.257 120.89 109.319 119.062 110.403 117.145ZM29.9601 189.734C29.9601 189.885 29.9601 190.036 29.9549 190.187C30.8194 190.427 31.6892 190.671 32.5538 190.921C37.8559 192.463 42.6372 191.14 47.1007 188.203C47.4601 187.963 47.8455 187.432 47.8351 187.041C47.809 185.937 47.5799 184.843 47.4028 183.515C44.8872 185.75 42.6215 187.963 39.4392 189.026C36.3142 190.072 33.1945 190.182 29.9601 189.734ZM83.1111 366.526C76.8351 370.729 76.3247 388.01 82.1788 393.406C80.1892 389.203 79.507 384.828 79.9653 380.192C80.4184 375.598 81.5486 371.203 83.1111 366.526ZM88.3715 332.5C88.3403 332.583 88.3038 332.671 88.2674 332.755C88.9236 333.104 89.5434 333.536 90.2361 333.796C91.882 334.427 93.7257 334.687 95.1736 335.593C97.8403 337.286 100.762 338.734 102.408 341.682C102.585 341.984 102.887 342.223 103.278 342.656C103.861 341.921 104.512 341.333 104.856 340.598C105.314 339.578 105.595 338.473 104.293 337.739C102.715 336.848 101.241 335.64 99.5747 335.098C96.3663 334.078 93.0538 333.427 89.8038 332.63C89.3403 332.52 88.8507 332.541 88.3715 332.5ZM58.7153 359.203C58.6059 359.312 58.4913 359.421 58.382 359.531C58.882 360.333 59.434 361.109 59.8663 361.932C60.7257 363.578 61.8247 364.989 63.4653 365.916C63.6945 366.046 63.8976 366.265 64.0642 366.458C65.4705 368.234 67.5278 369.036 69.5538 369.557C74.3767 370.838 77.8611 368.171 81.2205 365.093C72.0017 369.645 64.783 366.656 58.7153 359.203ZM101.845 203.125C95.6528 205.354 90.5851 208.864 86.9445 214.453C83.5903 219.583 81.3195 229.614 83.4913 232.666C83.5799 231.885 83.5903 231.192 83.7309 230.567C84.533 226.906 84.934 223.156 86.4653 219.651C87.3976 217.505 87.934 215.187 89.5851 213.411C91.8403 210.984 93.3559 207.864 96.5382 206.286C98.382 205.395 100.09 204.182 101.845 203.125ZM115.903 484.895C116.054 484.895 116.205 484.895 116.361 484.875C116.663 482.968 116.856 481.041 117.314 479.156C118.611 473.875 116.231 469.171 115.017 464.255C114.95 463.973 114.736 463.692 114.606 463.411C113.153 460.51 110.616 458.583 108.387 456.369C108.064 456.046 107.564 455.895 107.132 455.635C113.913 464.322 116.986 473.979 115.903 484.895ZM43.9757 205.635C43.8038 205.677 43.6267 205.697 43.4549 205.744C44.3038 215.619 38.9549 222.64 32.7882 229.223C35.2465 228.14 37.3611 226.406 39.4392 224.567C43.5486 220.906 45.4653 216.291 45.3351 210.895C45.2934 209.145 44.4497 207.39 43.9757 205.635ZM121.944 40.6089C122.012 40.5933 122.075 40.5776 122.142 40.5568C121.861 38.911 121.533 37.2703 121.319 35.6089C120.58 30.1453 119.111 24.9526 115.882 20.3745C112.179 15.1349 109.408 9.41618 107.023 3.47347C106.523 2.18701 105.747 1.9266 104.444 2.49431C107.043 8.70264 110.616 14.3849 114.168 20.0568C116.684 24.0516 118.33 28.3537 119.674 32.8068C120.476 35.3953 121.189 38.0099 121.944 40.6089ZM102.236 200.76C102.236 200.609 102.106 200.239 102.257 200.005C102.95 198.812 102.194 199.052 101.476 199.203C101.22 199.265 100.96 199.312 100.7 199.375C95.4809 201 91.1007 203.901 87.8142 208.255C84.7778 212.286 82.6007 216.77 81.1007 221.578C80.757 222.682 80.8142 223.916 80.6892 225.083C82.1736 221.489 83.2622 217.786 85.1684 214.557C86.7882 211.807 89.2205 209.489 91.5122 207.192C94.5278 204.182 98.8559 203.338 102.236 200.76ZM145.403 427.281C147.637 421.583 147.569 415.994 144.497 410.562C141.486 405.255 133.793 401.312 129.658 401.526C141.075 406.51 146.335 415 145.403 427.281ZM118.72 299.552C118.611 299.51 118.523 299.489 118.418 299.442C117.726 300.614 117.184 301.89 116.293 302.89C113.934 305.64 111.439 308.302 108.929 310.921C105.569 314.479 101.976 317.77 97.6684 320.109C95.3924 321.343 92.8351 322.036 90.0642 323.119C91.2986 323.119 92.4028 323.401 93.2465 323.052C96.908 321.515 100.783 320.302 103.903 317.64C104.231 317.359 104.726 317.27 105.116 317.052C106.46 316.296 107.955 315.755 109.059 314.734C111.054 312.916 112.892 310.901 114.606 308.802C116.773 306.093 117.747 302.802 118.72 299.552ZM90.7153 165.958C91.6684 167.64 92.8767 169.531 93.7882 171.562C94.632 173.401 95.6736 175.375 95.6945 177.302C95.7622 180.76 95.3038 184.26 94.6997 187.682C94.3299 189.807 93.3351 191.822 92.5747 194.036C100.288 184.859 98.7934 173.963 95.2413 166.27C93.5486 166.151 92.0538 166.052 90.7153 165.958ZM129.939 403.458C138.45 411.26 143.215 420.614 142.049 432.442C147.872 421.307 140.616 406.557 129.939 403.458ZM268.392 37.4683C268.283 37.3953 268.174 37.3276 268.064 37.2547C266.96 38.161 265.898 39.1766 264.71 39.9631C262.262 41.5933 259.293 41.661 256.543 42.4058C254.096 43.0672 251.689 43.8745 249.372 44.8433C247.293 45.7078 245.346 46.9006 243.33 47.911C241.616 48.7703 239.866 49.5776 238.132 50.4058C239.866 50.2443 241.554 49.9578 243.158 49.4266C245.819 48.5412 248.377 47.3641 251.038 46.5464C254.137 45.5881 257.278 44.6401 260.486 44.1401C263.757 43.6245 267.09 43.6506 270.403 43.4422C269.757 42.9631 269.064 42.6922 268.366 42.4006C266.898 41.7651 266.658 41.2131 267.309 39.7495C267.632 38.9839 268.023 38.2287 268.392 37.4683ZM91.0799 250.369C84.1528 234.276 84.7726 219.416 98.7726 206.593C98.3351 206.656 98.2101 206.635 98.1007 206.677C94.1163 208.864 91.0799 212.072 89.0017 216.036C87.7309 218.442 87.0799 221.192 86.1945 223.812C84.9757 227.385 84.8195 231.135 84.882 234.859C84.908 236.593 85.6736 238.281 85.9236 240.036C86.5122 244.151 88.5538 247.484 91.0799 250.369ZM138.45 206.614C141.767 204.666 143.174 201.369 144.319 198.125C146.142 192.911 147.226 187.552 146.095 181.906C145.47 178.703 144.538 175.651 143.085 172.776C141.767 170.156 140.163 167.677 138.627 165.166C137.997 164.161 137.262 163.25 136.569 162.296C137.153 163.802 138.038 165.088 138.799 166.447C139.793 168.182 140.898 169.901 141.528 171.77C142.502 174.625 143.283 177.578 143.804 180.546C144.408 183.812 144.929 187.187 143.997 190.458C142.913 194.369 141.549 198.208 140.252 202.067C139.752 203.604 139.08 205.078 138.45 206.614ZM59.1007 350.677C59.3767 350.197 59.5017 350.026 59.5799 349.854C60.6424 347.229 62.2882 345 64.3142 343.052C68.1163 339.39 72.5382 337.052 77.8455 336.208C82.507 335.489 87.0747 335.838 91.6684 336.531C92.5955 336.661 93.5278 336.875 94.4392 337.052C92.6215 336.01 90.7153 335.317 88.8611 334.473C83.5851 332.067 78.3403 332.63 73.283 334.906C70.132 336.333 67.2309 338.307 64.2257 340.041C64.0695 340.125 63.9445 340.255 63.8195 340.385C61.3924 342.901 60.2257 346.083 59.1111 349.286C59.007 349.614 59.1007 349.979 59.1007 350.677ZM147.637 179.989C147.486 180.088 147.335 180.182 147.179 180.276C147.439 181.276 147.898 182.265 147.939 183.27C148.028 185.578 149.648 186.375 151.429 186.75C153.179 187.119 155.043 187.171 156.84 187.114C161.778 186.947 165.872 184.937 169.189 181.223C170.595 179.666 171.481 177.937 172.309 176.052C173.694 172.901 173.543 169.713 173.153 166.447C172.976 165.041 171.939 165.656 171.267 165.609C170.403 165.557 170.247 166.161 170.356 166.911C170.575 168.343 170.965 169.791 170.918 171.223C170.814 174.916 169.944 178.39 167.476 181.317C166.153 182.875 164.705 184.151 162.58 184.468C161.434 184.645 160.111 184.598 159.158 185.145C157.361 186.182 155.845 185.864 154.351 184.817C152.075 183.25 149.866 181.604 147.637 179.989ZM96.5382 418.901C96.8195 416.02 95.0017 413.744 92.1215 413.229C86.559 412.25 81.2517 413.291 76.3611 415.781C71.7153 418.145 67.3299 421.13 64.9132 426.026C64.0122 427.828 63.8038 429.968 63.2778 431.984C64.0851 431.401 64.7413 430.838 65.0747 430.119C66.7934 426.463 69.2986 423.494 72.3715 420.875C74.5434 419.031 77.0226 417.817 79.6059 416.843C81.4913 416.151 83.559 415.609 85.5486 415.588C89.4601 415.52 93.4184 415.781 96.408 418.901C96.4288 418.921 96.4965 418.901 96.5382 418.901ZM110.424 463.781C110.491 463.76 110.533 463.76 110.595 463.739C110.382 463.218 110.231 462.656 109.924 462.197C108.84 460.64 107.694 459.104 106.569 457.562C105.205 455.723 104.726 455.354 102.668 454.552C102.538 454.489 102.387 454.468 102.304 454.359C102.064 454.078 101.845 453.776 101.632 453.494C101.934 453.276 102.278 452.822 102.559 452.864C104.944 453.213 107.351 453.625 109.21 455.333C110.293 456.328 111.288 457.39 112.372 458.364C114.71 460.468 116.335 462.937 116.986 466.057C117.356 467.833 117.877 469.609 118.523 471.296C119.215 473.01 119.434 474.677 119.215 476.494C118.872 479.421 118.569 482.364 118.351 485.312C118.179 487.76 117.637 490.031 116.122 492.067C115.361 493.088 114.799 494.281 114.148 495.385C116.924 493.369 118.934 490.77 119.934 487.541C121.408 482.666 121.991 477.729 120.71 472.729C119.997 470 119.585 467.01 118.137 464.692C115.861 460.963 113.455 457.197 109.924 454.421C107.715 452.713 105.507 451.197 102.429 451.437C101.304 451.5 100.679 452 100.481 452.776C100.351 453.234 101.002 454.036 101.502 454.468C103.189 455.984 105.095 457.239 106.653 458.864C108.085 460.338 109.189 462.135 110.424 463.781ZM101.351 278.76C87.0695 279.343 73.0695 294.875 77.6684 310.276C78.0122 308.458 78.3767 306.25 78.8559 304.083C79.3299 301.875 79.6528 299.598 80.4965 297.562C82.1788 293.489 84.9965 290.088 88.2674 287.25C91.0799 284.828 94.3715 282.921 97.4913 280.864C98.7257 280.062 100.069 279.453 101.351 278.76ZM76.0955 310.036C76.1632 310.036 76.2257 310.015 76.2934 310.015C76.2934 309.604 76.3195 309.213 76.2882 308.802C75.934 304.276 74.9965 299.708 77.4549 295.437C77.6111 295.156 77.6476 294.833 77.7517 294.531C78.158 293.38 78.3611 292.104 79.0122 291.109C81.9445 286.687 85.9601 283.437 90.3663 280.515C93.4445 278.479 96.8872 277.854 100.267 276.963C102.278 276.442 104.424 276.401 106.523 276.203C107.283 276.14 108.106 276.203 108.84 276.38C109.882 276.614 110.835 276.744 112.137 275.729C110.793 275.296 109.773 274.687 108.778 274.687C105.158 274.734 101.523 274.796 97.9236 275.166C93.658 275.619 89.9965 277.677 86.6684 280.296C85.1424 281.489 83.8872 283.052 82.3195 284.156C79.8299 285.953 78.4445 288.484 77.1476 291.088C74.8507 295.656 74.9445 300.614 75.2986 305.578C75.408 307.072 75.8195 308.567 76.0955 310.036ZM102.997 257.901C103.299 257.989 103.47 258.098 103.622 258.078C104.986 258.031 106.372 258.098 107.694 257.838C110.033 257.359 112.502 257.015 114.627 255.994C118.241 254.218 120.908 251.255 122.924 247.744C123.335 247.052 124.158 246.468 123.569 245.447C123.507 245.338 123.851 244.947 124.049 244.713C124.549 244.125 125.215 243.609 125.523 242.916C126.257 241.265 126.95 239.578 127.403 237.843C128.205 234.88 129.028 231.869 129.465 228.833C129.83 226.322 129.7 223.744 129.679 221.208C129.658 219.541 129.465 217.875 129.247 216.208C129.179 215.515 128.944 214.822 128.684 214.151C128.382 213.458 127.97 212.786 127.533 211.984H125.653C126.325 214.541 126.991 216.989 127.601 219.458C128.767 224.177 128.793 228.942 127.231 233.557C125.674 238.213 123.616 242.656 120.887 246.77C119.111 249.411 117.184 251.901 114.366 253.546C110.835 255.583 107.002 256.796 102.997 257.901ZM12.5174 160.135C13.9184 158.656 15.382 157.192 16.7674 155.651C20.1372 151.901 23.9809 148.88 28.934 147.526C29.8299 147.276 30.7674 147.156 31.6944 147.046C34.7049 146.692 37.7257 146.031 40.7257 146.119C44.4861 146.229 48.3663 146.265 51.8403 148.197C51.9132 148.239 52.0695 148.13 52.3142 148.057C52.0434 147.572 51.8767 147.072 51.5486 146.739C49.9861 145.125 48.0642 144.166 45.8611 143.781C44.6111 143.562 43.3299 143.453 42.1111 143.104C39.1372 142.244 36.1007 142.354 33.2153 143.062C30.6632 143.692 28.1111 144.744 25.8924 146.145C22.5694 148.239 19.3872 150.625 16.4392 153.218C14.4028 155.01 13.1788 157.531 12.5174 160.135ZM61.5642 154.859C63.8872 154.062 65.9288 153.083 68.0799 152.677C73.8611 151.578 79.5278 152.25 84.9757 154.52C85.8299 154.875 86.4809 154.994 87.0955 154.114C89.1528 151.187 91.2778 148.296 93.3142 145.354C94.0695 144.265 94.6528 143.067 95.4549 141.692C95.0226 141.859 94.8924 141.89 94.783 141.953C92.684 143.114 90.6684 144.484 88.4757 145.395C85.4132 146.671 82.2361 147.703 79.0538 148.656C76.559 149.406 73.9913 149.932 71.4392 150.473C68.3403 151.14 65.2257 151.713 62.2361 152.296C61.9861 153.239 61.7986 153.968 61.5642 154.859ZM122.595 292.385C122.142 292.755 122.033 292.796 122.012 292.864C121.038 296.088 120.168 299.338 119.09 302.52C117.569 306.921 115.319 310.968 111.616 313.869C107.476 317.098 102.908 319.677 98.1215 321.843C96.2153 322.708 94.2413 323.489 92.1424 324.375C92.4913 324.552 92.6424 324.682 92.7934 324.682C93.7465 324.703 94.6997 324.593 95.632 324.661C101.887 325.156 106.872 322.427 111.288 318.401C112.418 317.359 113.283 316.036 114.387 314.953C116.773 312.661 118.241 309.734 119.825 306.921C121.47 303.973 122.465 300.703 122.877 297.343C123.075 295.807 122.705 294.229 122.595 292.385ZM144.408 73.4006C143.804 73.4735 143.543 73.5308 143.283 73.5308C140.747 73.4787 138.106 73.8745 135.747 73.2391C133.017 72.5099 130.569 72.2808 128.205 73.8381C127.58 74.2443 127.017 75.0568 126.84 75.7808C126.517 77.3172 126.476 78.9214 126.278 80.4995C126.017 82.5516 125.715 84.5985 125.392 86.8381C129.158 85.286 132.429 83.3693 135.398 81.0203C138.387 78.661 141.205 76.1089 144.408 73.4006ZM42.7101 137.432C42.6215 137.609 42.533 137.791 42.4445 137.968C43.5122 138.505 44.658 138.932 45.632 139.598C48.2257 141.38 51.2309 142.067 54.1945 142.484C59.6788 143.25 65.1007 142.437 70.2986 140.562C74.9913 138.869 79.0747 136.218 81.8715 131.937C83.132 130.005 84.3195 128.036 85.5486 126.088C86.5695 124.468 86.507 123.51 85.2882 122.02C85.0955 122.557 84.9653 123.145 84.6892 123.651C82.6111 127.442 79.9392 130.76 76.4132 133.27C74.7257 134.479 72.8455 135.421 71.0017 136.395C66.9028 138.562 62.3351 138.703 57.882 139.26C54.783 139.651 51.6528 140.067 48.5486 139.02C46.6424 138.375 44.658 137.953 42.7101 137.432ZM78.4757 225.546C78.507 225.437 78.5382 225.307 78.5695 225.203C77.1945 224.25 75.5174 224.182 73.9601 224.119C69.0278 223.88 64.3403 225.093 59.809 226.932C58.5851 227.432 57.4445 228.145 56.1997 228.557C53.7934 229.38 51.8142 230.833 50.2934 232.781C46.9965 237.026 44.408 241.531 43.2205 246.968C41.9445 252.796 42.1372 258.406 43.757 264.015C44.3351 266.031 45.3872 267.89 46.2257 269.817C45.9236 267.395 45.5434 265.057 44.8038 262.822C44.0747 260.614 44.9184 258.515 44.8351 256.348C44.7674 254.552 44.9236 252.729 45.1736 250.953C45.3403 249.76 45.9601 248.614 46.1788 247.421C46.8403 243.718 48.8976 240.687 51.0642 237.848C52.8872 235.447 55.2517 233.453 57.3924 231.286C57.8611 230.812 58.3038 230.223 58.8872 229.963C62.0382 228.625 65.2049 227.302 68.408 226.067C71.1632 225.026 73.9861 224.572 76.9028 225.526C77.3767 225.697 77.9497 225.546 78.4757 225.546ZM221.085 95.4162C221.085 95.4839 221.106 95.5464 221.127 95.6089C222.58 95.8797 224.054 96.2391 225.523 96.3953C229.684 96.8328 233.819 96.5672 237.934 95.8641C242.096 95.1453 246.252 94.562 250.434 93.9214C254.398 93.3068 258.361 93.4631 262.325 94.0151C264.861 94.3589 267.413 94.4474 269.95 94.6506C269.971 94.5099 270.017 94.3693 270.059 94.2287C269.319 93.661 268.674 92.8641 267.851 92.5516C264.122 91.161 260.309 90.3381 256.325 89.9683C252.689 89.6349 249.111 89.4006 245.497 89.9214C242.184 90.3953 238.934 91.1506 235.814 92.6037C232.043 94.3537 227.95 95.0256 223.773 94.9735C222.861 94.9631 221.971 95.2599 221.085 95.4162ZM85.7622 250.328C84.9601 252.255 84.2986 254.14 83.4028 255.916C81.8247 259.078 80.1684 262.171 78.4132 265.229C77.6736 266.526 76.7101 267.718 75.684 268.781C71.9288 272.703 67.8455 276.208 62.7309 278.291C62.3351 278.463 61.9653 278.677 61.2517 279.026C61.882 279.135 62.132 279.197 62.382 279.218C65.9549 279.416 69.2205 278.593 72.4965 277.031C77.8247 274.479 81.1476 270.057 84.3455 265.442C86.3142 262.583 86.8924 259.27 87.5799 255.979C88.0382 253.791 88.0017 251.734 85.7622 250.328ZM100.939 139.953C100.569 140.442 100.179 140.875 99.8767 141.369C98.684 143.348 97.5382 145.354 96.3455 147.328C94.6528 150.119 92.9236 152.885 91.2309 155.687C91.0799 155.953 91.0382 156.489 91.2101 156.729C91.8611 157.692 92.7049 158.531 93.3142 159.52C94.5017 161.468 95.5851 163.489 96.6892 165.484C97.0799 166.156 97.408 166.854 97.8195 167.661C98.0799 167.322 98.2101 167.223 98.2309 167.104C98.9653 163.921 100.502 161.13 102.455 158.557C102.929 157.927 103.127 157.437 102.866 156.609C102.455 155.364 102.215 154.052 102.085 152.744C101.653 148.531 101.304 144.312 100.939 139.953ZM127.361 72.0412C128.033 71.8381 128.767 71.6558 129.486 71.3901C131.325 70.6922 133.148 70.6349 135.007 71.4266C135.96 71.8328 136.955 72.1922 137.976 72.3797C140.898 72.9162 143.757 72.1193 146.554 71.4474C148.913 70.8797 150.757 69.3693 152.226 67.2078C151.793 67.0151 151.533 66.8381 151.252 66.7703C147.549 65.8901 143.804 65.1193 140.122 64.1193C134.924 62.6974 130.028 60.6453 126.71 55.9683C126.929 61.3172 127.148 66.5828 127.361 72.0412ZM145.21 297.843C145.299 297.713 145.382 297.562 145.45 297.432C146.033 297.671 146.595 297.932 147.158 298.171C147.507 298.302 147.898 298.604 148.179 298.515C149.497 298.13 150.778 297.63 152.075 297.151C152.054 297.02 152.012 296.89 151.991 296.765C151.663 296.718 151.319 296.567 151.012 296.635C148.543 297.109 146.122 296.916 143.715 296.223C142.543 295.895 141.356 295.593 140.163 295.27C136.069 294.208 132.168 292.625 128.924 289.942C125.215 286.864 121.944 283.27 119.345 279.177C118.372 277.661 117.549 275.989 116.898 274.322C116.184 272.458 115.71 270.51 115.21 268.583C114.215 264.75 114.497 260.937 115.533 257.036C115.08 257.364 114.517 257.604 114.257 258.015C113.09 259.875 112.439 261.911 112.241 264.14C111.856 268.541 112.502 272.807 114.106 276.833C115.278 279.802 117.158 282.489 118.762 285.281C119.09 285.822 119.694 286.171 120.043 286.671C120.991 288.057 121.731 289.572 122.814 290.828C124.241 292.515 125.715 294.359 127.559 295.505C129.939 296.979 132.648 298.062 135.356 298.927C137.262 299.536 139.361 299.645 141.398 299.708C142.741 299.776 144.106 299.406 145.512 299.234C145.382 298.625 145.299 298.234 145.21 297.843ZM106.179 130.875C105.747 132.265 105.418 133.343 105.075 134.406C105.033 134.567 104.856 134.677 104.773 134.828C104.424 135.51 103.903 136.182 103.819 136.906C103.622 138.473 103.601 140.062 103.622 141.64C103.71 146.098 104.793 150.343 106.523 154.598C107.632 153.885 108.585 153.072 109.689 152.604C112.158 151.546 114.71 150.651 117.247 149.723C117.549 149.614 117.96 149.697 118.288 149.822C120.106 150.546 121.924 151.307 123.809 152.093C124.069 150.729 124.372 149.276 124.611 147.817C124.653 147.593 124.418 147.276 124.241 147.072C123.356 146.067 122.293 145.192 121.622 144.072C120.95 142.973 120.778 141.572 120.168 140.427C119.023 138.229 118.392 137.338 116.075 138.994C114.757 139.947 113.345 140.791 111.939 141.645C111.439 141.953 110.903 142.229 110.335 142.354C109.429 142.562 108.648 142.333 108.538 141.239C108.455 140.119 108.299 138.973 108.429 137.864C108.715 135.38 108.194 133.182 106.179 130.875ZM121.533 89.5412C117.96 90.8849 114.538 91.9266 111.877 94.3537C109.71 96.3016 107.653 98.3797 105.726 100.557C103.361 103.239 101.606 106.276 101.283 109.963C101.241 110.338 100.913 110.864 100.569 111.005C99.3767 111.51 99.184 112.541 99.184 113.572C99.2049 114.578 99.5278 115.583 99.7257 116.682C102.148 115.833 104.554 115.27 106.679 114.177C109.231 112.864 111.595 111.161 113.955 109.5C114.757 108.921 115.559 108.052 115.924 107.14C117.7 102.677 119.372 98.1766 120.97 93.6401C121.382 92.4422 121.34 91.0828 121.533 89.5412ZM100.372 106.098C102.174 103.505 103.773 101 105.549 98.6297C109.45 93.4266 114.606 90.0151 120.84 88.2651C121.991 87.9422 122.403 87.3016 122.512 86.2651C122.595 85.4995 122.726 84.7339 122.814 83.9683C123.054 81.312 123.267 78.661 123.507 76.0047C123.184 75.9735 123.007 75.9006 122.898 75.9526C120.236 77.2912 117.314 77.4006 114.408 77.7495C111.075 78.1558 108.064 79.2964 106.351 82.4058C103.95 86.7808 101.715 91.2756 101.09 96.3068C100.679 99.4995 100.611 102.734 100.372 106.098ZM141.137 434.593C141.179 434.463 141.226 434.333 141.247 434.223C139.752 433.77 139.861 432.906 140.252 431.734C140.684 430.369 140.986 428.921 141.028 427.489C141.116 423.828 139.793 420.406 138.497 417.093C137.543 414.645 135.939 412.416 134.424 410.203C132.429 407.343 130.049 404.901 126.648 403.64C124.481 402.838 122.424 403.359 121.47 405.203C122.924 406.416 124.22 407.755 124.741 410.01C123.398 408.755 122.314 407.713 121.319 406.739C119.736 408.015 119.694 409.338 120.127 410.875C121.038 413.953 121.601 417.156 122.747 420.145C123.616 422.401 125.111 424.437 126.517 426.427C127.382 427.661 128.616 428.635 129.7 429.744C129.851 429.614 130.007 429.505 130.158 429.375C129.486 427.77 128.814 426.192 128.122 424.588C128.444 424.76 128.595 425.02 128.747 425.26C130.783 428.484 132.95 431.604 136.59 433.208C137.778 433.729 138.58 434.223 137.476 435.958C138.97 435.395 140.054 434.984 141.137 434.593ZM99.3976 120.416C97.2309 120.776 95.2205 121.145 93.2049 121.432C91.6684 121.651 90.1267 121.734 88.5955 121.973C88.2986 122.02 87.7986 122.692 87.8715 122.833C88.5122 124.083 87.7622 125.031 87.2726 126.026C86.9549 126.682 86.5226 127.27 86.1736 127.906C84.1945 131.531 81.7413 134.817 78.4965 137.354C74.0538 140.817 69.0017 143.005 63.3351 143.625C62.0017 143.776 60.684 144.078 59.2257 144.333C60.1372 146.041 60.9965 147.651 61.9809 149.494C64.3142 149.104 66.7778 148.833 69.1736 148.26C72.8715 147.38 76.5434 146.375 80.1788 145.255C82.3299 144.593 84.4549 143.744 86.4653 142.729C89.6111 141.14 92.6632 139.375 95.7153 137.614C97.1476 136.796 98.7257 136.041 99.809 134.869C101.153 133.421 102.043 131.552 103.168 129.906C103.731 129.088 103.642 128.447 103.017 127.723C101.174 125.598 99.7465 123.255 99.3976 120.416ZM267.049 35.5047C266.549 35.6037 266.049 35.7183 265.554 35.7964C264.252 36.0099 262.976 36.2912 261.674 36.3797C260.377 36.4683 259.075 36.4006 257.757 36.3328C256.434 36.2599 255.069 36.2703 253.793 35.9474C252.252 35.562 250.825 34.8433 249.309 34.3172C247.747 33.7756 246.642 32.7964 245.648 31.4422C244.976 30.5047 243.851 29.786 242.767 29.3068C241.205 28.6089 239.517 28.2078 237.872 27.7078C237.632 27.6349 237.288 27.6245 237.09 27.7391C233.538 29.6974 230.986 32.6037 229.986 36.4787C228.408 42.6245 225.111 47.6193 220.736 52.0464C219.872 52.9318 218.986 53.8068 217.924 54.8641C219.439 54.6818 220.632 54.6141 221.757 54.3745C223.361 54.0412 224.96 53.6141 226.523 53.1506C227.585 52.8381 228.601 52.3276 229.684 52.0151C231.137 51.5881 232.674 51.3328 234.127 50.8797C235.465 50.4683 236.747 49.8953 238.043 49.3797C240.971 48.2183 244.023 47.3693 246.512 45.2287C249.392 42.7703 252.944 41.5881 256.606 41.1349C260.83 40.6141 264.299 38.911 267.049 35.5047ZM167.366 124.177C167.304 124.197 167.262 124.213 167.194 124.229C167.434 126.354 167.845 128.473 167.845 130.598C167.845 133.635 167.413 136.671 167.413 139.708C167.413 142.333 167.413 145.046 168.038 147.567C169.08 151.781 170.616 155.869 171.96 160C172.262 160.911 172.502 161.89 173.694 162.166C173.908 162.218 173.929 162.916 174.127 163.255C174.366 163.645 174.648 164.203 175.012 164.281C176.163 164.526 177.351 164.635 178.523 164.713C179.955 164.807 181.189 165.296 182.142 166.354C183.788 168.14 185.825 169.255 188.012 170.234C189.611 170.947 191.023 172.052 192.517 172.994C193.752 173.781 194.965 174.645 196.241 175.354C197.304 175.937 198.471 176.348 199.601 176.833C199.705 176.713 199.835 176.593 199.965 176.479C199.08 175.161 198.34 173.671 197.215 172.572C194.965 170.343 193.252 167.796 191.887 164.947C190.174 161.338 188.658 157.578 186.491 154.25C183.528 149.708 180.236 145.338 176.705 141.213C173.799 137.817 171.439 134.177 169.705 130.104C168.882 128.151 168.148 126.156 167.366 124.177ZM273.372 92.2339C273.439 92.0308 273.481 91.8328 273.523 91.6297C271.356 90.6193 269.257 89.3433 266.981 88.6766C264.559 87.9578 263.017 86.5933 262.304 84.2651C261.351 81.2235 259.101 79.0203 257.408 76.4474C257.127 76.0047 256.476 75.7078 255.934 75.5308C253.898 74.8641 251.887 74.0985 249.804 73.7339C248.184 73.4474 246.471 72.2287 244.825 73.7131C244.736 73.7808 244.564 73.7808 244.455 73.7391C241.554 72.7391 238.736 73.7964 236.028 74.4891C230.658 75.8641 226.455 79.4631 222.127 82.7183C220.502 83.937 218.96 85.4266 217.142 86.187C213.372 87.7547 209.387 88.7026 205.231 88.661C204.319 88.6506 203.408 88.7339 202.481 88.7808C202.825 89.3641 203.215 89.7026 203.648 89.8745C207.007 91.1818 210.34 92.6401 213.783 93.687C217.877 94.937 222.127 94.036 226.283 93.7495C227.866 93.6401 229.491 93.4995 230.986 93.0412C233.497 92.2703 235.877 91.1297 238.392 90.3224C240.95 89.4995 243.481 88.7651 246.278 89.036C248.851 89.286 251.45 89.0724 254.028 89.036C255.418 89.0151 256.846 88.7026 258.168 88.9474C261.392 89.5516 264.601 90.437 267.825 91.1558C269.668 91.5672 271.533 91.8797 273.372 92.2339ZM159.226 64.1297C161.497 63.7131 163.361 63.3172 165.226 63.036C167.132 62.7599 168.929 62.6037 170.705 61.4058C173.387 59.5881 176.507 58.4526 179.325 56.7808C181.731 55.3485 184.132 53.8016 186.168 51.9058C188.096 50.1245 189.658 47.911 191.153 45.7339C193.705 42.0724 195.658 38.0776 197.023 33.8224C197.476 32.3589 197.455 30.7078 198.106 29.3589C199.403 26.7078 201.028 24.2078 202.502 21.6401C202.694 21.2964 202.846 20.911 202.997 20.5412C202.221 20.7443 201.721 21.1193 201.247 21.5099C199.814 22.6401 198.538 23.9891 196.976 24.8537C193.533 26.7495 190.46 29.2703 186.491 30.2235C183.137 31.0308 179.846 32.161 176.616 33.3433C174.71 34.036 172.543 34.7235 171.179 36.0881C168.257 39.0099 164.814 41.6349 163.45 45.786C162.908 47.4787 162.648 49.3224 162.58 51.1141C162.497 52.8172 163.101 54.562 162.95 56.2495C162.778 58.0203 162.215 59.8016 161.543 61.4631C161.174 62.3797 160.2 63.0516 159.226 64.1297ZM111.595 496.984V496.421C111.054 496.359 110.512 496.359 109.991 496.229C109.512 496.098 108.715 495.88 108.689 495.619C108.627 495.145 108.97 494.583 109.278 494.151C110.054 493.041 111.205 492.088 111.658 490.901C113.132 486.828 113.632 482.604 113.002 478.27C112.913 477.708 113.22 477.078 113.345 476.473C113.694 476.953 114.017 477.406 114.387 477.88C114.429 477.947 114.538 477.947 114.606 477.989C115.038 475.692 112.523 466.812 111.075 465.208C111.788 467.744 112.549 470.385 113.262 473.052C113.392 473.552 113.283 474.093 113.283 474.635C112.892 474.197 112.502 473.786 112.137 473.354C112.049 473.27 112.069 473.093 112.028 472.963C111.158 470.302 110.575 467.484 109.319 464.994C108.174 462.697 106.439 460.598 104.642 458.713C103.45 457.411 101.694 456.635 100.158 455.682C99.8976 455.531 99.2882 455.531 99.0955 455.723C96.8455 458.041 94.1788 459.796 91.2986 461.223C89.184 462.265 87.4132 463.718 86.9392 466.14C86.1684 470.083 86.3247 474.026 87.2413 477.947C88.1163 481.671 90.0226 484.942 91.7309 488.302C92.8559 490.531 94.4392 492.395 96.9965 493.067C98.4913 493.453 100.007 493.692 101.502 494.041C102.689 494.322 103.903 494.583 105.033 495.057C105.418 495.229 105.569 496.031 105.809 496.552C105.335 496.531 104.856 496.593 104.403 496.468C102.325 495.901 100.267 495.276 98.2934 494.692C98.7934 495.489 99.184 496.208 99.6788 496.854C99.8767 497.135 100.267 497.421 100.611 497.463C102.215 497.677 103.84 498.005 105.465 497.895C107.523 497.786 109.559 497.312 111.595 496.984ZM71.6684 365.901C74.6788 365.833 77.1215 365.359 79.3872 364.145C81.7205 362.911 84.1476 361.828 86.4028 360.463C88.4861 359.208 90.2778 357.473 92.4028 356.302C95.1736 354.786 98.1007 353.64 99.6372 350.609C100.372 349.114 101.564 347.661 101.694 346.104C101.955 343.026 99.7882 340.729 97.3611 339.583C94.5486 338.26 91.2986 337.718 88.1684 337.286C85.6892 336.942 83.1059 337.156 80.5851 337.328C70.6684 338.067 63.6788 342.984 59.8715 352.234C58.7309 354.984 58.934 357.494 61.0955 359.921C62.5486 361.546 64.2778 362.671 65.9913 363.927C67.8455 365.27 69.9965 365.531 71.6684 365.901ZM111.918 279.734C111.856 279.864 111.788 279.994 111.726 280.104C109.793 278.197 107.976 279.281 106.267 280.171C103.58 281.578 100.892 283.052 98.3611 284.718C94.783 287.098 91.7309 290.067 89.3403 293.661C88.6528 294.703 87.8559 295.677 87.1059 296.671C87.3663 294.25 88.7622 292.406 90.1476 290.677C91.2778 289.265 92.7934 288.119 94.2205 286.968C97.6007 284.265 100.762 281.229 105.054 279.885C105.809 279.651 106.439 279.062 107.132 278.651C106.809 278.369 106.632 278.348 106.46 278.395C103.861 278.828 101.392 279.651 99.1372 281.125C97.3403 282.291 95.2622 283.114 93.5278 284.39C91.3872 285.973 89.3767 287.817 87.4497 289.677C86.0955 290.979 84.7101 292.385 83.7934 294.01C79.5799 301.437 78.3455 309.432 79.9705 317.838C80.0226 318.119 80.3924 318.333 80.8299 318.812C79.158 313.395 79.6997 307.135 81.658 306.27C81.4705 308.458 81.1215 310.687 81.1163 312.942C81.1111 317.25 83.059 320.067 86.9445 320.651C88.7726 320.932 90.8872 320.26 92.684 319.546C95.283 318.531 97.8195 317.25 100.2 315.802C102.606 314.348 104.793 312.552 106.398 310.145C107.413 308.651 108.559 307.265 109.71 305.88C109.924 305.619 110.444 305.619 110.814 305.51C110.773 305.88 110.814 306.291 110.684 306.614C110.533 307.005 110.205 307.307 109.97 307.656C110.903 307.135 111.726 306.51 112.392 305.75C114.278 303.604 115.97 301.354 117.398 298.838C118.83 296.307 120.127 292.666 119.887 290.177C116.986 297.755 115.382 300.744 113.955 301.093C114.085 300.744 114.168 300.463 114.278 300.203C115.601 296.718 116.944 293.25 118.288 289.765C118.762 288.531 118.439 287.38 117.747 286.427C115.97 283.937 114.127 281.536 113.132 278.588C113.043 278.369 112.59 278.046 112.502 278.088C112.22 278.265 111.96 278.546 111.856 278.848C111.747 279.088 111.877 279.432 111.918 279.734ZM37.3247 213C37.1632 212.937 36.9965 212.869 36.8351 212.807C37.1424 212.046 37.5382 211.312 37.7465 210.51C38.0799 209.276 38.283 207.973 38.5538 206.718C38.9705 204.77 39.7622 202.843 39.0486 200.848C38.8403 200.265 38.3299 199.572 37.7882 199.354C35.3403 198.401 32.8611 197.494 30.3351 196.776C26.9184 195.802 23.3663 195.395 19.8403 195.63C17.8403 195.76 15.8872 196.671 13.7465 197.276C13.9549 196.973 14.0799 196.604 14.3247 196.473C15.8142 195.739 17.2778 194.625 18.8507 194.432C21.3455 194.125 23.9549 194.182 26.4392 194.562C29.6059 195.057 32.7101 196 35.8195 196.802C36.5278 196.994 37.1788 197.385 37.8559 197.687C37.809 197.036 37.6424 196.494 37.283 196.281C35.3715 195.104 33.5017 193.791 31.4497 192.921C29.6319 192.151 27.5747 191.958 25.658 191.401C21.4444 190.171 17.4497 191.072 13.5903 192.692C9.56424 194.375 7.17362 197.796 5.13195 201.458C4.63195 202.343 4.34549 203.385 4.02257 204.359C3.71528 205.291 3.49132 206.265 3.23612 207.218C5.93403 202.645 5.93403 202.645 7.66841 201.76C5.65278 204.88 4.33507 207.973 3.87153 211.375C3.62674 213.177 3.35591 214.973 3.21528 216.77C3.06945 218.635 4.2257 220.213 4.78299 221.859C5.50695 223.984 6.98091 226.062 9.14237 227.296C10.684 228.187 12.1945 229.114 13.809 229.833C15.3195 230.479 16.9445 230.89 18.6007 231.458C18.7517 230.807 18.8403 230.437 18.934 230.026C21.3247 230.093 23.658 229.723 25.4705 228.291C27.7049 226.562 29.6059 224.416 31.0486 221.906C31.4184 221.255 32.0851 220.776 32.6163 220.234C32.7257 220.343 32.8351 220.453 32.9445 220.562C31.3976 224.223 28.6892 226.994 25.4705 229.635C31.4601 228.682 39.158 217.072 39.1372 209.338C38.507 210.619 37.9184 211.812 37.3247 213ZM153.788 328.296C153.741 328.317 153.679 328.343 153.637 328.343C153.226 326.911 152.705 325.505 152.444 324.031C151.882 320.802 150.908 317.682 149.174 314.953C146.486 310.666 144.429 305.968 140.814 302.26C140.075 301.484 139.58 301.156 138.476 301.437C139.773 303.562 141.095 305.51 142.158 307.614C143.215 309.713 143.997 311.968 144.908 314.13C144.71 314.239 144.517 314.348 144.319 314.437C142.028 310.083 140.424 305.27 136.653 301.848C137.497 303.953 138.517 305.968 139.403 308.026C140.705 311.057 141.335 313.697 140.924 315.02C140.767 314.609 140.726 314.437 140.637 314.26C139.148 310.906 137.783 307.484 136.069 304.234C135.205 302.588 133.903 301.052 132.429 299.921C130.288 298.276 127.814 297.041 125.502 295.635C125.194 295.463 124.872 295.375 124.351 295.135C124.007 299.119 123.184 302.932 123.507 306.661C123.83 310.447 125.304 314.13 126.278 317.859C126.168 317.901 126.038 317.942 125.934 317.989C124.502 314.067 123.075 310.145 121.663 306.27C121.491 306.661 121.252 307.177 121.017 307.697C121.168 307.718 121.319 307.718 121.47 307.744C121.58 308.369 121.71 309 121.731 309.651C121.819 310.989 121.58 312.421 121.924 313.697C122.898 317.38 123.569 321.151 125.523 324.531C123.054 323.098 122.726 320.39 121.903 318.031C121.059 315.583 120.455 313.026 119.736 310.515C118.309 315.473 120.476 320.067 121.361 324.786C121.189 324.833 121.038 324.875 120.866 324.916C119.913 321.432 118.934 317.963 117.96 314.458C116.205 316.145 116.273 318.312 116.444 320.437C116.856 324.916 118.262 329.119 120.325 333.13C121.97 336.291 124.158 339 127.08 341.01C130.783 343.567 134.814 345.453 139.319 346.145C140.856 346.364 142.413 346.645 144.189 345.885C139.231 343.458 135.616 339.776 132.236 335.833C132.84 336.072 133.299 336.505 133.773 336.875C136.72 339.151 139.622 341.489 142.632 343.656C144.299 344.843 145.429 344.692 146.944 343.458C147.851 342.723 148.309 342.854 148.851 344.088C149.543 343.223 151.101 343.093 150.71 341.447C150.668 341.291 150.97 341.098 151.059 340.906C151.58 339.515 152.122 338.13 152.595 336.744C152.747 336.354 152.637 335.77 152.877 335.598C154.46 334.364 154.611 332.458 154.851 330.833C155.648 325.437 155.194 320.156 152.533 315.213C150.689 311.77 148.955 308.26 146.554 305.166C145.533 303.822 144.366 302.609 143.262 301.333C143.132 301.437 143.023 301.526 142.892 301.614C143.111 302.13 143.262 302.718 143.543 303.213C145.059 305.859 146.533 308.541 148.179 311.098C150.778 315.151 152.335 319.588 153.33 324.25C153.616 325.567 153.658 326.953 153.788 328.296ZM89.9965 417.343C89.6111 417.166 89.382 417.015 89.132 416.973C86.0278 416.411 82.9601 416.541 80.0174 417.734C73.6111 420.307 68.8872 424.812 65.4705 430.729C64.5903 432.265 63.7726 433.802 63.6945 435.687C63.6111 437.572 63.184 439.458 63.0538 441.364C62.9809 442.427 63.1945 443.505 63.2778 444.588C63.4392 444.567 63.6007 444.567 63.757 444.546C63.9392 443.203 64.0382 441.838 64.3247 440.52C64.6059 439.26 65.0226 438.005 65.4913 436.791C65.9497 435.604 66.5486 434.453 67.0903 433.307C65.4236 438.526 64.2465 443.682 65.6788 449.14C65.8559 449.812 65.533 450.614 65.434 451.369C67.0695 454.27 69.4288 456.656 72.809 457.848C74.0486 458.281 75.2726 458.776 76.5382 459.145C77.5278 459.427 78.7205 459.927 79.5486 459.625C82.0955 458.645 84.9184 458.213 87.033 456.244C88.3507 455.01 90.0642 454.036 90.9965 452.562C92.2101 450.609 92.9236 448.317 93.7257 446.104C94.4184 444.114 94.8924 442.036 95.5642 440.02C95.6945 439.63 96.2361 439.39 96.8455 438.848C96.8872 439.588 96.9497 439.822 96.8872 440.02C95.5226 444.458 94.3976 448.989 92.033 453.036C91.6424 453.708 91.1684 454.359 90.6059 454.833C88.882 456.265 87.0851 457.588 85.3351 458.953C84.9913 459.234 84.7101 459.578 84.1163 460.187C85.7986 459.927 87.1059 459.947 88.2205 459.494C90.2153 458.671 92.2517 457.781 94.007 456.546C98.9653 453.036 102.304 448.208 104.512 442.578C105.7 439.567 106.267 436.427 105.939 433.218C105.569 429.276 105.205 425.312 103.58 421.609C102.95 420.203 102.257 418.812 101.476 417.125C100.762 418.359 100.267 419.161 99.8559 420.026C99.6788 420.395 99.6163 420.937 99.7465 421.307C100.241 422.822 100.741 424.359 101.476 425.744C102.997 428.583 104.08 431.51 103.991 434.734C103.95 436.859 103.58 438.958 103.34 441.057C103.168 441.057 103.017 441.036 102.84 441.036C103.252 435.885 103.127 430.838 100.028 426.244C100.653 432.848 100.913 439.26 97.6892 445.197C97.4705 445.13 97.257 445.088 97.0382 445.026C97.2986 444.395 97.559 443.765 97.7934 443.14C100.049 437.052 99.7674 430.838 98.533 424.598C98.4445 424.187 97.9497 423.859 97.6215 423.494C97.4705 423.557 97.2986 423.625 97.1476 423.687C97.4497 426.203 97.7726 428.692 98.1007 431.203C97.9497 431.223 97.7934 431.27 97.6424 431.291C97.059 429.406 96.5174 427.5 95.8924 425.635C95.7153 425.14 95.3715 424.598 94.9392 424.296C93.507 423.296 93.3767 422.562 94.8507 421.156C93.5486 420.416 92.382 419.38 91.059 419.052C85.6945 417.755 81.0434 419.51 76.8976 422.906C75.2622 424.25 73.684 425.661 72.0747 427.046C71.9601 426.958 71.8455 426.875 71.7309 426.786C72.3247 425.963 72.8247 425.031 73.5434 424.317C74.507 423.364 75.6476 422.583 76.6997 421.718C79.1163 419.723 81.783 418.187 84.9288 417.734C86.5226 417.515 88.1424 417.473 89.9965 417.343ZM110.616 214.083C110.424 214.02 110.205 213.973 110.012 213.911C110.184 212.916 110.382 211.916 110.491 210.921C110.705 208.927 111.226 207.046 108.97 205.531C106.611 203.927 105.205 203.536 102.819 205.223C101.22 206.354 99.7465 207.63 98.3142 208.953C94.8715 212.135 92.184 215.859 90.3455 220.192C88.7986 223.812 88.309 227.598 88.3663 231.432C88.4184 234.661 88.5382 238.02 89.4132 241.093C90.408 244.645 92.2101 247.984 93.8299 251.317C94.4184 252.51 95.0434 253.895 96.7361 254.114C98.6215 254.328 100.481 254.677 102.366 254.958C102.819 255.02 103.299 254.958 104.054 254.958C103.491 255.5 103.189 255.781 102.866 256.062C102.997 256.171 103.038 256.213 103.08 256.213C103.299 256.171 103.538 256.125 103.731 256.041C104.944 255.479 106.981 256.234 107.153 253.937C107.153 253.744 107.543 253.593 107.762 253.416C110.814 251.015 113.455 248.244 115.559 244.994C115.84 244.562 116.252 244.213 116.595 243.822C116.747 243.953 116.924 244.083 117.075 244.213C114.757 247.265 112.46 250.302 110.142 253.333C112.762 251.208 115.299 248.979 117.116 246.119C119.023 243.088 121.101 240.14 122.747 236.979C125.476 231.76 125.476 226.125 124.549 220.473C124.418 219.718 124.007 219 123.747 218.286C124.22 225.369 122.642 231.89 119.434 238.125C119.215 237.781 119.043 237.39 119.132 237.109C119.564 235.552 119.976 233.989 120.559 232.494C121.861 229.161 122.684 225.671 122.361 222.14C122.033 218.609 121.122 215.125 120.408 211.614C120.345 211.312 119.804 211.093 119.502 210.812L119.111 211.01C120.085 217.744 120.908 224.437 117.549 230.76C117.83 229.01 118.288 227.296 118.569 225.541C119.304 221.015 118.72 216.552 117.96 212.114C117.726 210.791 117.028 209.625 115.319 209.447C115.21 211.223 115.21 213 114.97 214.734C114.736 216.468 114.236 218.177 113.866 219.89C113.736 219.843 113.632 219.822 113.502 219.781C113.736 217.484 114.085 215.187 114.194 212.895C114.278 211.072 114.106 209.255 112.267 208C111.7 210.078 111.158 212.067 110.616 214.083ZM54.4184 276.875C55.0955 277.182 55.7778 277.723 56.4549 277.723C58.2101 277.723 60.0851 277.807 61.7049 277.244C63.7153 276.572 65.5278 275.276 67.4184 274.234C71.9965 271.723 75.2361 267.76 78.2153 263.666C80.8403 260.026 82.4705 255.822 83.908 251.578C84.5642 249.651 84.908 247.744 82.9549 246.489C81.5747 249.218 80.1892 251.947 78.7986 254.697C78.6476 254.63 78.4965 254.567 78.3403 254.479C78.6267 253.765 78.8976 253.005 79.2101 252.291C80.5434 249.239 82.2882 246.27 81.5903 242.718C81.4184 241.833 81.0955 240.963 80.9653 240.057C80.4705 236.697 80.0851 233.317 79.507 229.984C79.382 229.223 79.6892 227.906 78.4392 227.817C76.8715 227.708 75.2101 227.645 73.7153 228.031C71.7622 228.552 69.8351 229.375 68.0695 230.348C65.8038 231.63 63.7049 233.187 61.6215 234.552C64.5122 230.458 68.9445 228.421 73.5955 226.692C59.2153 226.432 45.3872 241.875 45.9392 254.807C48.1111 250.796 49.8559 246.359 53.5486 243.197C53.6163 243.541 53.5226 243.76 53.3872 243.973C51.7934 246.401 50.0955 248.76 48.632 251.276C47.8715 252.572 47.3924 254.088 47.0174 255.562C46.6892 256.885 46.632 258.27 46.5486 259.635C46.2726 264.359 47.1424 268.755 50.1372 272.588C50.4028 272.937 50.809 273.52 50.6945 273.76C49.9288 275.296 51.2101 275.208 51.9809 275.64C52.3559 274.687 52.7309 274.322 53.8038 274.796C54.6892 275.187 55.8715 275.229 56.8403 275.036C59.9184 274.385 62.809 273.062 65.3038 271.203C67.3924 269.666 69.1215 267.604 71.0122 265.786C71.8142 265.031 72.6163 264.25 73.6788 263.229C71.4184 267.953 63.8976 275.598 54.4184 276.875ZM59.7049 133.156C59.7153 133.348 59.7153 133.536 59.7257 133.729C55.1007 134.395 50.3767 134.005 45.7361 134.765C47.7622 135.244 49.8559 135.473 51.8247 136.088C55.3872 137.192 58.9028 136.781 62.2517 135.677C65.934 134.458 69.4809 132.781 73.0017 131.119C74.5538 130.385 75.8872 129.192 77.3195 128.213C77.2517 128.119 77.184 128.026 77.1215 127.932C75.6424 128.531 74.1736 129.125 72.6945 129.729C72.6372 129.604 72.5747 129.473 72.5122 129.348C72.7309 129.156 72.9184 128.906 73.1684 128.776C75.3559 127.645 77.5695 126.505 79.0382 124.442C79.7309 123.473 80.684 122.296 80.6111 121.286C80.5017 119.859 80.9445 118.833 81.5642 117.718C82.0747 116.802 82.5642 115.864 82.9913 114.901C83.2049 114.416 83.1528 113.484 83.408 113.411C83.908 113.27 84.533 113.598 85.1945 113.75C84.7882 112.161 84.5226 110.479 83.9184 108.927C83.4028 107.598 82.7986 105.963 81.7153 105.244C78.6684 103.239 75.4757 101.322 72.1059 99.9683C68.2309 98.4006 64.0278 97.7703 59.8351 97.5881C57.5017 97.4891 55.0174 97.437 52.8299 98.1037C49.3455 99.1714 45.9184 100.526 43.1945 103.223C40.7882 105.609 38.3559 107.927 37.1372 111.177C34.9653 116.968 34.9861 122.911 36.0851 128.906C36.1215 129.093 36.4028 129.244 36.6111 129.463C36.7257 128.26 36.8247 127.265 36.9549 125.911C37.3819 126.411 37.6007 126.578 37.6945 126.791C38.309 128.239 38.8195 129.734 39.533 131.125C39.8299 131.703 40.4809 132.192 41.0799 132.515C44.0174 134.098 47.1945 133.395 50.2882 133.338C53.1372 133.281 55.9861 133.072 58.8299 132.958C59.1215 132.942 59.4132 133.088 59.7049 133.156ZM85.408 166.151C83.5382 167.473 81.9653 166.963 81.7465 165.026C81.7153 164.76 81.5903 164.5 81.5538 164.229C81.3924 162.848 80.6736 161.906 79.283 161.697C77.2205 161.38 75.1476 161.135 73.0695 160.942C72.4549 160.88 71.7622 160.963 71.1892 161.197C67.6476 162.625 63.7257 163.312 60.9549 166.296C60.9288 166.333 60.7934 166.27 60.4861 166.208C60.6528 165.833 60.7205 165.427 60.9549 165.192C62.4236 163.755 63.9445 162.395 66.033 161.901C66.5955 161.77 67.1476 161.567 67.6945 161.354C70.8038 160.166 73.8976 158.927 77.3299 160.046C77.9392 160.239 78.6163 160.218 79.6424 160.343C75.1632 157.203 70.5747 157.312 65.9861 158.328C62.9184 159.01 60.3663 160.937 58.2361 163.177C54.0903 167.546 50.9184 172.572 50.2049 178.682C49.8403 181.843 49.9445 185.114 50.2934 188.281C50.4757 189.911 50.9757 191.807 52.7882 192.765C52.9601 192.854 52.9392 193.26 53.0642 193.489C53.8403 194.843 54.6267 196.192 55.4132 197.536C55.5799 197.447 55.7465 197.364 55.908 197.276C55.4809 195.848 55.033 194.437 54.6163 193.01C54.0434 191.046 53.1945 189.109 53.0122 187.114C52.7778 184.697 53.0747 182.223 53.2205 179.781C53.4028 176.744 55.283 174.375 56.5122 171.755C56.6788 171.39 57.1111 171.156 57.4236 170.864C56.9601 172.671 56.2674 174.328 55.6059 175.994C53.9497 180.182 53.6528 184.484 54.7361 188.848C55.2049 190.723 55.9288 192.546 56.5903 194.375C57.0747 195.718 57.6684 197.036 58.1632 198.38C58.4132 199.052 58.5538 199.765 58.7465 200.458C58.6111 200.546 58.4809 200.656 58.3455 200.739C63.1111 203.645 68.1059 205.916 73.6528 206.375C74.1736 205.765 74.6997 205.312 75.309 205.119C79.9132 203.666 83.8455 201.239 86.3611 197.015C87.559 194.994 88.3976 192.77 89.4549 190.671C89.6528 190.281 90.1267 190.031 90.4549 189.723C90.5382 190.197 90.7778 190.718 90.6684 191.151C90.3247 192.541 89.8455 193.895 89.4236 195.27C90.2778 194.322 90.9288 193.291 91.4913 192.218C93.2257 188.89 93.7882 185.234 94.1788 181.583C94.3715 179.77 94.2413 177.88 93.9861 176.067C93.507 172.864 91.408 170.38 89.8247 167.687C89.3455 166.843 88.533 166.187 87.8663 165.442C88.658 167.291 89.8247 168.864 90.6059 170.609C91.3872 172.375 92.0799 174.276 92.3403 176.177C92.5747 178.02 92.2309 179.942 92.1424 181.828C91.257 178.979 90.7778 176.151 89.9965 173.416C89.1945 170.578 87.559 168.171 85.408 166.151ZM118.158 257.536C118.007 257.489 117.851 257.468 117.679 257.427C117.377 258.229 116.944 259.031 116.793 259.875C116.122 263.427 115.819 267.02 117.007 270.531C117.747 272.697 118.611 274.864 119.694 276.901C120.538 278.52 121.642 280.041 122.856 281.406C125.174 284.005 127.45 286.687 130.132 288.895C134.273 292.296 139.47 293.578 144.559 294.895C147.205 295.593 149.804 295.286 152.444 295.223C154.069 295.182 155.523 294.744 156.366 293.276C157.231 291.755 157.991 290.156 158.705 288.552C160.262 284.979 160.351 281.098 160.543 277.333C160.762 273.651 159.309 270.27 157.642 267.062C154.892 261.843 151.554 257.015 147.7 252.593C145.319 249.864 142.481 247.593 138.929 246.552C137.023 245.968 135.028 245.75 133.059 245.427C131.543 245.187 130.007 244.927 128.486 244.864C126.736 244.796 125.345 245.536 124.418 247.135C123.7 248.395 123.007 249.692 122.054 250.776C120.97 252.01 120.148 253.182 119.976 254.937C119.606 258.359 119.392 261.713 120.757 265.005C121.58 267.041 122.361 269.098 123.158 271.135C119.804 267.239 118.783 262.453 118.158 257.536ZM82.9132 390.505C81.1945 383.312 81.0642 376.489 86.6163 370.77C86.7361 371.119 86.7049 371.489 86.5226 371.75C84.184 375.125 83.1215 378.875 83.309 382.968C83.5174 387.557 84.3611 391.911 87.8767 395.333C88.5174 395.942 89.0903 396.744 89.3715 397.588C89.5851 398.218 89.2934 399.015 89.2309 399.755C88.684 399.604 88.0851 399.557 87.6007 399.276C86.9028 398.911 86.283 398.369 85.6267 397.89C85.5434 398.192 85.5799 398.348 85.6684 398.432C85.8715 398.671 86.1059 398.911 86.3142 399.145C88.5434 401.703 91.4705 403.369 94.3715 404.932C96.5382 406.098 99.033 406.708 101.372 407.552C101.632 407.64 101.955 407.463 102.257 407.463C102.757 407.442 103.257 407.359 103.731 407.442C104.491 407.572 105.205 407.963 105.939 407.984C109.382 408.093 112.7 407.359 115.97 406.338C116.903 406.057 117.877 405.645 118.653 405.041C121.97 402.442 124.83 399.406 127.101 395.812C129.226 392.5 130.502 388.88 130.549 385.005C130.569 380 129.569 375.213 127.122 370.666C124.481 365.75 121.429 361.265 116.877 357.906C116.486 357.604 115.819 357.213 115.491 357.364C114.517 357.822 113.632 358.515 112.439 359.317C113.043 359.421 113.304 359.442 113.543 359.531C115.642 360.265 118.049 360.614 119.757 361.89C122.054 363.604 123.96 365.942 124.934 368.781C126.106 372.182 127.08 375.625 128.163 379.067C129.335 382.88 129.247 386.734 128.012 390.484C125.543 398.041 120.778 403.479 112.981 405.776C111.418 406.229 109.752 406.229 108.127 406.296C107.674 406.317 107.194 405.776 106.741 405.473C107.241 405.296 107.715 405.062 108.236 404.994C108.799 404.911 109.408 405.062 109.991 405.015C115.101 404.562 118.981 401.875 122.231 398.13C125.194 394.708 126.559 390.593 127.361 386.218C127.793 383.77 127.017 381.536 126.58 379.218C125.585 373.828 124.137 368.692 120.387 364.359C118.372 362 115.663 361.718 113.174 360.744C112.872 360.635 112.179 360.833 112.09 361.026C111.679 362.13 111.075 362.802 109.793 362.63C109.689 362.609 109.491 363.02 109.408 363.255C109.231 363.666 109.127 364.078 108.887 364.796C108.345 364.166 107.976 363.796 107.694 363.364C106.549 361.718 105.075 360.593 102.95 360.744C100.96 360.875 98.9028 360.895 96.9965 361.375C94.0278 362.13 91.1267 363.171 89.5642 366.203C89.4497 366.442 89.2622 366.656 89.1059 366.875C89.1424 365.921 89.2465 364.927 89.783 364.276C91.8611 361.677 94.7622 360.333 97.9705 359.791C100.267 359.421 102.627 359.442 105.288 359.27C104.314 358.645 103.512 358.015 102.648 357.583C100.96 356.713 99.2882 356.218 97.3195 356.911C93.8559 358.125 90.757 359.901 88.158 362.411C86.7101 363.822 85.2153 365.421 84.4132 367.218C82.2413 372.135 81.1736 377.359 81.1267 382.729C81.1007 385.437 81.5538 388.036 82.9132 390.505ZM147.116 147.651C147.616 146.401 147.918 145.552 148.262 144.713C149.866 140.791 149.825 136.729 148.674 132.802C147.767 129.625 146.163 126.656 144.97 123.552C143.715 120.26 142.241 116.989 141.486 113.567C140.705 109.968 140.575 106.213 140.335 102.51C140.252 101.187 140.616 99.812 140.877 98.4891C141.116 97.3901 141.616 96.3485 141.809 95.2443C142.069 93.7443 142.132 92.2131 142.262 90.6922C142.09 90.6453 141.898 90.5985 141.7 90.5516C139.924 94.2131 138.168 97.8849 136.372 101.583C135.075 101.062 135.767 100.125 136.069 99.4683C137.304 96.786 138.689 94.1714 139.944 91.4995C141.96 87.2078 144.731 83.6037 148.741 80.937C150.408 79.8224 151.903 78.312 152.252 76.1037C152.575 73.8693 152.898 71.6297 153.247 69.1037C151.012 70.6245 149.132 71.7808 147.377 73.1349C144.168 75.6141 141.158 78.3693 137.845 80.7131C134.465 83.1193 130.83 85.1766 127.278 87.3485C125.887 88.1974 124.804 89.0933 124.418 90.8953C123.767 93.8953 122.856 96.8537 121.882 99.7703C121.299 101.526 120.429 103.187 119.653 104.875C117.788 108.864 115.991 112.875 114.043 116.802C112.418 120.098 110.773 123.401 108.799 126.489C107.715 128.192 107.523 129.526 108.689 131.109C110.163 133.062 110.424 135.213 109.882 137.572C109.663 138.468 109.84 139.453 109.84 140.526C110.361 140.494 110.773 140.593 111.054 140.442C112.872 139.437 114.757 138.51 116.424 137.312C118.09 136.135 119.283 136.088 120.429 137.817C121.168 138.937 121.689 140.208 122.205 141.453C123.054 143.479 123.747 145.656 126.408 145.916C130.2 146.291 133.814 146.968 136.262 150.51C137.543 146.437 138.168 142.505 137.523 138.489C137.111 136.026 136.741 133.536 135.247 131.348C133.944 129.468 132.799 127.437 131.887 125.338C131.002 123.229 130.09 121.01 130.392 118.619C130.549 117.395 130.934 116.203 131.215 114.994C131.325 115.031 131.455 115.062 131.564 115.098C131.564 116.364 131.476 117.635 131.585 118.895C131.866 122.494 133.038 125.791 134.986 128.843C135.918 130.296 136.892 131.77 137.497 133.369C139.252 138.072 139.601 142.921 138.497 147.859C138.257 148.916 138.168 150.005 138.017 151.078L138.476 151.26C139.038 150.427 139.731 149.651 140.163 148.75C140.684 147.692 141.007 146.536 141.335 145.401C141.767 143.791 142.413 143.5 143.955 143.927C145.752 144.416 147.028 145.255 147.116 147.651ZM137.908 173.63C136.569 173.526 136.59 173.463 136.22 172.427C135.658 170.864 135.116 169.255 134.293 167.822C133.642 166.703 132.648 165.755 131.694 164.848C129.418 162.713 127.21 160.635 124.028 159.656C119.372 158.229 114.908 158.411 110.424 160.062C110.642 161.338 108.929 163.291 107.502 164.244C107.372 163.958 107.22 163.635 106.934 163.036C102.366 169.526 101.934 176.5 102.278 183.692C101.887 182.604 101.455 181.51 101.351 180.385C100.783 174.63 101.866 169.192 104.616 164.093C104.903 163.604 105.075 162.843 104.903 162.375C104.575 161.567 103.924 160.89 103.361 160.067C103.148 160.312 102.799 160.557 102.627 160.885C99.8767 165.656 98.2934 170.619 99.5486 176.244C100.2 179.119 99.8299 182.072 99.3351 184.984C99.184 185.906 98.9861 187.005 99.3351 187.786C100.653 190.796 102.215 193.713 103.773 196.838C103.95 196.489 103.991 196.401 104.012 196.338C104.142 195.838 104.273 195.348 104.403 194.859C104.747 195.25 105.137 195.604 105.418 196.036C106.418 197.593 107.174 199.369 108.408 200.692C109.752 202.166 111.569 203.182 113.111 204.484C115.319 206.343 117.549 208.119 120.606 208.338C121.361 208.401 122.101 208.75 122.856 208.921C125.804 209.552 128.747 209.635 131.606 208.557C132.736 208.145 133.84 207.708 134.877 207.166C135.809 206.671 136.653 206.02 137.543 205.458C137.476 205.348 137.413 205.26 137.345 205.156C136.872 205.177 136.418 205.197 135.616 205.239C136.132 204.567 136.523 204.135 136.783 203.661C137.757 201.817 139.148 200.083 139.559 198.114C140.637 192.979 140.814 187.729 140.033 182.489L139.642 180.151C139.814 180.083 139.991 180.015 140.142 179.947C140.356 180.286 140.705 180.604 140.767 180.973C141.356 183.828 141.877 186.687 142.392 189.468C142.481 188.718 142.72 187.864 142.674 187.02C142.46 182.51 142.2 177.979 140.382 173.786C139.273 171.25 137.736 168.916 136.543 166.416C134.767 162.692 132.299 159.588 128.986 157.125C127.08 155.692 125.002 154.588 122.554 154.588C120.866 154.593 119.174 154.703 117.528 155.031C115.059 155.52 112.569 156.088 110.877 158.432C116.793 156.114 122.533 156.817 127.71 160C132.778 163.104 136.981 167.156 137.908 173.63ZM211.491 94.9683C211.424 95.1349 211.382 95.3016 211.314 95.4683C211.533 95.8068 211.705 96.1818 211.986 96.4735C215.278 100.052 218.596 103.625 221.908 107.177C223.08 108.416 224.314 109.578 225.502 110.791C226.174 111.484 226.866 112.171 227.455 112.937C229.273 115.333 231.179 117.598 234.252 118.458C235.596 118.833 236.939 119.291 238.262 119.744C239.559 120.187 240.84 120.692 242.116 121.145C242.898 121.416 243.679 121.645 244.627 121.947C240.148 122.739 236.809 119.536 232.694 119.197C232.783 119.401 232.783 119.536 232.846 119.625C234.361 121.458 234.861 123.604 235.054 125.916C235.142 127.088 235.554 128.244 235.924 129.375C236.158 130.187 236.679 130.927 236.877 131.744C237.351 133.578 237.569 135.484 238.153 137.281C238.887 139.64 239.95 141.901 240.752 144.255C241.596 146.76 242.184 149.338 243.83 151.541C246.278 154.822 248.439 158.338 252.017 160.588C253.012 161.223 253.944 162.151 255.028 162.416C256.283 162.734 257.517 163.484 259.054 162.661C263.257 160.395 266.46 156.963 269.819 153.723C273.481 150.187 277.575 147.963 282.752 148.588C287.45 149.145 291.632 146.833 296.2 146.598C295.767 146.151 295.335 145.807 294.835 145.52C293.299 144.593 291.632 143.828 290.2 142.744C287.408 140.625 284.179 139.739 280.804 139.01C277.747 138.343 274.715 137.583 271.726 136.614C268.325 135.494 265.012 134.109 261.674 132.802C261.372 132.687 261.2 132.302 260.939 132.041C261.309 131.984 261.721 131.791 262.023 131.901C263.991 132.593 265.924 133.427 267.892 134.083C271.033 135.125 274.174 136.182 277.377 137.02C281.84 138.187 286.627 138.255 290.59 141.057C290.658 141.104 290.809 141.015 290.872 141.005C289.898 139.52 288.642 138.156 288.059 136.552C286.866 133.375 285.955 130.083 285.132 126.786C284.872 125.697 285.153 124.437 285.351 123.281C285.523 122.213 285.976 121.197 286.236 120.13C286.778 117.817 286.778 115.552 285.653 113.354C283.054 108.312 279.002 104.708 274.304 101.723C273.028 100.921 271.793 100.078 270.299 99.0933C270.168 98.4995 269.887 97.3328 271.226 97.2235C272.83 97.0933 273.632 96.1037 274.866 94.8849C270.382 95.7964 266.335 95.6453 262.241 95.1245C258.971 94.7026 255.632 94.3276 252.361 94.5776C247.747 94.937 243.179 95.786 238.632 96.6193C232.241 97.7808 225.96 97.3849 219.653 96.2078C216.95 95.7026 214.194 95.3745 211.491 94.9683ZM207.33 17.6974C207.2 17.6193 207.049 17.5516 206.918 17.4787C205.793 18.9839 204.668 20.4891 203.538 21.9943C201.611 24.5776 200.096 27.3745 199.101 30.4422C198.538 32.1193 198.21 33.8901 197.564 35.5151C196.413 38.3068 195.09 41.0099 193.835 43.7547C192.236 47.2651 190.002 50.3901 187.059 52.786C184.049 55.2287 180.668 57.2183 177.398 59.3537C175.965 60.2964 174.45 61.0985 172.632 62.1558C177.179 62.437 181.252 62.6922 185.325 62.9474V63.5151H176.658C170.788 63.5203 164.898 63.4943 159.356 65.8641C158.747 66.1193 158.205 66.4787 157.622 66.7964C158.012 67.3797 158.403 67.7651 158.533 68.2235C159.809 72.3693 162.668 75.0828 166.439 76.9526C167.366 77.411 168.319 77.8328 169.273 78.1922C172.543 79.3849 175.642 80.9683 179.153 81.5203C181.491 81.8953 183.788 82.7339 186.08 83.4162C189.83 84.5256 193.575 85.6662 197.304 86.7964C198.361 87.1245 199.424 87.7964 200.486 87.7651C203.455 87.6922 206.424 87.2703 209.408 87.1141C213.439 86.9006 216.95 85.4839 220.153 83.062C222.95 80.9422 225.851 78.9578 228.668 76.8328C230.939 75.1089 233.497 74.2235 236.247 73.5412C238.523 72.9683 240.71 71.8693 243.179 72.161C243.392 72.187 243.679 71.7912 243.913 71.5881C244.434 71.161 244.887 70.562 245.476 70.3433C247.814 69.4735 250.262 68.8797 252.512 67.8693C254.247 67.1037 255.721 65.7808 257.366 64.8433C262.111 62.1558 265.054 58.2756 265.637 52.7443C265.898 50.0828 266.872 47.8328 269.408 46.4891C269.757 46.3068 269.908 45.7599 270.142 45.3797C269.731 45.1662 269.346 44.786 268.934 44.7756C266.59 44.7026 264.189 44.4162 261.892 44.786C258.773 45.2808 255.7 46.1818 252.689 47.1297C250.064 47.9578 247.616 49.2964 244.976 50.036C241.054 51.1297 237.007 51.786 233.064 52.8328C227.429 54.3224 221.799 55.8797 216.257 57.6297C212.465 58.8328 208.762 60.4214 205.033 61.8224C203.997 62.2131 202.934 62.5568 201.872 62.9266C201.788 62.7495 201.7 62.5724 201.611 62.3953C202.502 61.7391 203.304 60.8485 204.278 60.4735C207.028 59.4214 209.866 58.5933 212.637 57.6349C212.96 57.5256 213.439 57.0933 213.418 56.8641C213.288 55.8276 213.96 55.5464 214.674 55.1662C215.538 54.6922 216.361 54.1245 217.21 53.6037C219.418 52.2495 220.934 50.187 222.622 48.2964C224.596 46.1193 226.325 43.8224 227.387 41.0828C228.408 38.4683 229.163 35.7443 230.314 33.187C231.049 31.5203 232.283 30.0672 233.085 28.8693C229.642 30.161 225.96 31.7183 222.168 32.911C219.83 33.6454 218.616 33.1922 218.096 30.7756C217.944 30.0203 217.726 29.2547 217.444 28.5464C217.184 27.9891 216.861 27.3693 216.387 27.0151C214.913 25.9006 213.418 24.7651 211.793 23.8849C209.257 22.5203 207.913 20.4006 207.33 17.6974ZM172.33 164.067C171.83 163.151 171.288 162.437 171.049 161.635C169.403 156.223 167.648 150.838 166.283 145.359C165.72 143.072 165.851 140.546 166.069 138.161C166.392 134.218 166.694 130.291 166.153 126.354C165.939 124.802 165.72 123.218 165.226 121.739C164.403 119.213 164.705 116.927 166.262 114.838C167.023 113.833 167.715 113.932 168.148 115.13C168.799 117.015 169.34 118.942 169.793 120.88C170.898 125.39 171.83 129.906 175.252 133.458C178.372 136.671 181.622 139.656 185.497 141.916C187.101 142.848 188.658 143.838 190.351 144.859C190.069 145.078 189.83 145.364 189.741 145.322C182.554 142.02 176.205 137.661 171.507 131.104C172.564 133.531 173.648 135.953 175.252 137.979C177.851 141.291 180.861 144.281 183.549 147.52C187.189 151.885 189.507 157.036 191.997 162.078C193.642 165.458 195.116 168.89 197.95 171.578C199.231 172.791 200.205 174.411 201.007 176.01C201.418 176.864 201.741 177.479 203.023 177.697C203.194 176.239 203.538 174.822 203.517 173.411C203.455 170.182 203.127 166.958 203.064 163.723C203.043 162.005 203.715 160.197 203.366 158.583C202.694 155.588 201.2 152.822 198.799 150.838C197.434 149.713 195.658 149.067 194.054 148.239C193.142 147.765 192.148 147.406 191.846 146.067C197.778 147.458 201.809 151.005 204.408 156.401C205.361 154.13 206.314 152.083 206.767 149.937C207.09 148.416 207.418 146.671 206.335 145.197C205.684 144.286 204.799 143.51 204.278 142.526C203.715 141.479 203.153 140.25 203.194 139.119C203.325 135.963 202.674 133.39 199.444 132.098C199.361 132.067 199.273 132.01 199.21 131.968C196.997 130.791 196.741 128.666 196.523 126.52C196.46 125.864 196.502 125.093 196.174 124.588C193.773 120.911 192.95 116.77 192.517 112.52C192.408 111.473 192.491 110.406 192.491 109.354C192.668 109.348 192.84 109.338 193.012 109.338C193.684 114.557 194.596 119.708 197.257 123.927C199.033 123.666 200.554 123.442 202.002 123.229C198.882 117.932 196.892 112.385 196.653 106.265C198.236 110.598 198.95 115.239 201.351 119.296C203.757 123.343 206.226 127.296 210.059 130.333C209.517 130.75 209.153 131.046 208.674 131.432C209.517 132.786 210.189 134.281 211.252 135.421C212.377 136.625 212.658 137.968 212.898 139.463C213.309 141.984 213.351 144.64 215.497 146.572C216.038 147.057 216.189 147.937 216.668 148.52C217.163 149.151 217.773 149.765 218.444 150.187C219.679 150.942 220.846 150.385 222.059 149.942C224.116 149.182 224.726 149.536 225.418 151.552C226.564 154.822 226.997 158.348 229.533 161.078C230.726 162.359 231.679 163.447 233.648 163.442C235.382 163.437 236.637 162.52 238.132 162.046C239.929 161.479 241.835 160.802 243.632 160.937C245.408 161.067 247.122 162.098 248.809 162.838C250.262 163.468 251.71 163.807 253.356 163.406C253.293 163.223 253.101 163.177 252.971 163.072C248.918 160.02 245.517 156.38 243.049 151.973C241.705 149.614 240.731 147.057 239.648 144.557C238.913 142.812 238.194 141.046 237.611 139.239C236.637 136.166 235.773 133.057 234.882 129.963C234.382 128.276 233.908 126.583 233.476 124.885C233.236 123.979 233.346 122.869 232.866 122.151C230.898 119.218 228.924 116.281 226.653 113.593C224.596 111.135 222.127 109.026 219.872 106.713C216.991 103.739 214.174 100.713 211.293 97.7183C210.231 96.6037 209.304 95.2756 208.023 94.4943C206.528 93.5881 204.71 93.286 203.106 92.5256C201.611 91.812 199.903 91.1297 198.903 89.9266C197.517 88.2756 195.762 87.4891 193.924 86.9006C190.174 85.7026 186.34 84.7495 182.554 83.7339C181.622 83.4839 180.668 83.3745 179.778 83.2131C182.877 85.9474 185.908 88.6766 189.007 91.3172C191.668 93.5828 192.189 96.9526 193.622 99.8537C193.726 100.052 193.403 100.458 193.273 100.765C192.971 100.63 192.559 100.583 192.408 100.354C192.059 99.8745 191.825 99.3172 191.606 98.7703C191.085 97.4891 190.715 96.1349 190.049 94.9266C189.096 93.1818 187.773 91.7287 186.21 90.4422C183.247 87.9891 180.299 85.5047 176.788 83.8224C175.924 83.4006 175.059 82.9578 174.236 82.4318C173.648 82.036 173.236 81.3016 172.611 81.0308C169.601 79.7443 166.564 78.5776 163.554 77.3276C162.908 77.0672 162.366 76.6193 161.517 76.1037C162.366 80.9578 163.361 85.4578 163.903 90.0151C164.444 94.5464 164.554 99.1297 164.856 103.687C164.533 103.421 164.595 103.078 164.465 102.859C163.059 100.567 163.252 97.9995 163.122 95.4787C162.778 88.6766 161.517 82.0151 159.7 75.4787C158.944 72.7599 157.71 70.1558 154.59 69.1766C154.481 69.7651 154.372 70.3797 154.283 70.9943C154.262 71.1297 154.241 71.2703 154.241 71.4058C154.413 75.9683 152.767 79.6089 148.934 82.2495C147.72 83.0933 146.356 84.0151 145.642 85.2391C144.778 86.6714 144.429 88.4422 144.085 90.1089C143.434 93.1141 142.892 96.1506 142.392 99.1818C142.069 101.135 141.59 103.125 141.679 105.078C142.002 112.114 144.064 118.718 146.986 125.093C148.283 127.89 149.413 130.781 150.408 133.697C150.778 134.718 150.58 135.937 150.58 137.072C150.601 138.942 150.908 140.885 150.497 142.666C149.908 145.244 148.804 147.697 147.898 150.239C149.023 150.802 149.955 150.713 151.059 149.979C151.882 149.427 153.075 149 154.002 149.145C155.413 149.364 156.799 149.984 158.012 150.718C158.684 151.119 159.226 152.052 159.439 152.843C160.111 155.515 160.981 158.093 162.97 160.072C163.752 160.859 164.814 161.395 165.809 161.921C166.851 162.473 168.148 162.687 169.059 163.401C170.095 164.218 171.069 164.192 172.33 164.067ZM48.9549 149.041C50.283 149.994 51.6111 150.953 52.9392 151.901C51.9392 150.468 50.8195 149.203 48.9288 149.067C47.7465 148.734 46.5851 148.307 45.382 148.083C37.8611 146.703 30.5851 147.078 23.7882 151.078C20.1163 153.229 17.3559 156.354 14.6476 159.51C12.0486 162.531 11.3507 166.317 11.0278 170.145C10.9132 171.432 11.158 172.75 11.2413 174.052C11.3767 174.057 11.507 174.057 11.6424 174.062C11.7465 173.739 11.8819 173.416 11.9497 173.083C12.2517 171.635 12.3819 170.13 12.8663 168.739C14.0382 165.39 15.4392 162.114 17.8247 159.416C19.2049 157.859 20.7309 156.354 23.2309 156.364C23.0642 156.619 23.0174 156.75 22.9236 156.828C21.4809 158.026 19.8195 159.046 18.632 160.463C17.3715 161.968 16.559 163.848 15.559 165.567C15.0799 166.385 14.434 167.166 14.1997 168.052C13.6684 170.062 13.2049 172.109 12.9809 174.177C12.8194 175.692 12.6424 177.453 13.2413 178.755C14.4288 181.343 16.7205 183.13 18.9861 184.822C19.1788 184.963 19.4549 184.984 19.5903 185.02C19.6892 184.515 19.7205 184.083 19.882 183.708C19.9184 183.625 20.5955 183.645 20.6997 183.802C21.8195 185.484 23.6788 185.77 25.3715 186.364C28.5903 187.494 31.8976 187.567 35.1111 186.562C38.5538 185.479 41.6997 183.656 44.4236 181.307C46.0382 179.911 47.2882 178.109 47.7361 175.848C48.2934 173.052 48.8767 170.244 49.757 167.541C50.3038 165.859 51.6267 164.437 52.2361 162.77C53.1736 160.208 53.6788 157.51 53.382 154.739C53.3663 154.567 53.3195 154.348 53.1997 154.244C52.3351 153.463 51.4497 152.703 50.5747 151.937C48.5538 150.151 46.132 149.875 43.5695 149.947C40.3455 150.041 37.1215 150.031 33.8924 150.114C33.2726 150.13 32.632 150.312 32.033 150.51C31.3455 150.739 30.6892 151.078 30.0174 151.369C31.6007 149.812 33.3611 148.89 35.6736 148.963C40.0955 149.104 44.5278 149.031 48.9549 149.041ZM167.236 179.072C166.955 179.208 166.694 179.385 166.392 179.468C166.023 179.567 165.528 179.744 165.267 179.588C165.028 179.458 164.877 178.869 164.965 178.552C165.549 176.312 165.247 174.098 164.595 171.984C164.012 170.041 163.059 168.213 162.236 166.343C161.845 165.458 161.804 165.473 162.731 165.057C163.793 167.13 164.856 169.203 165.939 171.276C165.637 169.385 165.309 167.453 164.486 165.77C163.684 164.088 162.299 162.692 161.304 161.088C159.809 158.697 158.444 156.229 156.991 153.812C156.778 153.442 156.45 153.109 156.127 152.812C155.497 152.229 154.825 151.666 154.132 151.13C153.898 150.953 153.59 150.89 153.309 150.776C153.247 150.885 153.179 151.005 153.095 151.114L159.981 160.14C159.872 160.244 159.767 160.354 159.658 160.458C159.226 160.057 158.726 159.692 158.335 159.25C156.278 156.895 154.262 154.505 152.163 152.187C151.882 151.895 151.252 151.848 150.778 151.833C149.715 151.802 148.59 152.057 147.569 151.817C146.898 151.656 146.054 150.932 145.861 150.291C145.58 149.25 145.663 148.062 145.752 146.942C145.84 145.713 145.122 145.38 144.148 145.171C143.002 144.932 142.611 145.546 142.439 146.52C142.351 147.057 142.33 147.656 142.049 148.093C140.965 149.854 139.84 151.604 138.627 153.286C137.497 154.833 136.83 154.77 135.851 153.109C134.877 151.421 133.944 149.723 131.866 148.776C131.715 149.625 131.413 150.395 131.497 151.104C131.908 154.182 132.887 157.026 135.247 159.218C136.262 160.177 137.434 161.026 138.299 162.109C139.512 163.63 140.575 165.281 141.549 166.963C142.825 169.109 144.127 171.26 145.059 173.552C145.773 175.348 146.075 177.145 148.002 178.343C150.559 179.937 152.835 182 155.283 183.781C156.127 184.401 157.122 184.666 158.184 183.989C158.663 183.692 159.33 183.734 159.898 183.567C161.455 183.109 163.168 182.875 164.554 182.067C165.658 181.427 166.351 180.078 167.215 179.031C167.476 178.562 167.804 178.114 168.038 177.625C169.58 174.369 169.58 170.968 169.059 167.479C168.71 165.265 167.325 163.744 165.075 163.479C166.179 166.661 167.627 169.786 167.606 173.276C167.585 175.208 167.366 177.14 167.236 179.072ZM49.3351 191.187C49.0174 190.572 48.7049 189.958 48.2882 189.151C47.8767 189.645 47.5538 190.031 47.1945 190.463C48.0642 190.744 48.7153 190.958 49.3611 191.166C48.9809 191.979 48.0903 192.739 49.0851 193.776C49.4288 193.416 49.6997 193.13 49.9965 192.817C49.7726 192.26 49.5538 191.723 49.3351 191.187ZM205.101 141.708C206.033 142.781 207.288 143.651 207.632 144.796C208.132 146.427 208.304 148.317 208.002 149.989C207.59 152.281 206.658 154.489 205.882 156.703C204.773 159.765 204.017 162.817 204.408 166.161C204.773 169.125 204.773 172.145 204.773 175.14C204.773 176.098 204.319 177.067 203.997 178.01C203.736 178.781 203.434 179.552 203.043 180.25C202.783 180.682 202.351 181.088 201.892 181.276C201.721 181.354 201.2 180.89 200.96 180.572C199.491 178.567 197.819 176.916 195.247 176.213C193.924 175.848 192.58 174.984 191.627 173.989C190.09 172.421 188.205 171.666 186.319 170.755C184.585 169.916 182.939 168.828 181.424 167.64C180.366 166.807 179.387 166.203 178.023 166.192C176.918 166.187 175.835 165.911 174.689 165.744C177.069 182.411 161.106 193.234 148.132 186.953C147.7 189.52 147.377 192.13 146.767 194.677C145.58 199.697 143.434 204.223 139.58 207.859C137.023 210.265 133.861 211 130.653 211.802C130.309 211.89 129.96 211.911 129.7 211.953C132.168 222.786 131.174 233.223 126.819 243.317C126.97 243.427 127.038 243.536 127.101 243.536C131.627 243.083 135.877 244.619 140.184 245.505C141.59 245.786 143.002 246.656 144.148 247.562C145.991 249.083 147.637 250.859 149.345 252.526C152.335 255.427 154.309 259.109 156.601 262.51C159.486 266.713 161.543 271.281 161.955 276.5C162.168 279.057 161.606 281.505 161.262 283.994C160.741 287.593 159.549 290.906 157.684 293.958C156.168 296.406 153.679 297.88 151.189 299.223C150.45 299.635 149.674 299.984 148.892 300.369C149.778 301.822 150.71 303.125 151.403 304.552C152.918 307.63 154.543 310.703 155.715 313.932C156.819 316.942 157.601 320.104 158.142 323.265C159.075 328.593 158.075 333.729 155.804 338.625C154.611 341.203 152.726 343.109 150.497 344.776C146.898 347.437 142.851 348.781 138.45 347.848C135.767 347.286 133.21 346.052 130.7 344.927C128.835 344.083 126.95 343.151 125.392 341.869C120.866 338.145 117.898 333.359 116.424 327.687C115.819 325.322 115.252 322.942 114.929 320.515C114.757 319.239 115.101 317.875 115.189 316.791C114.064 317.848 112.59 318.869 111.616 320.234C110.835 321.317 110.512 322.812 110.273 324.177C109.903 326.125 109.773 328.14 109.559 330.13C109.34 332.255 109.21 334.401 108.929 336.52C108.819 337.343 108.929 337.822 109.47 338.557C112.372 342.609 114.345 347.072 114.215 352.223C114.194 352.744 114.106 353.244 114.168 353.739C114.194 354.046 114.408 354.609 114.585 354.609C116.663 354.739 117.788 356.427 119.09 357.598C121.252 359.546 123.616 361.364 125.132 364.01C127.252 367.734 129.465 371.354 130.741 375.489C131.866 379.125 132.345 382.833 131.976 386.515C131.715 389.375 130.632 392.125 129.877 394.984C130.72 395.067 131.757 395.114 132.757 395.286C135.075 395.697 137.434 396 139.663 396.692C141.095 397.151 142.543 397.994 143.585 399.057C145.47 400.958 147.075 403.171 148.783 405.27C150.668 407.588 151.45 410.406 152.163 413.197C153.028 416.619 153.205 420.192 151.924 423.442C150.538 426.953 148.72 430.546 145.773 432.932C142.981 435.161 139.944 437.76 135.851 437.088C134.012 436.786 132.236 435.963 130.392 435.484C124.09 433.776 119.325 429.942 115.903 424.572C113.736 421.192 111.898 417.489 112.09 413.218C112.158 411.875 112.439 410.536 112.653 409.104C112.309 409.083 112.007 409.02 111.7 409.041C109.752 409.255 107.825 409.604 105.877 409.645C104.575 409.687 104.033 410.166 103.793 411.401C103.58 412.505 103.038 413.567 102.887 414.692C102.778 415.432 102.887 416.359 103.252 417.01C106.179 422.145 107.262 427.713 107.345 433.536C107.345 433.625 107.325 433.708 107.345 433.817C107.606 435.682 107.632 437.458 106.913 439.296C106.069 441.442 105.658 443.76 104.877 445.927C104.444 447.098 103.642 448.135 103.017 449.239C107.455 450.932 111.637 452.75 114.278 456.953C115.319 458.598 116.793 459.963 117.877 461.588C118.741 462.885 119.502 464.317 119.997 465.791C120.929 468.494 121.991 471.203 122.356 474C122.773 476.989 122.705 480.083 122.424 483.093C122.054 487.276 120.278 491.02 117.726 494.359C115.361 497.411 111.918 498.541 108.325 499.166C104.012 499.947 99.8976 499.125 95.783 497.562C89.7153 495.291 85.5955 491.13 82.8142 485.52C81.8767 483.635 81.1632 481.536 80.8403 479.458C80.0955 474.645 80.8247 469.927 82.5538 465.401C82.9757 464.296 83.4288 463.213 83.9705 461.869C82.9549 461.953 82.0017 462.062 81.0382 462.109C80.4757 462.13 79.8611 462.151 79.3455 461.953C77.3455 461.26 75.4288 460.244 73.382 459.744C68.7257 458.598 65.7517 455.479 63.3507 451.645C59.9236 446.166 59.3611 440.119 60.5851 433.994C61.2465 430.677 62.908 427.583 64.0174 424.354C64.9705 421.583 66.6215 419.328 69.059 417.791C71.1945 416.427 73.4601 415.234 75.7674 414.192C81.2778 411.723 87.059 410.468 93.0747 411.489C95.2205 411.833 97.2309 413.005 99.2882 413.807C99.5486 413.911 99.7882 414.02 100.288 414.239C100.741 412.807 101.304 411.463 101.543 410.078C101.762 408.781 100.309 409.041 99.7465 408.932C97.059 408.322 94.6788 407.177 92.2934 405.791C89.1476 403.947 86.3247 401.76 83.8715 399.119C78.4028 393.229 75.6736 386.296 76.309 378.177C76.3872 377.197 76.0434 376.744 75.0486 377.114C73.2465 377.765 71.5955 377.093 70.033 376.401C67.3872 375.208 65.1215 373.494 63.2882 371.177C61.283 368.666 59.1059 366.239 58.0903 363.098C57.4601 361.171 56.9653 359.156 56.6007 357.166C55.9809 353.786 55.6945 350.364 56.7049 347.005C57.2413 345.229 57.8195 343.494 59.3403 342.177C60.4184 341.244 61.0538 339.791 62.132 338.838C63.6111 337.541 65.3142 336.479 66.9392 335.333C67.3507 335.046 67.8403 334.895 68.2465 334.593C71.1632 332.515 74.5903 331.541 77.9549 330.718C80.4132 330.109 83.1372 330.156 85.684 330.458C89.6111 330.911 93.507 331.713 97.3403 332.625C99.3559 333.098 101.241 334.119 103.148 334.942C103.861 335.223 104.512 335.635 105.377 336.088C106.111 331.802 106.783 327.687 107.523 323.375C106.22 323.916 104.986 324.328 103.819 324.911C100.872 326.447 97.6684 326.406 94.4809 326.343C91.1892 326.276 88.033 325.541 85.0538 323.937C80.2674 321.359 76.6684 317.786 75.1007 312.5C74.3247 309.901 73.8767 307.171 73.4028 304.489C73.2517 303.619 73.5017 302.687 73.5642 301.781C73.7101 299.572 73.5174 297.255 74.0799 295.151C74.7153 292.77 75.7413 290.364 77.1215 288.328C78.809 285.817 80.8976 283.541 83.0903 281.463C84.934 279.687 87.0486 278.125 89.2726 276.89C92.2726 275.223 95.4132 273.77 98.9653 273.619C101.892 273.515 104.793 273.187 107.694 273.057C108.819 273.015 109.95 273.255 111.158 273.359C110.986 270.869 110.554 268.291 110.705 265.76C110.835 263.244 111.569 260.755 112.09 257.937C108.366 259.588 104.533 260.234 100.549 259.432C96.6059 258.609 93.1372 256.77 89.8038 254.281C89.1424 256.661 88.5747 258.828 87.908 260.994C86.9757 263.984 85.3872 266.604 83.2465 268.921C82.0017 270.265 80.8715 271.739 79.7205 273.166C77.5174 275.916 74.4965 277.5 71.4184 278.947C67.2101 280.921 62.8663 281.005 58.2674 280.229C54.8663 279.64 52.1476 277.973 49.382 276.307C46.4965 274.572 45.0955 271.562 43.7726 268.572C41.7413 264.005 40.8299 259.197 40.8195 254.234C40.8195 252.265 41.2361 250.27 41.6215 248.322C42.184 245.463 42.6892 242.583 44.2153 240.026C44.8195 239.031 45.408 238.036 46.059 237.057C47.2726 235.26 48.3247 233.27 49.8195 231.755C51.2361 230.302 53.0174 229.046 54.8611 228.177C58.4601 226.51 62.1892 225.104 65.9184 223.739C67.0851 223.307 68.4132 223.177 69.6736 223.13C72.882 223.067 76.0955 223.109 79.3455 223.109C79.6892 221.942 79.9809 220.531 80.5226 219.213C82.3299 214.859 84.1736 210.484 87.3038 206.885C89.3924 204.505 91.7726 202.401 94.6111 200.781C96.5851 199.651 98.6215 198.958 100.7 198.182C101.997 197.682 102.064 197.401 101.434 196.187C100.439 194.208 99.507 192.182 98.5538 190.171C98.3611 189.729 98.1424 189.286 97.8195 188.562C96.757 190.421 95.7622 192.046 94.8715 193.708C93.1163 196.942 90.5174 199.5 87.8976 201.989C85.5799 204.177 82.7465 205.567 79.7257 206.52C79.0382 206.734 78.4236 206.864 78.533 207.838C78.559 208.078 78.0642 208.489 77.7413 208.598C77.507 208.661 77.1528 208.38 76.8559 208.25C76.4809 208.098 76.0799 207.755 75.7413 207.817C70.6997 208.578 66.3351 206.494 61.8299 204.744C57.6424 203.119 54.9861 199.958 52.5122 196.489C51.9497 196.817 51.3507 196.989 51.0538 197.401C50.6997 197.875 50.3142 198.614 50.4392 199.109C51.2517 202.359 51.184 205.609 50.5903 208.838C49.809 213.036 47.5017 216.505 45.1892 220.036C42.184 224.583 38.408 228.223 33.5174 230.604C29.283 232.682 24.7934 233.312 20.0799 232.729C14.8924 232.098 10.0799 230.494 6.35591 226.812C4.51736 224.994 3.20487 222.458 2.18403 220.036C-0.180551 214.38 -0.826385 208.468 1.25174 202.598C1.98091 200.541 3.49132 198.656 4.99132 197.01C8.51216 193.13 12.7934 190.27 17.7257 188.432C18.4861 188.151 19.2726 187.958 20.3142 187.635C19.1059 186.75 18.1111 185.994 17.0955 185.27C13.6632 182.833 11.1267 179.562 9.57466 175.76C8.52257 173.177 8.18403 170.244 7.90278 167.432C7.67362 165.208 7.88195 162.906 8.14757 160.666C8.48091 157.901 9.69445 155.411 11.1736 153.067C13.3976 149.531 16.4445 146.76 19.8872 144.5C23.132 142.364 26.684 140.645 30.5069 139.854C32.783 139.375 35.1997 139.578 37.5538 139.432C38.658 139.364 39.7517 139.208 40.7778 139.093C39.4549 137.52 38.1007 136.026 36.8767 134.427C34.3299 131.098 33.8611 127.171 33.6215 123.119C33.4132 119.656 33.908 116.291 34.7726 113.01C35.7622 109.27 37.7413 105.979 40.8611 103.572C42.9653 101.947 45.1163 100.302 47.4757 99.1193C49.9392 97.8849 52.5434 96.7443 55.4392 96.7651C58.4184 96.786 61.4184 96.5464 64.3767 96.8068C67.1997 97.0568 70.184 97.3328 72.7309 98.4422C76.2882 99.9839 79.684 102.067 82.809 104.385C85.1684 106.135 85.8767 109.145 86.4028 111.994C86.7257 113.776 86.9236 115.578 87.1945 117.473C90.6476 118.348 94.1788 118.281 97.8403 117.182C96.4757 113.588 98.033 110.239 98.6215 106.781C98.9445 104.729 99.007 102.625 99.1372 100.541C99.3559 96.8068 99.8299 93.1401 101.455 89.7078C102.408 87.6974 103.319 85.6558 104.231 83.6349C105.616 80.5776 107.934 78.3589 111.028 77.2756C113.132 76.5464 115.491 76.6401 117.7 76.1245C119.392 75.7339 121.017 75.0672 122.595 74.3276C123.465 73.9266 123.851 73.1245 123.7 71.9578C123.486 70.1141 123.616 68.2235 123.569 66.3589C123.465 59.8693 122.616 53.4787 121.252 47.1506C120.517 43.7703 120.168 40.2964 119.283 36.9683C117.549 30.4995 115.299 24.2443 111.444 18.6349C109.408 15.661 107.804 12.3849 106.069 9.21306C104.684 6.69222 103.382 4.12972 102.106 1.56201C101.892 1.12972 101.976 0.551597 101.913 0.0463892C102.408 0.0359725 102.929 -0.0525692 103.429 0.0463892C104.382 0.244305 105.377 0.426597 106.267 0.838056C106.981 1.1766 107.825 1.70264 108.148 2.37451C110.252 6.65056 112.111 11.0464 114.257 15.2964C115.278 17.3381 116.793 19.1297 118.028 21.062C120.606 25.0828 122.054 29.5308 122.642 34.2235C123.205 38.8953 124.372 43.3849 126.215 47.6974C127.038 49.6401 127.752 51.7131 128.986 53.3953C131.674 57.1141 135.309 59.3693 139.991 59.9474C143.736 60.411 147.418 61.2599 150.819 62.9474C151.991 63.5256 153.137 64.161 154.262 64.8016C155.345 65.4162 156.215 65.0881 157.038 64.2703C158.012 63.286 159.158 62.437 160.049 61.3745C160.72 60.5776 161.325 59.5881 161.585 58.5828C162.148 56.2756 162.189 53.9526 161.606 51.562C160.851 48.4735 161.908 45.5985 163.58 43.0412C167.085 37.6714 171.7 33.5568 177.892 31.5047C180.189 30.7339 182.575 30.1766 184.892 29.4422C187.752 28.5412 190.543 27.536 192.971 25.661C194.856 24.1974 197.043 23.1141 198.95 21.6558C201.09 20.0047 203.064 18.1297 205.101 16.3224C205.684 15.7912 206.137 15.1037 206.767 14.6141C207.028 14.411 207.721 14.3693 207.913 14.5568C208.304 14.937 208.674 15.5047 208.715 16.036C209.106 19.5203 211.101 21.8172 214.023 23.4943C214.997 24.0568 215.887 24.7912 216.882 25.3537C218.83 26.4683 219.2 28.3537 219.46 30.3172C219.679 31.8849 219.83 31.9839 221.387 31.6349C225.872 30.6297 230.158 29.0933 234.21 26.8797C235.965 25.9162 237.653 25.5881 239.585 26.7964C240.773 27.5516 242.267 27.8589 243.653 28.2443C245.148 28.6662 246.319 29.5412 246.991 30.8641C247.663 32.1662 248.7 32.8224 249.981 33.2703C251.366 33.7495 252.71 34.3016 254.096 34.7495C254.83 34.9839 255.632 35.2912 256.346 35.1922C259.898 34.7183 263.559 35.3276 267.049 34.1401C267.721 33.9162 268.606 34.0203 269.299 34.2599C270.168 34.5568 271.252 34.8224 270.231 36.2964C269.476 37.3797 269.148 38.786 268.783 40.0881C268.694 40.3953 269.106 41.036 269.45 41.2339C270.71 41.9526 272.049 42.5516 273.351 43.1922C274.085 43.562 274.262 44.0933 273.674 44.6922C273.028 45.3328 272.398 46.036 271.637 46.4422C268.627 48.0047 267.221 50.4526 266.809 53.7756C266.179 59.0464 263.278 62.8485 258.689 65.4578C257.497 66.1245 256.543 67.1922 255.351 67.8172C252.793 69.1506 250.174 70.3172 247.424 71.6245C248.054 71.8172 248.767 72.036 249.481 72.2547C251.866 72.9839 254.288 73.6141 256.627 74.4943C257.538 74.8381 258.361 75.6506 259.033 76.411C260.179 77.7391 261.221 79.1766 262.262 80.5985C262.627 81.0985 262.976 81.687 263.085 82.2756C263.606 85.0256 265.356 86.4526 267.83 87.4995C271.075 88.8693 274.194 90.5464 277.335 92.1662C278.418 92.7287 277.944 93.4943 277.314 94.1506C275.861 95.6401 274.413 97.1245 272.851 98.7339C274.111 99.5776 275.408 100.427 276.71 101.322C280.132 103.708 283.142 106.494 285.309 110.114C285.351 110.192 285.392 110.281 285.439 110.348C288.554 114.166 288.403 118.38 286.866 122.718C286.132 124.812 286.325 126.786 287.038 128.843C287.689 130.64 288.08 132.52 288.601 134.364C289.465 137.442 291.632 139.572 293.84 141.703C295.575 143.401 297.309 145.125 298.997 146.885C299.168 147.083 299.168 147.718 298.997 147.947C298.757 148.265 298.215 148.609 297.872 148.552C295.163 148.114 292.497 148.244 289.965 149.182C287.127 150.229 284.205 149.916 281.319 149.89C279.694 149.88 278.247 150.109 276.773 150.838C274.653 151.875 272.658 153.01 270.924 154.656C268.392 157.041 265.793 159.354 263.127 161.578C261.632 162.812 259.986 163.875 258.319 164.854C257.58 165.296 256.564 165.635 255.741 165.52C252.58 165.093 249.372 165.072 246.382 163.359C243.981 161.973 241.142 161.994 238.543 163.406C236.314 164.619 233.997 165.338 231.481 164.682C230.7 164.484 229.944 163.932 229.382 163.354C228.601 162.593 228.038 161.619 227.325 160.802C225.528 158.786 225.221 156.203 224.549 153.765C224.486 153.505 224.418 153.234 224.356 152.973C223.793 151.083 223.293 150.765 221.387 151.531C220.111 152.046 218.877 152.093 217.705 151.562C217.012 151.25 216.387 150.656 215.908 150.046C215.194 149.114 214.804 147.906 214.002 147.093C212.184 145.265 211.663 143.015 211.554 140.614C211.471 138.755 210.689 137.364 209.564 135.885C207.872 133.703 206.705 131.14 205.231 128.807C204.491 127.625 203.606 126.52 202.653 125.494C202.262 125.093 201.528 124.765 201.007 124.833C200.184 124.937 199.012 125.187 198.689 125.765C197.799 127.421 197.997 129.197 199.512 130.494C200.465 131.307 201.59 131.947 202.715 132.531C203.799 133.083 204.471 133.76 204.429 135.052C204.387 135.911 204.491 136.776 204.559 137.635C204.622 138.494 204.668 139.27 205.663 139.776C206.465 140.197 206.205 141.125 205.101 141.708Z" fill="#A87A64"/>
</svg>
