<?xml version="1.0" encoding="utf-8"?>
<!-- Generator: Adobe Illustrator 24.0.3, SVG Export Plug-In . SVG Version: 6.00 Build 0)  -->
<svg version="1.1" id="Layer_1" xmlns="http://www.w3.org/2000/svg" xmlns:xlink="http://www.w3.org/1999/xlink" x="0px" y="0px"
	 viewBox="0 0 1080 1080" style="enable-background:new 0 0 1080 1080;" xml:space="preserve">
<style type="text/css">
	.st0{opacity:0.16;fill:#9F702A;}
	.st1{opacity:0.2;}
	.st2{fill:#9F702A;}
	.st3{fill:#FEBF13;}
	.st4{fill:#FFFFFF;}
</style>
<g>
	<path d="M260.3,442.5c2.1-14.6,4.5-29.1,9.6-43c20-53.7,55.9-91.4,111.9-106.5c51-13.7,96.3-0.3,135.4,34.7
		c6.9,6.2,13.4,12.9,19,20.3c2.6,3.4,3.9,3.6,6.7,0.1c15.3-19.1,33.5-35.1,55.8-45.4c55.6-25.8,107.9-17.9,155.6,19.1
		c38.3,29.7,58.6,70.1,63.9,118c5.7,51.2-8.1,97.9-33,142c-24.5,43.5-57.8,79.7-95.2,112.2c-43.2,37.5-91,68.3-140.9,95.9
		c-6.9,3.8-13.4,3.3-20.1-0.5c-58.7-32.6-114.4-69.4-162.9-116.4c-36.9-35.8-68-75.7-88.1-123.5c-8.8-20.9-14.8-42.5-17.2-65.1
		c-0.1-0.9-0.5-1.7-0.7-2.6C260.3,468.7,260.3,455.6,260.3,442.5z M399.5,508.4c-6.4,12.8-12.4,24.4-18,36.2
		c-4.2,8.9-10.7,13.2-20.7,12.9c-11.8-0.3-23.6,0.1-35.5-0.2c-4.7-0.1-5.2,0.8-2.9,5c14.4,26.4,32.5,50,53.1,71.7
		c46.5,49,101.7,86.7,160.1,119.9c3.1,1.8,5.6,1.5,8.6-0.2c37.2-21.1,73.1-44.2,106.5-71c42.6-34.2,80.4-72.7,106.7-121.2
		c20.4-37.7,31.7-77.7,26.5-121c-4.7-39.3-22.6-71.4-54.3-95.3c-37.4-28.1-84.8-30.7-124.9-6.8c-20.7,12.3-36.1,30.1-49,50.4
		c-9.1,14.3-23,14.3-32.1,0c-8.7-13.7-18.8-26.4-31-37.1c-25.8-22.7-55.8-33.4-90-28.3c-40.3,6-69.7,28.8-89.6,63.8
		c-24,42.3-22.9,86.8-9.3,132c1,3.3,3,4.1,6.1,4.1c12.5-0.1,25.1-0.3,37.6,0.1c4.9,0.1,7.5-1.5,9.6-5.9
		c8.5-17.7,17.5-35.2,26.2-52.7c3.3-6.7,8.3-11.2,16-11.3c8-0.1,13.1,4.5,16.4,11.4c0.6,1.3,1.3,2.6,2,3.9
		c16.3,32.5,32.5,65,48.8,97.6c0.9,1.7,1.2,3.8,3.5,5c1-1.8,1.9-3.5,2.8-5.2c16.8-33.7,33.7-67.3,50.4-101
		c3.4-6.9,8.3-11.6,16.3-11.7c8.2,0,13.2,4.7,16.7,11.9c8.3,17,17.1,33.8,25.2,50.8c2.5,5.3,5.5,7.3,11.5,7.3
		c34.6-0.3,69.1-0.2,103.7-0.1c11.4,0,19.2,7.2,19.1,17.3c0,10.3-7.6,17-19.2,17.1c-39.8,0-79.7,0-119.5,0.1
		c-8.8,0-14.8-3.6-18.7-11.5c-5.3-11-10.8-21.8-16.3-32.7c-0.6-1.1-0.9-2.8-2.2-2.9c-1.8-0.2-2,1.8-2.7,3c-4.5,8.9-9,17.9-13.5,26.8
		c-12.8,25.5-25.5,51.1-38.3,76.6c-4.1,8.1-10.5,11.7-18.5,10.4c-6.9-1.1-11-5.7-14-11.7c-15.6-31.4-31.4-62.8-47.1-94.2
		C404,517.3,402,513.5,399.5,508.4z"/>
</g>
</svg>
