<svg width="251" height="495" viewBox="0 0 251 495" fill="none" xmlns="http://www.w3.org/2000/svg">
<path d="M185.758 252.995C179.982 250.974 176.81 251.349 172.737 250.75C166.456 249.818 162.508 242.412 152.815 237.448C149.221 235.61 153.836 236.255 157.435 238.771C161.857 241.865 162.081 242.229 162.836 242.084C165.862 241.469 156.378 237.287 154.065 235.203C159.154 236.766 159.112 237.302 159.435 236.412C159.623 235.891 159.242 235.844 157.779 235.13C160.419 234.719 163.425 237.672 164.076 235.787C164.154 235.558 163.56 235.354 160.862 234.203C166.982 233.396 180.242 239.677 185.971 243.172C194.55 248.396 194.248 255.974 185.758 252.995ZM142.008 240.427C142.034 240.36 142.128 240.224 142.107 240.469C141.935 240.646 141.961 240.505 142.008 240.427ZM141.044 241.87C140.867 242.177 140.56 242.438 140.32 242.693C140.065 242.964 139.779 243.209 139.539 243.49C139.534 243.5 139.524 243.505 139.518 243.511C139.346 243.724 139.305 243.38 139.383 243.308C139.435 243.261 139.487 243.214 139.534 243.167C139.711 242.912 139.93 242.677 140.149 242.469C140.164 242.453 140.18 242.438 140.201 242.412C140.253 242.354 140.3 242.302 140.346 242.266C140.513 242.094 140.675 241.917 140.873 241.787C140.971 241.594 141.128 241.782 141.076 241.828C141.065 241.839 141.055 241.849 141.05 241.86C141.044 241.86 141.044 241.865 141.044 241.87ZM113.701 295.568C113.909 295.365 114.138 295.198 114.367 295.032C115.065 294.532 115.841 294.136 116.659 293.896C116.94 293.813 117.221 293.709 117.498 293.615C117.529 293.604 117.565 293.594 117.596 293.578C117.945 293.469 118.305 293.349 118.664 293.391C118.763 293.401 118.883 293.448 118.883 293.552C118.883 293.63 118.794 293.688 118.711 293.719C118.524 293.802 118.331 293.886 118.133 293.969C117.971 294.037 117.831 294.136 117.669 294.203C115.159 295.172 113.57 296.229 113.482 295.823C113.461 295.755 113.664 295.604 113.701 295.568ZM131.732 283.084C137.32 280.735 137.498 278.011 140.789 276.714C142.477 276.052 142.659 278.662 142.289 280.282C142.211 280.646 142.102 281 141.966 281.354C141.404 282.849 140.456 284.188 139.388 285.37C138.227 286.651 136.883 287.766 135.44 288.724C134.076 289.63 132.607 290.401 131.06 290.943C130.409 291.162 129.695 291.412 129.003 291.469C127.951 291.558 126.93 291.636 125.899 291.886C125.565 291.969 125.227 292.063 124.888 292.042C124.951 291.88 125.123 291.797 125.284 291.74C126.529 291.245 127.82 290.912 129.055 290.412C130.482 289.834 131.94 289.271 133.284 288.49C133.914 288.125 135.435 287.261 134.899 286.308C134.477 285.573 133.633 287.802 127.289 289.589C125.753 290.026 125.649 290.146 125.149 289.672C126.029 289.271 131.789 286.797 130.805 285.922C130.294 285.469 117.258 292.255 117.56 291.052C118.112 288.813 130.576 283.573 131.732 283.084ZM119.034 303.167C119.221 303.162 119.169 303.302 119.154 303.375C118.836 303.349 118.831 303.172 119.034 303.167ZM129.602 296.854C133.336 296.094 135.159 296.396 144.873 296.49C149.758 296.532 150.175 295.891 150.846 296.094C153.242 296.823 155.43 295.516 157.185 296.11C155.477 296.849 153.742 296.672 153.18 297.183C152.904 297.443 153.06 297.776 153.274 297.818C154.091 298.005 153.971 297.896 156.492 297.308C158.32 296.875 156.966 295.985 158.221 295.901C173.721 294.875 153.498 313.558 137.81 309.709C136.914 309.485 127.096 307.063 126.018 306.526C108.919 297.99 135.638 309.011 138.529 307.99C138.904 307.854 138.753 307.209 138.607 307.136C137.117 306.344 140.654 308.193 127.518 303.896C124.862 303.026 128.617 304.058 132.794 304.37C134.175 304.474 134.805 303.323 132.883 303.104C132.789 303.068 132.633 303.078 132.529 303.068C130.466 302.808 128.451 302.308 126.435 301.834C125.623 301.641 124.81 301.453 123.987 301.334C123.607 301.276 123.268 301.25 122.893 301.282C122.628 301.313 122.326 301.24 122.06 301.219C121.774 301.183 121.487 301.157 121.201 301.13C121.107 301.115 121.003 301.099 120.93 301.037C120.925 301.026 120.914 301.016 120.914 301.005C120.909 300.99 120.925 300.974 120.935 300.959C121.143 300.735 121.482 300.698 121.784 300.698C122.19 300.703 122.581 300.766 122.982 300.802C124.487 300.959 125.998 301.162 127.503 301.334C128.445 301.443 129.18 301.974 129.57 300.771C129.914 299.724 130.242 300.115 132.992 299.641C134.524 299.375 133.732 298.485 131.524 298.547C119.774 298.917 117.602 299.276 129.602 296.854ZM108.096 322.354C113.076 321.177 115.878 325.365 102.951 332.823C98.1486 335.589 98.3829 338.453 95.2163 338.808C95.4819 338.401 95.8881 337.172 95.0756 337.448C94.3152 337.714 93.5704 338.016 92.8152 338.302C93.1434 337.469 96.7631 334.943 96.3361 334.599C95.5236 333.943 94.2631 335.714 94.3881 334.188C94.4819 333.032 92.6902 334.599 91.6538 335.313C91.0288 334.037 101.018 324.016 108.096 322.354ZM78.8673 353.865C79.2527 353.073 79.0392 352.094 79.6798 351.276C80.159 351.99 80.435 352.797 81.8309 352.948C80.7684 353.5 78.3465 354.943 78.8673 353.865ZM108.836 344.005C122.367 349.407 136.206 348.177 132.971 352.86C132.044 354.209 131.971 353.802 118.383 358.38C107.649 362 105.388 360.089 95.659 355.74C93.8309 354.917 93.1017 354.438 95.0288 354.964C102.998 357.136 104.763 358.172 111.878 357.532C112.461 357.479 113.159 357 112.93 356.558C112.32 355.417 112.06 357.183 104.419 356.084C103.221 355.912 96.9246 354.13 96.2371 353.755C96.7579 353.214 97.6642 354.157 98.5652 353.735C99.2579 353.407 98.9819 352.761 98.6277 352.651C92.7788 350.87 100.888 352.38 100.419 350.485C100.143 349.349 91.9194 351.276 93.1069 350.714C95.06 349.792 94.8934 350.12 95.5131 349.787C96.2475 349.386 95.8361 348.693 95.3621 348.636C94.4715 348.537 94.185 348.74 90.9194 349.917C90.9402 349.901 91.1642 349.349 91.9038 348.849C97.0444 345.401 101.565 345.183 99.8465 344.438C98.2059 343.714 93.3517 346.38 91.8777 347.391C81.0913 354.771 95.4871 338.672 108.836 344.005ZM88.3413 353.542C89.7788 352.948 90.6746 353.683 91.6225 354.224C90.5704 354.099 89.4871 354.047 88.3413 353.542ZM66.7215 375.516C68.8777 369.037 75.5496 357.636 75.5861 357.573C76.0027 357.985 76.4298 356.766 66.7215 375.516ZM54.3361 408.36C55.7006 407.75 60.6381 410.813 63.0913 415.203C65.3361 419.219 62.4142 418.943 68.1954 426.818C70.034 429.328 71.8361 430.433 72.2631 434.979C72.4611 437.157 70.9402 441.198 67.6746 440.328C64.9194 439.599 60.6173 435.11 58.8986 432.672C53.2059 424.578 42.1173 420.782 44.2996 415.459C44.8309 414.162 43.3465 415.219 44.7163 411.521C45.0548 410.438 48.2006 406.636 49.534 407.729C56.1642 413.167 54.7475 416.745 55.9715 416.203C57.7319 415.422 53.4246 409.328 52.1486 408.25C51.8986 408.037 52.0496 407.558 52.5652 407.714C53.4246 407.974 53.3881 408.792 54.3361 408.36ZM68.9142 390.469C72.4715 384.87 78.6329 379.714 76.9975 385.448C76.2371 388.11 71.9038 393.99 70.9298 394.13C70.5809 393.464 71.3309 393.037 71.3048 392.433C70.9298 392.271 70.6381 392.709 70.3673 392.933C70.0444 393.209 69.7267 393.479 69.3986 393.755C69.2111 393.917 69.0131 394.084 68.7684 394.146C68.7319 394.151 68.685 394.162 68.6538 394.136C68.5756 394.094 68.6173 393.974 68.6694 393.896C69.6486 392.495 71.034 391.459 72.0288 390.073C72.5704 389.313 71.9611 388.427 71.06 389.37C65.1434 395.563 64.8465 396.308 61.7059 398C63.1017 395.985 66.2371 394.677 68.9142 390.469ZM84.6225 389.714C110.451 386.74 96.2423 402.573 75.8256 403.5C74.7111 403.552 80.9715 400.558 72.1798 402.349C67.7684 403.25 73.9506 400.854 75.3256 400.511C75.8361 400.386 76.284 399.537 75.9611 399.25C75.6017 398.964 74.9611 399.183 74.5809 399.292C73.784 399.516 73.0184 399.854 72.2684 400.193C70.4767 400.985 68.6694 401.672 67.0027 402.719C66.6538 402.943 66.2788 403.188 65.8673 403.229C65.81 403.229 65.7579 403.229 65.7163 403.198C65.6329 403.125 65.7111 403 65.7944 402.922C66.7111 402.026 67.7475 401.479 68.8413 400.86C69.5809 400.448 70.2892 399.969 71.0288 399.558C74.3986 397.698 78.0184 396.302 81.7267 395.292C82.5652 395.063 82.6798 393.584 81.7423 393.828C72.2267 396.323 72.1381 397.287 65.3152 401.729C69.534 394.729 80.9142 390.141 84.6225 389.714ZM30.7527 491.813C29.2996 498.547 21.1642 486.714 22.5027 483.177C27.8152 469.12 28.8673 462.297 30.2527 457.662C36.7215 435.938 31.6538 454.469 42.9871 418.136C45.1954 421.349 38.0756 432.651 41.4298 430.36C42.0392 429.943 41.9611 429.271 43.3725 424.943C45.0444 419.782 45.3256 421.927 44.8986 422.886C43.4298 426.198 36.6486 450.985 34.185 458.125C30.7215 468.157 33.4871 467.219 33.7319 465.141C33.8361 464.266 44.7892 426.052 45.6746 423.188C45.81 422.729 47.2111 422.214 45.9454 426.323C24.2892 496.584 35.3361 470.558 30.7527 491.813ZM66.3048 364.078C67.06 364.485 67.6225 364.755 68.2892 362.792C68.4871 362.203 70.0496 359.052 71.0131 359.448C68.9194 363.266 63.3361 372.662 66.9454 369.808C67.5288 369.344 72.7006 357.709 73.7736 358.255C74.5392 358.651 62.4454 378.834 63.1381 379.594C63.935 380.485 64.6902 378.547 65.0965 377.74C65.31 377.323 65.6329 377.792 65.5652 377.959C63.9611 381.698 62.1538 384.339 59.6173 390.933C53.1121 407.808 55.0965 406.526 49.5392 406.391C45.1277 406.287 64.7684 363.261 66.3048 364.078ZM56.6746 362.568C57.0548 362.282 60.4975 360.078 60.8673 359.813C61.8152 359.136 61.3256 358.245 60.3361 358.849C54.1954 362.604 47.5965 362.401 50.0444 363.693C51.0027 364.193 55.5652 362.099 56.6173 362.589C54.4611 363.297 52.2996 363.985 50.1225 364.62C48.8725 364.985 47.6121 365.339 46.3465 365.63C45.2267 365.886 44.0861 365.917 42.9819 366.198C42.5236 366.318 42.0392 366.552 41.5704 366.604C41.1225 366.646 40.7111 366.782 40.2684 366.891C38.7996 367.245 37.0809 367.485 35.6069 367.042C35.0027 366.86 34.4298 366.511 34.1902 365.901C33.8829 365.094 34.2267 364.167 34.5704 363.438C36.2788 359.907 50.6902 348.021 53.7319 345.584C56.4767 343.37 66.6798 338.714 71.3673 341.542C71.6173 341.698 71.4038 341.974 71.2475 341.985C70.2996 342.052 67.2527 340.828 61.1381 343.318C58.8465 344.245 49.6017 349.766 52.5027 350.13C54.1538 350.339 60.2736 341.917 70.8934 343.318C70.1277 344 66.159 343.891 67.7006 345.094C68.4663 345.688 69.8986 344.88 71.7631 345.157C71.9246 345.865 67.0131 346.516 65.5652 348.339C65.2944 348.688 65.7475 349.271 66.0548 349.177C67.8777 348.62 70.6798 346.235 74.6381 346.782C70.6746 348.584 70.1225 348.646 70.4819 349.115C71.0756 349.886 71.1642 349.641 71.8361 349.375C79.0652 346.526 73.2892 349.433 73.56 349.797C74.034 350.443 75.1017 350.047 75.7788 349.62C76.2684 349.308 77.1121 349.5 74.5809 352.078C73.9298 352.74 74.9142 353.495 75.4923 353.032C76.3152 352.38 76.8517 351.521 77.4142 350.87C78.8309 349.25 78.4559 354.386 74.6902 356.11C73.4663 356.667 64.6642 359.933 56.6746 362.568ZM84.0652 322.672C82.3673 321.594 83.9038 318.693 85.1798 317.203C85.8569 316.412 87.4819 317.219 86.2944 319.521C86.2579 319.594 86.0392 319.63 85.9559 319.589C84.7475 318.979 85.1954 320.49 84.0652 322.672ZM77.7788 346.167C77.9715 345.927 77.9298 346.193 77.9246 346.271C77.7267 346.552 77.6381 346.344 77.7788 346.167ZM28.8465 424.141C27.7215 424.985 26.4506 425.875 25.0548 426.214C24.3673 426.38 23.5236 426.391 23.0652 425.761C22.5913 425.11 22.6954 424.162 22.8517 423.422C23.1225 422.172 23.6954 420.985 24.3413 419.88C26.2423 416.667 29.0444 413.959 32.1486 411.901C33.409 411.063 34.3829 409.953 35.9923 409.792C36.0756 409.782 36.185 409.797 36.1954 409.88C36.2006 409.927 36.1694 409.969 36.1381 410C35.5288 410.657 34.7475 411.13 33.9715 411.558C33.31 411.927 32.4923 412.344 31.9871 412.907C31.6121 413.323 32.0548 413.922 32.5704 413.802C34.3881 413.37 37.1121 409.828 38.56 410.407C38.6121 410.469 31.4038 415.11 31.1121 417.026C30.7475 419.391 34.9663 413.828 35.8309 414.443C35.409 414.849 34.8621 415.375 34.2319 415.948C33.7111 416.427 34.3309 417.177 34.8673 416.792C36.4767 415.62 37.8934 414.115 39.3361 412.745C40.1538 411.979 41.0236 411.183 42.1173 410.927C42.284 410.891 42.5236 410.922 42.534 411.094C42.534 411.177 42.4767 411.25 42.4142 411.313C42.1173 411.594 41.7892 411.828 41.4611 412.073C40.7006 412.641 39.9454 413.229 39.2111 413.828C38.8777 414.094 37.5548 414.828 38.0444 415.37C38.3413 415.709 39.0027 415.224 39.2736 415.058C40.0079 414.604 40.6954 414.073 41.409 413.584C42.8517 412.604 42.4923 412.808 42.5288 414.37C42.56 415.683 39.3881 416.224 28.8465 424.141ZM35.6798 400.854C31.534 399.183 29.0079 397.969 25.2631 397.49C23.7059 397.292 19.7788 396.907 18.685 398.032C20.0861 399.318 25.4194 397.745 31.4559 400.594C33.6069 401.604 19.1954 400.469 16.8517 400.198C6.02877 398.953 -1.47644 389.151 2.19023 385.834C4.49231 383.761 4.90898 384.302 7.91419 383.084C12.6173 381.188 27.6381 384.828 34.5392 394.526C35.0496 395.235 35.5184 395.886 35.9559 396.469C33.3986 394.349 29.7475 391.927 25.0756 390.099C22.0809 388.933 23.3465 390.662 23.6329 390.828C25.0444 391.683 29.4402 393.24 32.909 396.214C36.9454 399.677 26.1486 392.844 25.2944 394.422C24.9454 395.068 25.5809 395.427 26.2788 395.646C33.4871 397.917 37.5131 401.594 35.6798 400.854ZM46.7111 391.469C47.6434 384.245 51.2684 381.235 49.6069 380.459C48.4767 379.927 48.0184 385.526 46.1434 384.636C44.9923 384.089 43.7267 391.813 43.7892 394.089C43.8256 395.526 43.7163 395.282 43.4246 395.282C42.4663 384.667 45.5965 381.974 47.6434 376.235C49.3569 371.427 52.9246 377.448 50.9142 381.464C47.1121 389.052 47.5184 390.386 46.7111 391.469ZM74.1381 336.896C74.1434 336.782 74.1173 336.516 73.7944 336.032C68.6694 328.115 62.2736 321.646 63.3986 318.511C63.8621 319.459 64.6902 321.068 66.1381 323.74C68.7788 328.615 73.5913 332.13 74.5809 335.688C74.7996 336.474 74.3361 336.797 74.1381 336.896ZM74.1381 336.917C74.1694 336.912 74.1954 336.901 74.2319 336.891C74.1173 336.974 74.1329 336.995 74.1381 336.917ZM62.7267 314.948C62.7267 314.953 62.7267 314.953 62.7267 314.959C62.7736 314.948 62.4038 315.058 62.7267 314.948ZM63.9871 299.599C64.3152 297.755 65.0809 296.667 66.9767 294C67.9767 292.599 70.159 293.927 70.8621 295.505C72.06 298.209 73.1069 303.344 73.3048 305.948C73.685 310.87 76.0548 311.375 77.284 323.469C76.1694 323.547 76.8517 321.839 76.0079 320.917C75.8413 320.735 75.4819 320.771 75.3517 321.063C75.1121 321.589 75.4142 321.703 76.2579 326.115C76.4611 327.209 76.1746 327.49 76.0184 327.584C74.9975 326.24 76.2944 325.521 73.9663 324.078C73.9246 324.052 73.7006 324.172 73.6798 324.261C73.5548 324.683 73.7267 325.068 73.8569 325.459C75.2371 329.636 75.0288 331.318 74.1329 329.172C71.3673 322.516 70.06 323.979 70.3152 324.63C70.6381 325.443 71.0027 325.25 72.4923 328.594C74.0496 332.089 62.1381 321.813 64.159 309.162C64.31 308.224 64.6694 305.558 63.7527 305.797C63.1277 305.959 63.284 306.219 62.6746 310.037C62.3829 311.834 62.31 309.953 62.7215 314.927C60.6954 313.573 63.8204 300.537 63.9871 299.599ZM86.2475 321.365C86.2215 321.552 86.2423 321.511 86.1121 321.511C86.1381 321.318 86.1017 321.36 86.2475 321.365ZM105.721 276.162C108.07 269.875 106.471 270.959 109.024 267.776C109.841 266.755 111.643 267.927 111.586 270.214C111.539 271.672 111.159 273.063 110.82 274.511C109.669 274.235 109.831 273.917 109.248 276.443C108.013 276.323 108.841 272.042 106.471 279.782C105.748 277.797 104.909 278.349 105.721 276.162ZM102.945 285.219C102.971 285.005 103.159 284.901 103.128 285.235C103.07 285.292 102.914 285.469 102.945 285.219ZM103.638 282.912C103.654 282.521 103.643 282.104 104.029 281.854C104.211 282.323 103.768 282.558 103.638 282.912ZM136.805 211.896C131.445 204.813 132.143 196.615 130.711 197.969C130.414 198.261 130.383 198.693 130.456 199.099C132.414 210.235 136.716 214.917 132.445 208.844C130.399 205.938 128.461 202.948 128.925 204.86C129.206 206.011 129.737 207.073 130.393 208.052C130.763 208.604 131.185 209.125 131.555 209.672C131.794 210.021 132.029 210.365 132.32 210.677C132.643 211.021 133.003 211.354 133.263 211.755C133.346 211.891 133.43 212.047 133.409 212.198C133.268 212.188 133.143 212.104 133.029 212.021C132.596 211.714 132.201 211.349 131.862 210.943C131.701 210.75 131.57 210.516 131.399 210.349C131.216 210.172 131.003 210.021 130.81 209.865C130.555 209.646 130.305 209.427 130.034 209.229C129.758 209.016 129.529 208.922 129.18 209.011C128.086 209.287 129.451 210.568 130.3 211.313C132.232 212.99 134.69 216.875 132.935 215.313C112.076 196.719 129.065 173.771 132.664 179.906C137.117 187.485 134.404 190.99 136.966 200.875C138.362 206.276 138.352 210.407 137.263 205.703C137.112 205.037 137.013 204.339 136.451 203.787C135.55 204.552 136.628 205.495 136.211 206.271C134.508 204.005 135.268 200.156 133.659 200.276C132.55 200.36 134.404 205.849 134.82 206.87C136.534 211.052 137.164 211.427 136.805 211.896ZM149.883 162.052C149.524 162.167 146.873 160.443 146.221 159.802C144.56 158.162 143.732 159.505 145.966 161.115C151.201 164.87 146.82 163.724 143.675 160.776C137.919 155.396 136.227 139.625 142.154 140.724C146.326 141.5 156.43 153.328 149.107 147.558C148.732 147.261 148.388 147.698 148.623 147.985C151.409 151.485 150.919 150.578 151.117 150.985C151.216 151.183 151.008 151.823 150.659 151.568C147.94 149.589 145.888 145.448 145.039 146.115C144.076 146.886 150.529 153.422 150.539 153.552C150.763 156.443 147.274 150.761 146.524 150.719C146.055 150.683 145.555 150.995 145.826 151.391C148.826 155.792 149.612 155.459 150.013 155.865C150.477 156.339 150.008 157.818 149.149 156.995C147.987 155.87 144.596 152.396 144.18 152.485C143.909 154.13 147.841 157.74 149.362 158.589C149.794 158.834 149.945 159.115 149.748 159.578C149.518 160.125 149.003 159.552 147.576 158.521C145.149 156.771 146.445 159.948 149.576 161.162C150.195 161.401 150.159 161.969 149.883 162.052ZM172.055 144.177C171.93 143.865 171.753 143.589 171.544 143.979C171.284 144.459 171.362 145.084 171.19 145.599C170.768 146.875 170.742 148.328 170.836 149.667C170.862 150.11 170.914 150.573 170.727 150.974C170.581 150.844 170.555 150.636 170.534 150.443C170.445 149.656 170.357 148.87 170.268 148.084C170.221 147.719 170.169 147.349 170.169 146.99C170.169 146.818 170.242 146.448 169.998 146.386C169.034 146.167 168.951 154.063 168.883 155.38C168.831 156.573 168.284 156.417 168.253 155.854C167.727 145.016 171.263 137.047 172.737 142.88C172.758 142.969 173.492 145.948 173.357 146.104C172.524 147.078 172.94 148.339 172.617 149.438C171.69 148.912 172.789 145.985 172.055 144.177ZM148.503 223.255C148.503 223.365 148.508 223.464 148.513 223.568C148.274 223.735 148.263 223.427 148.503 223.255ZM184.123 169.802C183.091 171.115 180.268 172.792 179.836 172.906C179.789 172.917 179.998 172.245 180.044 172.177C180.185 171.964 180.393 171.828 180.596 171.662C180.971 171.349 181.284 171.011 181.69 170.714C181.748 170.667 181.82 170.61 181.81 170.537C181.8 170.469 181.727 170.433 181.659 170.427C181.602 170.427 181.539 170.459 181.477 170.485C180.586 170.917 179.706 171.386 178.81 171.813C177.909 172.245 176.94 172.531 175.998 172.839C177.471 171.693 179.013 170.844 180.19 170.459C180.56 170.25 180.899 169.979 181.279 169.781C182.544 168.599 186.68 165.995 186.612 164.422C186.57 163.38 178.039 171.063 175.987 170.714C178.919 168.219 189.143 161.953 186.758 160.526C186.138 160.156 183.586 164.104 182.768 163.636C183.195 163.016 185.055 160.797 184.315 160.594C183.336 160.328 178.675 166.386 177.68 166.162C177.456 165.86 177.711 165.667 177.873 165.49C178.909 164.36 179.482 162.938 180.362 161.703C180.768 161.141 180.675 160.745 180.43 160.386C179.664 159.25 177.268 165.25 175.091 166.245C178.56 159.781 176.373 162.094 179.143 159.167C182.565 155.552 185.169 156.104 189.805 154.005C192.477 152.802 192.227 151.933 198.081 149.328C199.555 148.672 202.992 148.38 202.784 150.61C201.925 159.75 188.487 164.229 184.123 169.802ZM171.602 171.214C171.565 171.198 171.654 170.839 171.675 170.698C172.445 169.688 172.352 171.505 171.602 171.214ZM200.279 89.9273C200.138 89.3075 200.503 89.0679 200.706 88.7607C200.576 89.0992 200.456 89.4429 200.279 89.9273ZM192.581 117.438C192.633 115.839 191.456 113.271 190.675 113.766C189.305 114.641 192.774 115.406 190.591 120.578C188.925 124.521 184.451 128.714 180.294 127.604C175.383 126.281 174.508 127.781 167.128 125.084C162.383 123.354 152.732 119.479 150.919 113.031C150.3 110.844 149.945 108.917 150.461 107.125C151.268 104.292 157.248 106.193 159.732 107.792C166.68 112.24 168.117 107.844 179.664 113.292C187.32 116.896 187.024 113.016 187.602 112.854C188.862 112.5 188.414 112.302 190.086 106.151C196.086 84.0784 203.242 71.4221 196.94 74.4377C195.373 75.1877 195.904 76.6513 193.258 76.8127C193.18 76.8179 186.82 77.2086 185.456 77.6409C183.123 78.3857 180.628 78.5159 178.221 78.0575C175.716 77.5836 173.346 76.5002 171.263 75.0367C169.31 73.6669 167.32 71.8648 166.154 69.7607C165.409 68.4117 164.289 67.2815 163.638 65.8752C163.091 64.6825 162.43 63.5575 162.305 62.2034C161.909 58.1513 168.149 58.3961 171.305 60.9117C172.128 61.5627 170.998 62.1252 172.013 63.1252C176.388 67.4482 180.591 65.9898 178.753 65.1669C178.404 65.0107 176.227 64.344 175.039 63.9169C174.206 63.62 173.326 62.6096 174.451 62.7086C181.612 63.3336 182.878 63.219 184.909 64.6461C189.232 67.6825 193.388 69.7242 194.701 71.0419C194.18 71.3596 192.211 71.6773 192.456 70.9221C192.873 69.6357 191.232 69.7554 190.024 69.4586C187.695 68.8909 189.419 67.8388 186.169 66.6461C185.893 66.5471 185.227 67.0002 185.69 67.37C190.211 70.9534 185.169 69.3023 191.206 70.9846C190.341 71.5679 188.336 71.1982 188.466 71.8857C188.748 73.3961 194.524 72.0627 196.815 72.8909C197.669 73.2034 198.602 72.8961 199.43 73.3804C200.628 74.0732 199.664 70.4429 199.362 68.6721C198.05 61.0315 179.409 52.8232 183.565 38.8127C187.706 24.9065 189.123 36.745 194.487 40.6721C204.195 47.7763 203.477 59.1982 202.123 55.7971C201.107 53.2554 200.93 51.6825 199.586 50.6929C198.258 49.7034 199.904 53.7294 200.419 55.3127C200.555 55.745 200.451 56.1304 200.003 56.4325C199.076 55.5054 198.492 54.3284 197.779 53.245C195.461 49.7138 194.044 50.9898 200.289 59.2971C200.529 59.6148 201.357 60.5367 200.862 60.8804C199.607 61.7815 194.68 52.245 193.524 52.2815C193.008 53.7034 195.685 56.6252 196.721 58.3388C196.94 58.5419 197.128 58.7971 197.3 59.0575C197.393 59.1721 197.477 59.2815 197.555 59.3804C197.56 59.3857 197.56 59.3909 197.565 59.3909C197.669 59.5054 197.768 59.62 197.873 59.7346C198.211 60.12 198.56 60.4846 198.893 60.8804C199.482 61.5732 200.164 62.3752 200.43 63.2659C200.435 63.2867 200.435 63.3023 200.425 63.3179C200.669 63.9429 199.998 63.5575 199.732 62.9429C199.32 62.5159 198.94 62.0679 198.576 61.6044C198.445 61.4846 198.336 61.3544 198.258 61.1929C197.883 60.7138 197.513 60.2242 197.138 59.745C196.971 59.5523 196.81 59.3596 196.643 59.1617C196.633 59.1461 196.628 59.1252 196.628 59.1096C194.998 57.6669 192.508 55.0575 192.362 54.8961C188.555 50.9013 190.013 49.2294 188.612 48.3492C187.112 47.3961 188.857 52.6304 190.315 54.2867C193.846 58.2971 195.216 58.7502 198.914 63.8127C201.982 68.0054 200.024 70.5732 201.602 70.3909C202.57 70.2815 202.133 70.3127 205.998 58.5888C210.982 43.4586 211.018 46.8232 206.675 41.9429C204.279 39.2554 202.216 39.3752 200.216 36.2034C199.831 35.5992 200.112 34.9117 201.003 35.2554C207.373 37.6929 208.774 43.719 210.315 41.7294C210.815 41.0836 210.669 39.5784 211.065 39.1982C213.763 36.6357 204.961 33.9794 203.576 27.3752C202.117 20.4065 201.607 18.6982 203.008 14.5419C204.904 8.93253 206.044 1.40649 209.555 1.06274C213.8 0.651278 208.034 9.1617 209.685 24.2502C210.159 28.5575 213.841 33.3127 213.409 39.1617C213.289 40.8284 216.159 37.0523 216.873 36.7034C217.248 37.0992 216.649 37.5471 217.044 37.8857C217.425 37.8857 221.909 33.5054 223.758 28.4482C225.112 24.7554 227.477 21.844 225.779 22.2919C224.393 22.6565 219.919 36.094 217.774 35.5419C217.831 34.495 218.341 35.0002 220.534 30.094C223.44 23.5784 224.815 18.2398 232.675 12.495C237.221 9.16169 239.138 11.344 237.518 16.8075C233.857 29.1409 230.935 31.1304 223.128 35.3648C220.914 36.5627 217.721 39.62 217.899 40.1982C218.326 41.5888 215.888 42.8179 215.341 44.4273C215.091 45.1773 215.883 45.5002 216.284 45.1409C217.383 44.1513 218.487 41.7034 222.492 40.1669C224.175 39.5211 224.846 38.9013 226.435 39.1044C227.966 39.2971 227.748 41.6617 226.232 42.9377C221.555 46.8648 217.815 45.2971 215.383 48.5627C212.498 52.4273 212.805 54.0471 210.763 57.7763C212.529 49.7554 212.695 49.6617 212.159 49.6929C211.706 49.719 208.013 61.8961 207.998 61.969C207.492 64.0575 208.399 63.5054 208.768 62.7919C209.143 62.0627 209.326 61.2242 209.919 60.6148C210.326 60.8127 210.357 61.1461 210.242 61.4742C210.216 61.5471 207.586 68.5784 207.55 68.6513C206.977 70.0159 208.669 69.4898 206.445 70.969C206.086 70.1409 206.654 69.5888 207.274 67.4534C207.544 66.5054 206.57 66.0732 206.221 67.0471C204.55 71.7502 204.513 71.8336 204.628 72.1513C204.794 72.6148 204.294 74.8961 206.555 72.9586C208.919 70.9273 209.039 71.1044 211.294 68.6617C223.362 55.5784 229.362 59.4117 236.581 56.8127C242.414 54.7086 241.227 52.5732 246.477 49.8492C247.669 49.2294 250.18 49.37 249.774 51.8388C248.982 56.7554 248.294 57.2971 242.05 64.745C238.034 69.5419 233.107 72.8857 226.919 74.3075C216.06 76.7971 212.081 69.0992 204.789 76.8179C203.539 78.1409 204.914 77.9325 203.841 80.469C200.419 88.5888 201.284 86.4898 202.258 81.8075C202.357 81.3388 201.857 80.8284 201.529 81.6148C201.498 81.6877 192.373 109.636 192.404 109.818C198.633 109.235 207.779 86.1669 211.31 92.0315C213.013 94.8648 206.904 103.516 201.409 108.125C195.221 113.318 191.529 112.558 192.945 113.797C193.477 114.271 193.867 113.933 193.888 114.417C193.951 116.026 193.367 114.547 193.128 117.417C193.102 117.74 192.57 117.729 192.581 117.438ZM185.763 111.146C180.643 107.115 171.737 105.964 172.102 96.8752C172.362 90.4117 175.992 82.5054 179.909 86.8127C181.274 88.3179 182.706 90.0575 183.169 92.2607C183.998 96.2294 185.68 98.7919 186.039 100.188C184.862 100.094 184.128 97.2502 183.164 97.3648C181.258 97.5992 187.123 104.115 186.925 104.61C186.643 104.495 186.003 104.281 185.565 103.875C183.154 101.656 180.654 97.8075 179.899 97.0888C179.643 96.8492 178.904 96.9794 179.138 97.5002C180.794 101.235 186.841 107.141 185.675 106.031C182.159 104.578 179.701 101.433 179.232 101.745C177.43 102.943 184.893 106.745 185.68 108.13C182.789 107.047 178.471 105.063 176.518 102.677C174.664 100.417 172.685 102.839 179.513 106.459C184.721 109.219 185.794 109.287 186.279 110.625C186.352 110.818 186.128 111.433 185.763 111.146ZM213.893 27.9638C213.883 27.62 213.919 27.2867 213.925 26.9429C213.925 26.9221 213.935 26.9117 213.94 26.8909C213.945 26.8388 213.945 26.7763 213.945 26.7086C214.258 26.9429 214.357 27.6304 214.331 28.2138C214.315 28.2034 214.3 28.1929 214.289 28.1825C214.289 28.2346 214.284 28.2867 214.279 28.3284C214.294 28.3179 214.31 28.3023 214.326 28.2919C214.294 28.7711 214.169 29.1513 214.018 29.094C213.789 29.0211 213.784 28.8857 213.873 28.745C213.81 28.495 213.815 28.2086 213.893 27.9638ZM215.68 29.5002L215.55 29.6044C215.581 29.3857 215.544 29.4117 215.68 29.5002ZM216.013 18.6617C215.836 20.2711 214.987 21.6513 214.492 23.4429C214.034 21.6721 214.716 16.7659 218.185 11.7034C222.529 5.33878 227.659 4.08357 226.268 8.52628C225.195 11.9482 224.966 12.745 224.93 12.8857C224.841 13.1148 224.352 14.5107 222.128 21.1148C221.414 23.2502 222.081 24.4169 221.445 24.4482C219.753 24.5159 220.357 26.4482 219.893 28.0159C218.904 31.3232 218.675 30.2346 219.294 26.7086C219.935 23.0679 221.253 19.3544 221.315 18.2711C221.373 17.3179 220.716 16.9065 220.445 17.6825C216.518 29.0159 217.966 33.2815 217.029 33.0471C216.018 32.7867 218.284 23.1721 218.07 21.8492C217.998 21.3492 217.373 21.0315 217.185 21.7711C216.367 25.0575 215.961 26.7398 215.784 27.5419C214.555 26.6669 217.362 19.5732 217.018 18.3127C216.815 17.5836 216.07 18.094 216.013 18.6617ZM196.727 101.276C197.451 98.0315 198.346 94.8596 199.57 91.7867C200.482 89.5002 198.945 95.6409 196.727 101.276ZM196.487 102.865C196.123 103.865 195.836 104.656 195.419 105.797C195.169 104.886 195.883 103.344 196.487 102.865ZM212.612 105.901C217.112 104.162 219.805 105 222.18 104.74C259.487 100.683 222.711 124.735 202.294 116.63C201.826 116.443 201.362 116.297 200.919 116.167C202.623 114.979 205.018 119.125 216.367 116.714C217.029 116.578 217.19 116.099 217.164 115.354C214.123 116.099 211.086 116.776 207.956 116.25C198.633 114.688 212.987 115.537 215.034 113.969C216.201 113.068 211.904 113.74 209.659 113.933C206.227 114.219 202.102 113.625 204.466 113.37C216.685 112.011 216.133 111.922 217.649 111.193C220.096 110.005 207.831 111.99 206.498 111.615C207.31 111.141 208.961 110.985 212.149 110.063C213.498 109.677 214.336 108.287 211.742 109.011C211.57 109.058 211.399 109.125 211.227 109.183C210.998 109.287 210.768 109.38 210.529 109.459C210.357 109.511 209.982 109.677 209.805 109.63C209.503 109.547 209.784 109.365 209.93 109.276C210.159 109.13 210.393 108.99 210.623 108.849C211.274 108.448 211.909 108.214 212.649 108.016C213.008 107.917 213.992 107.735 213.862 107.177C213.399 105.198 202.263 112.365 200.362 112.115C201.206 111.308 204.05 109.214 212.612 105.901ZM198.268 115.677C198.435 115.677 198.638 115.683 198.893 115.683C199.539 115.443 200.013 115.672 200.44 116.047C199.524 115.823 198.742 115.714 198.268 115.677ZM187.258 242.495C169.065 229.875 149.008 232.464 148.982 231.797C148.748 226.86 163.971 236.047 182.716 223.667C193.93 216.261 192.794 207.391 187.081 208.37C174.539 210.526 174.388 212.495 163.742 213.886C160.904 214.255 160.471 214.792 155.883 216.62C156.081 214.084 165.346 198.245 167.607 189.094C170.044 179.235 169.305 182.084 181.211 185.776C187.346 187.677 192.06 188.568 205.607 180.151C215.82 173.808 213.992 167.136 208.794 165.719C201.487 163.74 187.253 171.771 186.383 169.636C185.899 168.469 194.836 164.25 200.628 157.933C203.44 154.87 205.805 148.151 201.654 147.787C198.096 147.464 194.675 149.214 191.768 151.323C186.695 155 183.331 153.823 179.591 156.828C177.69 158.349 185.159 139.823 186.003 137.552C193.867 116.406 188.076 128.292 192.149 120.313C196.878 111.047 208.675 126.537 229.164 115.974C229.3 115.906 236.544 112.037 237.029 111.417C238.565 109.453 239.914 107.703 238.961 106.151C236.518 102.151 229.445 102.177 224.591 103.318C220.935 104.172 213.258 102.047 204.195 108.13C202.024 109.589 211.727 100.037 212.576 93.2607C212.873 90.8752 210.268 88.7659 207.883 90.3388C206.362 91.344 199.935 100.162 198.919 101.662C195.966 106.058 206.258 76.719 206.32 76.6669C215.248 68.9273 227.31 88.4482 248.612 58.0888C250.602 55.2554 250.758 50.8388 250.43 49.5575C250.149 48.469 247.357 47.6617 245.451 48.87C239.966 52.3596 239.945 55.2815 232.732 56.5575C228.628 57.2815 229.258 56.495 223.982 58.0732C217.143 60.12 209.623 68.37 209.55 68.3596C208.888 68.2815 215.081 51.6252 215.399 50.9638C217.69 46.0992 220.82 48.3752 226.623 44.3179C229.039 42.6357 230.112 38.6409 226.893 37.844C225.003 37.3752 223.643 38.1825 221.008 39.2659C220.107 37.2398 231.742 34.1357 234.883 27.0575C238.763 18.3179 239.675 16.5523 239.227 11.9273C239.034 9.98461 237.378 9.27107 235.534 9.76065C231.966 10.7034 228.143 14.5002 225.253 17.8179C223.315 20.0419 227.471 10.4169 227.649 7.81794C228.076 1.42732 219.367 4.69294 214.623 15.5367C213.253 18.6617 212.925 24.3127 212.581 27.9534C212.404 29.7867 211.221 26.6825 210.998 25.0159C208.888 9.06274 215.003 1.57836 210.706 0.177319C207.419 -0.895597 205.086 3.11482 204.154 6.43774C201.659 15.3023 200.352 17.2971 201.185 21.5159C202.268 27.0263 202.274 31.0627 206.373 34.4482C208.399 36.1148 211.524 38.1461 209.524 40.7971C208.227 38.7607 200.544 32.1252 199.112 34.2763C196.675 37.9377 205.373 40.8336 207.169 44.9273C207.544 45.7711 208.888 45.1513 208.57 46.6929C208.195 48.4794 205.602 57.7659 204.774 57.7242C203.8 57.6825 205.498 54.6877 202.102 47.7294C198.206 39.7398 194.998 41.1357 192.102 36.3284C190.482 33.6304 189.779 32.1357 188.06 31.1721C184.143 28.9794 180.779 41.0888 183.581 48.469C188.128 60.4586 199.232 63.9169 198.279 70.2242C193.727 70.4117 187.263 62.5627 180.544 61.969C175.06 61.4794 174.274 61.4742 172.623 60.1252C169.248 57.3857 164.081 57.7398 163.039 58.4325C162.091 59.0627 161.383 59.9742 161.248 61.1252C161.133 62.1565 161.44 63.1929 161.836 64.1357C162.456 65.6409 163.274 67.0836 164.138 68.4586C164.242 68.6304 164.336 68.8284 164.492 68.9586C164.617 69.0627 164.701 69.0888 164.794 69.2398C164.992 69.5836 165.123 69.9846 165.336 70.3127C165.466 70.5054 165.628 70.6721 165.763 70.8648C166.003 71.2242 166.258 71.5732 166.534 71.9013C167.185 72.6929 167.893 73.4221 168.659 74.1096C170.43 75.6982 172.456 77.0523 174.638 78.0211C176.893 79.0263 179.373 79.6304 181.857 79.4325C182.362 79.3857 182.873 79.3179 183.367 79.2034C191.55 77.4117 195.3 79.2242 196.789 76.5211C197.373 75.4742 198.753 75.3075 198.18 77.2554C198.159 77.3284 190.357 99.8492 190.164 100.761C189.336 104.656 189.081 102.297 188.169 100.547C186.925 98.1409 185.346 96.6565 184.633 92.6721C183.456 86.0888 176.128 80.2971 172.742 88.4586C169.268 96.8232 169.93 103.5 178.008 107.766C180.06 108.854 187.55 112.568 185.331 113.193C182.175 114.078 176.81 108.959 168.487 108.854C162.039 108.771 163.143 107.344 156.419 104.974C155.164 104.526 150.893 103.787 150.013 105.417C144.326 115.901 162.878 127.339 174.367 127.896C180.107 128.177 180.93 129.63 183.768 128.656C185.721 127.99 185.753 128.037 185.878 128.25C186.274 128.927 180.076 143.808 179.654 145.099C179.451 145.724 180.159 145.964 180.503 145.479C182.44 142.781 187.956 126.453 188.107 126.276C190.445 123.459 180.284 147.787 177.003 158.854C176.227 161.453 172.445 168.683 173.409 165.599C173.831 164.266 172.638 163.953 172.258 165.287C170.956 169.849 168.128 175.031 168.284 175.948C170.93 178.016 168.221 177.011 176.107 175.688C182.784 174.573 182.607 171.854 186.039 171.323C197.836 169.474 204.044 164.5 210.096 167.427C211.81 168.255 212.873 171.781 210.039 174.823C205.143 180.063 198.826 182.875 192.748 185.11C181.518 189.24 168.69 175.391 167.711 183.594C166.576 193.11 160.878 202.427 157.076 210.422C152.367 220.328 154.409 217.901 153.086 219.193C150.44 221.776 157.539 209.209 159.721 203.568C166.044 187.198 167.57 183.427 166.326 183.224C165.992 183.167 165.029 187.406 157.492 205.589C153.721 214.667 148.8 223.573 152.68 213.849C152.8 213.558 153.784 211.714 153.018 211.625C152.409 211.552 152.169 212.089 151.555 213.667C147.237 224.714 141.987 230.219 143.758 231.084C144.013 231.209 144.253 231.224 144.477 230.959C150.638 223.5 155.216 216.209 164.893 214.917C173.742 213.74 184.227 209.146 188.268 209.651C191.711 210.084 189.336 215.792 187.805 217.683C180.93 226.235 163.466 230.844 157.242 229.261C145.003 226.157 143.633 235.349 147.201 231.709C146.336 234.334 148.133 232.969 148.274 233.927C148.399 234.813 148.904 235.558 149.274 236.49C146.742 236.542 144.737 237.625 142.93 239.375C143.945 237 144.112 236.782 143.846 236.615C140.57 234.563 117.961 277.792 117.919 277.854C112.659 286.302 115.555 285.573 116.039 284.521C126.024 262.662 141.284 239.834 138.383 245.36C130.8 259.792 129.69 260.011 128.628 262.172C123.659 272.297 118.029 283.188 112.076 294.141C111.326 295.521 112.69 295.834 112.492 296.662C110.888 298.063 109.409 299.547 109.143 301.657C109.05 302.427 107.034 303.021 107.774 303.896C108.232 304.443 108.466 304.146 111.919 303.349C112.091 303.308 112.596 303.604 112.175 303.787C109.102 305.125 106.419 306.157 103.107 310.959C94.0913 324.042 89.1225 334.282 89.1798 334.62C89.4246 335.974 84.3621 343.813 83.4142 343.177C84.9038 339.016 90.0392 331.828 89.7111 330.75C88.7527 327.573 80.0861 348.854 78.8881 348.162C78.0444 347.672 82.534 341.047 81.4715 340.573C80.7684 340.255 79.034 343.979 78.7579 344.636C78.2579 344.344 78.7631 343.688 78.2111 343.578C77.6121 343.453 76.8517 345.875 76.3309 344.516C75.4975 342.36 89.4454 318.808 91.2006 316.297C102.998 299.427 96.4819 298.292 86.1642 280.542C82.0444 273.438 78.5236 261.38 82.8725 253.792C89.0027 243.084 94.6069 259.808 93.7475 267.162C93.4923 269.292 93.6798 272.24 94.4298 274.964C101.268 299.901 99.7371 300.745 100.935 300.505C102.565 300.172 101.19 297.094 102.221 296.818C104.633 296.188 131.43 244.61 131.789 244.141C132.159 244.755 131.94 245.198 131.711 245.594C130.373 247.86 129.675 250.438 128.253 252.667C128.076 252.943 128.086 253.167 128.221 253.433C129.294 255.459 134.055 243.604 134.727 241.412C135.404 239.229 136.456 239.479 135.971 240.464C134.956 242.516 134.565 242.953 135.107 243.209C135.654 243.464 136.076 242.948 136.346 242.401C140.966 233.011 137.315 244.188 141.945 234.302C142.435 233.255 141.654 231.818 141.013 232.547C137.086 237.016 136.904 238.391 131.477 239.433C122.43 241.172 125.357 239.532 115.612 239.667C104.607 239.828 106.216 241.318 100.586 239.979C100.477 239.948 100.362 239.917 100.253 239.88C98.9715 239.438 98.3621 238.214 98.56 236.912C98.6538 236.276 98.9194 235.662 99.2944 235.151C99.4871 234.88 99.7371 234.657 99.935 234.407C100.227 234.021 100.721 233.818 101.117 233.568C101.341 233.427 101.555 233.266 101.774 233.115C102.404 232.698 103.102 232.37 103.716 231.917C103.966 231.729 104.216 231.563 104.471 231.38C105.018 230.995 105.617 230.672 106.227 230.386C107.143 229.948 108.096 229.594 109.07 229.282C110.466 228.839 111.899 228.49 113.341 228.177C115.336 227.766 117.346 227.438 119.367 227.167C127.878 226.037 128.899 225.172 132.055 226.188C134.904 227.099 136.753 227.729 137.279 229.464C137.513 230.229 138.883 229.891 139.123 229.313C144.461 216.375 143.815 226.813 158.591 185.735C161.477 177.729 159.784 175.74 161.873 179.365C162.732 180.854 164.706 177.995 160.659 175.584C147.555 167.813 149.659 154.49 156.904 141.229C158.195 138.86 160.966 139.13 161.034 140.615C161.237 144.896 160.362 147.245 162.461 154.115C168.925 175.229 161.878 174.849 164.873 179.406C165.268 180.011 166.112 179.646 165.852 179.021C162.706 171.386 181.383 135.854 180.69 130.021C180.138 125.422 177.555 138.235 174.919 143.901C174.216 145.417 174.003 140.604 171.643 139.589C167.107 137.641 166.669 155.125 167.383 160.386C167.591 161.896 167.435 165.172 166.55 164.943C165.836 164.516 166.195 162.297 164.404 156.995C162.544 151.495 161.534 147.271 162.268 141.568C162.404 140.547 161.732 138.573 160.721 138.49C155.935 138.11 155.331 140.505 152.362 146.255C148.617 144.854 146.044 139.584 141.154 139.516C134.893 139.438 137.544 153.255 140.576 158.703C142.69 162.521 146.19 163.964 149.024 165.427C151.32 166.61 151.096 167.271 152.123 168.865C156.867 176.151 161.711 174.714 158.102 183.433C156.445 187.438 154.018 197.62 147.966 209.901C139.107 227.886 142.727 221.318 140.154 212.912C139.117 209.511 140.242 208.896 137.987 199.469C136.336 192.584 137.081 188.646 136.82 187.558C135.768 183.214 134.737 179.479 132.279 177.568C130.399 176.11 124.669 179.953 122.305 189.078C119.399 200.297 124.951 207.578 127.565 211.625C131.451 217.646 138.362 218.011 137.352 226.552C137.18 227.979 136.586 226.198 130.742 224.698C129.461 224.375 128.971 224.25 121.555 225.683C106.305 228.62 109.279 227.011 99.2163 233.38C96.7215 234.964 96.4142 239.755 99.9506 240.896C105.612 242.719 107.544 241.078 109.326 241.016C114.706 240.844 119.399 240.766 123.164 241.328C127.711 242.016 130.607 240.276 131.529 241.136C129.383 247.479 105.748 289.782 104.029 292.391C105.555 287.13 117.768 269.615 110.32 266.417C108.164 265.49 106.399 268.641 106.029 270.672C105.258 274.875 101.841 282.693 100.175 290.089C99.5496 292.875 99.2579 286.922 98.3673 284.104C91.3986 262.042 97.3309 269.375 94.284 259.235C88.2996 239.354 79.4506 253.235 79.3829 260.474C79.2111 279.526 96.9663 295.964 96.4246 301.151C95.7371 307.792 92.2006 312.12 90.0861 315.589C89.1121 317.183 88.5392 318.505 87.9611 317.401C86.5861 314.808 84.685 315.24 84.0027 316.495C78.5131 326.672 81.0184 333.844 78.4871 335.146C78.0027 333.547 79.6069 332.12 78.0184 319.167C77.2579 312.953 75.0236 310.157 74.3048 303.703C72.7319 289.526 64.0444 285.417 61.1329 309.302C58.9715 326.995 75.9038 334.344 73.7475 341.375C70.4298 338.662 65.0496 339.193 64.3048 339.38C52.9402 342.266 14.4454 372.901 43.6954 367.474C64.3621 363.641 68.8881 356.214 63.7736 365.235C54.8465 380.979 48.2475 400.953 48.0392 401.209C47.2736 400.49 47.1121 395.927 47.7631 393.125C49.1538 387.13 51.1434 384.261 52.2788 381.573C54.409 376.521 49.8309 371.849 48.0079 373.136C46.5913 374.13 47.3204 374.12 43.1434 383.349C41.6277 386.703 41.534 399.089 43.2475 400.849C41.9559 401.032 35.0496 393.157 34.3152 392.255C27.6329 384.089 13.5861 380.011 8.88815 381.552C2.2319 383.74 -2.53373 385.078 1.46106 391.651C10.8361 407.089 26.7736 397.698 41.2111 405.24C43.7059 406.542 24.7527 408.485 21.0652 424.578C20.7788 425.839 22.3777 427.589 24.1902 427.354C30.1486 426.604 38.7996 417.683 41.6694 417.245C42.3517 418.99 32.5288 445.771 31.4975 449C28.1017 459.698 26.4038 469.667 22.3256 480.183C21.1486 483.203 20.685 483.985 21.0184 484.891C22.5444 489.058 22.7006 490.808 25.9975 493.792C27.5809 495.229 30.2736 495.516 31.4298 493.157C33.5548 488.828 32.534 474.047 36.4871 462.839C36.8621 461.766 40.3569 448.933 46.6225 428.495C47.8465 424.505 47.7371 423.907 49.0392 424.974C52.5756 427.891 55.8725 430.266 58.0079 433.511C59.8309 436.261 64.5809 441.36 68.3256 441.5C71.6954 441.625 73.9923 437.188 73.4402 433.86C72.9038 430.646 71.2944 428.443 68.0184 424.474C65.2059 421.058 66.0444 418.386 63.7319 414.005C61.4454 409.672 56.6486 410.005 62.1746 407.599C74.7527 402.13 75.1121 408.589 94.5913 399.193C100.565 396.313 104.544 387.13 88.31 388.094C77.2684 388.761 73.0704 394.459 76.4506 389.568C79.3934 385.308 78.9819 379.433 74.7684 382.25C70.1121 385.37 67.5965 391.797 61.5027 396.11C59.8256 397.292 49.9298 413.422 69.1121 373.797C77.2684 356.943 78.0288 356.672 79.534 355.901C84.1902 353.511 92.0236 355.459 95.9559 357.261C110.695 364.058 110.383 362.209 131.19 355.625C134.617 354.542 138.513 348.974 127.649 347.433C109.003 344.797 111.94 341.391 100.899 341.714C91.9819 341.974 85.4923 350.792 84.5131 348.834C87.159 344.297 90.8986 342.094 95.909 340.183C99.6798 338.745 98.2631 337.255 104.544 333.266C117.565 324.979 113.602 320.276 109.034 320.948C100.669 322.167 97.6277 327.709 92.2527 331.287C100.638 316.193 109.539 297.125 123.378 306.578C129.216 310.573 146.873 313.683 156.367 307.709C160.638 305.016 163.336 301.474 164.498 300.11C166.305 297.99 164.742 294.422 160.055 294.62C130.284 295.88 133.56 294.36 127.445 295.974C111.961 300.063 111.31 301.844 110.534 301C112.221 294.401 129.711 293.308 133.982 291.052C137.779 289.052 142.664 284.344 143.503 279.615C144.065 276.438 141.992 274.448 140.435 275.412C134.206 279.255 135.883 280.146 129.305 282.787C113.544 289.104 111.263 299.563 125.591 271.063C148.706 225.104 149.508 236.177 165.164 248.344C173.159 254.552 174.445 250.448 187.3 254.766C193.065 256.698 197.836 249.839 187.258 242.495Z" fill="black"/>
</svg>
