<svg width="500" height="495" viewBox="0 0 500 495" fill="none" xmlns="http://www.w3.org/2000/svg">
<mask id="mask0_242_1936" style="mask-type:luminance" maskUnits="userSpaceOnUse" x="0" y="0" width="500" height="495">
<path d="M0 0.520996H500V494.521H0V0.520996Z" fill="white"/>
</mask>
<g mask="url(#mask0_242_1936)">
<path d="M453.729 49.4895C452.755 48.3437 452.521 48.3333 451.271 49.6302C452.057 49.5885 452.844 49.5416 453.729 49.4895ZM105.49 379.932C105.557 380.089 105.635 380.245 105.714 380.396C107.609 379.495 109.505 378.589 111.401 377.687C111.318 377.521 111.24 377.349 111.161 377.182C109.271 378.099 107.375 379.016 105.49 379.932ZM434.87 40.4947C433.521 40.5052 433.167 40.7916 432.5 42.6927C433.927 42.7812 435.318 42.8645 437.062 42.9739C436.479 41.6979 436.38 40.4843 434.87 40.4947ZM494.724 108.24C495.073 110.187 495.234 112.125 495.823 113.906C496.078 114.677 497.219 115.151 498.01 115.807C498.526 113.016 496.792 108.963 494.724 108.24ZM448.036 47.901C449.87 47.2083 452.234 43.0416 452.083 40.1875C448.776 42.0104 448.984 45.276 448.036 47.901ZM207.052 78.7448C206.984 80.2916 206.917 81.7135 206.849 83.3489C207.552 83.0989 208.109 82.901 209.068 82.5625C208.615 83.2812 208.38 83.6562 208.021 84.2187C208.469 84.1302 208.932 84.1718 209.026 84.0052C209.885 82.4062 210.281 80.6823 210.292 78.5625C209.135 78.6302 208.193 78.6823 207.052 78.7448ZM445.797 34.7291C445.625 34.7135 445.458 34.6979 445.292 34.6822C445.141 35.0833 444.875 35.4843 444.87 35.8906C444.828 37.3437 444.859 38.7968 444.891 40.2552C444.932 42.052 445.042 43.8489 445.042 45.6458C445.042 46.427 445.089 47.0364 446.432 47.0312C447.104 42.7968 447.479 38.6979 445.797 34.7291ZM491.745 100.755C490.594 99.8072 489.531 98.7552 488.198 97.5312C488.552 99.4635 488.844 101.026 489.182 102.849C489.87 103.307 490.818 103.995 491.823 104.578C492.802 105.151 493.01 106.641 494.667 106.781C494.286 104.271 493.573 102.266 491.745 100.755ZM383.766 194.75C383.672 196.328 383.583 197.875 383.464 199.906C384.776 198.578 385.719 197.625 386.667 196.667C386.635 198.448 385.208 199.49 384.443 201.104C388.594 200.693 389.984 197.849 391.25 194.375C388.604 194.365 386.26 194.016 383.766 194.75ZM442.672 45.151C442.026 42.0989 441.37 39.0468 440.682 35.9947C440.547 35.3906 440.281 34.8125 440.042 34.2395C439.74 33.5156 439.354 32.7031 438.411 32.9791C437.589 33.2291 437.661 34.1093 437.807 34.7708C438.349 37.1875 438.427 39.6718 439.339 42.0677C439.844 43.3906 440.495 44.4895 441.323 45.5416C441.589 45.875 442.078 46.0312 442.661 46.3906C442.667 45.8072 442.74 45.4635 442.672 45.151ZM396.516 153.312C393.24 156.094 389.87 158.766 386.625 161.75C387.036 161.687 387.469 161.677 387.859 161.552C391.453 160.427 394.964 159.125 397.969 156.76C398.245 156.547 398.594 156.38 398.776 156.109C401.323 152.333 404.37 148.896 406.682 144.365C403.047 147.573 399.828 150.495 396.516 153.312ZM375.714 239.885C376.354 242.26 376.536 244.755 376.938 247.328C377.109 247.219 377.354 247.062 377.698 246.844C377.896 247.245 378.078 247.63 378.292 248.083C378.505 247.964 378.693 247.896 378.839 247.771C380.948 245.969 382.172 243.74 382.24 240.917C382.255 239.964 381.969 239.203 381.349 238.464C379.807 236.609 377.797 235.365 375.76 234.198C374.328 233.38 372.688 233.802 370.797 233.818C372.542 236.13 375.042 237.38 375.714 239.885ZM181.208 70.6354C181.344 70.6406 181.479 70.651 181.615 70.6562C181.677 72.1198 181.729 73.5833 181.797 75.2135C182.854 74.4375 183.76 73.7448 184.688 73.0885C185.49 72.526 185.359 71.7812 185.141 71.0312C184.526 68.901 183.885 66.776 183.24 64.6562C182.922 63.6302 182.568 62.6041 182.13 61.2864C179.865 63.125 178.047 64.8593 176.896 67.177C176.568 67.8333 176.214 68.5052 176.667 69.3333C177.865 71.5052 178.984 73.7187 180.37 76.375C180.688 74.2343 180.948 72.4323 181.208 70.6354ZM151.135 291.62C155.984 288.115 160.797 284.557 165.682 281.115C166.672 280.417 167.901 279.948 169.089 279.661C175.052 278.229 180.958 276.599 186.557 274.073C189.078 272.932 191.396 271.354 193.833 270.01C199.12 267.104 204.422 264.224 209.641 261.062C208.464 261.302 207.245 261.427 206.115 261.812C203.089 262.844 200.089 263.943 197.115 265.115C193.161 266.661 189.245 268.307 185.313 269.906C184.219 270.349 183.068 270.687 182.036 271.25C177.323 273.828 172.161 275.365 167.328 277.661C163.5 279.479 159.922 281.641 156.714 284.542C153.854 287.13 151.094 289.927 147.542 291.719C144.63 293.187 142.177 295.333 140.099 297.901C144.047 296.219 147.698 294.104 151.135 291.62ZM44.8698 271.542C46.2084 273.573 47.4531 275.682 48.974 277.562C50.2709 279.167 51.7656 280.672 53.4115 281.896C56.5886 284.266 59.1094 287.177 61.3229 290.406C61.6146 290.839 61.9584 291.24 62.625 291.562C62.5677 291.37 62.5052 291.167 62.4427 290.974C61.1302 286.943 59.8906 282.891 58.4688 278.896C57.9219 277.339 57.0365 275.891 56.1875 274.464C54.724 272.021 53.1354 269.656 51.6667 267.219C50.0417 264.521 47.5781 262.682 45.1927 260.786C42.6927 258.797 40.1042 256.932 37.1459 254.708C39.3281 260.865 41.5156 266.474 44.8698 271.542ZM203.974 243.526C197.776 247.635 191.432 251.495 184.938 255.13C183 256.214 181.536 258.141 179.833 259.656C178.641 260.719 178.047 262.078 177.62 263.776C178.266 263.62 178.781 263.526 179.271 263.365C183.563 261.922 187.651 260.021 191.615 257.844C193.198 256.979 194.813 256.104 196.521 255.562C200.729 254.214 204.63 252.271 208.266 249.797C209.865 248.708 211.411 247.547 212.953 246.375C213.76 245.766 213.875 244.974 213.656 243.969C213.24 242.01 212.979 240.01 212.609 237.792C209.625 239.771 206.797 241.646 203.974 243.526ZM249.651 338.917C249.635 339.078 249.625 339.234 249.604 339.401C250.823 339.74 252.031 340.125 253.266 340.401C254.521 340.682 255.807 340.849 257.078 341.193C255.833 341.625 254.583 341.427 253.318 341.224C251.536 340.937 249.76 340.635 247.964 340.458C247.302 340.391 246.557 340.521 245.938 340.771C242.458 342.187 239.026 343.719 235.292 344.38C235.099 344.411 234.932 344.578 234.724 344.703C235.474 348.479 236.224 352.25 236.964 355.964C248.047 351.182 258.234 345.005 266.339 335.844C260.547 335.703 255.177 337.687 249.651 338.917ZM449.719 163.875C449.755 163.917 449.849 164.089 449.938 164.083C454.115 164 458.286 163.87 462.464 163.828C464.146 163.812 465.286 162.776 466.562 161.964C467.411 161.422 468.24 160.849 469.073 160.297C469.172 160.427 469.266 160.552 469.365 160.682C468.245 161.599 467.13 162.516 465.672 163.714C471.823 163.766 477.547 163.177 483.255 162.484C480.385 161.51 477.547 160.417 474.63 159.589C468 157.714 461.349 155.76 454.453 155.255C448.26 154.807 442.068 155.458 435.99 156.797C431.703 157.74 427.453 158.812 423.193 159.839C422.812 159.927 422.443 160.083 422.062 160.63C425.583 161.167 429.099 161.792 432.646 162.177C433.417 162.266 434.312 161.599 435.099 161.177C436.229 160.568 437.312 159.87 438.417 159.208C438.495 159.323 438.568 159.437 438.646 159.552C437.443 160.479 436.24 161.406 434.745 162.552C435.646 162.714 436.172 162.818 436.698 162.891C438.417 163.146 440.156 163.297 441.854 163.656C446.078 164.552 449.578 163.62 452.115 159.922C452.411 159.49 452.854 159.151 453.229 158.771C453.328 158.859 453.427 158.943 453.526 159.026C452.255 160.646 450.99 162.26 449.719 163.875ZM251.823 336.073C253.448 336.104 254.547 335.719 255.635 335.422C258.464 334.651 261.266 334.052 264.255 334.13C266.302 334.182 268.365 333.589 270.5 333.042C269.286 332.693 268.068 332.375 266.859 332.005C265.667 331.635 264.495 331.177 263.297 330.828C260.635 330.031 257.964 329.26 255.292 328.5C249.99 326.984 244.646 325.74 239.068 326.24C236.297 326.49 233.531 326.812 230.766 327.089C229.734 327.193 228.693 327.24 227.427 327.328C229.177 331.5 229.495 336.13 232.323 340.26C233.578 337.698 234.734 335.333 235.885 332.969C236.031 333.026 236.172 333.089 236.307 333.151C235.458 335.453 234.615 337.76 233.755 340.057C233.635 340.38 233.417 340.672 233.286 340.99C232.849 342.057 233.229 342.62 234.375 342.443C235.953 342.208 237.552 341.964 239.078 341.526C244.354 340.01 249.151 337.615 253.073 333.667C253.526 333.214 254.146 332.922 254.688 332.557C254.781 332.667 254.87 332.776 254.969 332.896C254.021 333.849 253.073 334.807 251.823 336.073ZM464.943 165.281C466.375 166.516 467.438 167.427 468.49 168.333C468.422 168.443 468.354 168.552 468.292 168.661C467.839 168.448 467.354 168.281 466.948 168.005C466.495 167.698 466.089 167.302 465.682 166.922C464.339 165.693 462.859 165.271 460.958 165.359C458.193 165.49 455.406 165.12 452.63 164.969C450.766 164.859 448.896 164.75 446.599 164.62C448.391 167.255 451.266 168.182 452.927 170.87C451.036 169.5 449.328 168.474 447.875 167.172C446.349 165.802 444.583 165.021 442.677 164.682C439.958 164.203 437.188 164.01 433.896 163.641C435.12 164.849 436.042 165.651 436.828 166.568C437.625 167.49 438.281 168.526 439.089 169.635C437.927 169.609 437.526 168.708 436.953 168.083C436.25 167.323 435.656 166.443 434.885 165.76C433.359 164.401 431.672 163.568 429.49 163.417C426.38 163.203 423.297 162.547 420.219 161.984C417.177 161.432 414.156 161.708 411.068 162.365C412.25 162.594 413.427 162.932 414.62 163.031C420.859 163.557 426.276 166.047 431.203 169.786C434.948 172.63 439.12 174.271 443.87 174.615C448.479 174.953 453.031 174.755 457.599 174.12C461.667 173.552 465.318 171.797 468.995 170.177C472.297 168.719 475.474 166.969 478.698 165.333C479.104 165.13 479.474 164.854 479.854 164.609C479.828 164.5 479.797 164.385 479.771 164.281C475.021 164.599 470.26 164.922 464.943 165.281ZM16.4948 322.214C16.9375 320.469 17.2031 319.161 17.6094 317.896C18.0313 316.599 18.599 315.354 19.25 313.708C19.3333 314.318 19.4115 314.505 19.3698 314.661C18.6615 317.484 17.9844 320.318 17.2031 323.125C16.6667 325.042 17.0833 326.906 17.5938 328.672C18.5417 331.948 19.7188 335.146 19.9479 338.589C19.974 338.948 20.2292 339.292 20.4063 339.703C21.5052 336.26 22.5625 332.964 23.6198 329.667C23.7761 329.714 23.9271 329.75 24.0781 329.797C23.7761 331.047 23.6042 332.344 23.1354 333.531C21.3438 338.089 21.1563 342.745 22.1927 347.474C22.8958 350.667 23.6927 353.833 24.4219 357.021C24.8333 358.823 25.1979 360.635 25.6927 362.943C25.9636 362.255 26.0938 362.042 26.1406 361.812C27.2031 356.062 28.2656 350.323 29.2917 344.573C29.4584 343.62 29.5781 342.63 29.5261 341.667C29.1198 333.292 28.1354 325.021 24.6979 317.245C23.099 313.625 21.4063 310.036 19.8386 306.396C17.6302 301.26 15.8125 296.01 15.9479 290.266C14.2083 295.354 14.5417 313.906 16.4948 322.214ZM195.401 272.281C198.339 271.406 201.234 270.411 204.203 269.656C208.438 268.578 212.286 266.729 215.927 264.354C219.401 262.083 223.266 260.63 227.25 259.646C236.156 257.443 244.948 254.714 254.047 253.307C263.568 251.833 271.901 247.724 279.469 241.896C279.604 241.781 279.693 241.604 279.958 241.255C279.432 241.307 279.109 241.333 278.786 241.37C277.198 241.557 275.604 241.943 274.021 241.896C269.406 241.766 265.104 243.052 260.745 244.318C252.797 246.615 244.781 248.698 236.797 250.885C235.391 251.271 233.938 251.583 232.62 252.172C225.573 255.307 218.245 257.802 211.62 261.885C206.589 264.974 201.385 267.776 196.266 270.729C195.432 271.208 194.656 271.797 193.859 272.339C193.911 272.432 193.969 272.531 194.021 272.63C194.479 272.516 194.948 272.417 195.401 272.281ZM234.302 141.432C236.474 138.391 235.953 135.432 234.693 132.365C233.984 130.63 233.198 128.932 232.469 127.208C232.37 126.969 232.406 126.667 232.349 126.01C233.333 128.026 234.198 129.677 234.964 131.375C235.745 133.125 236.427 134.917 237.219 136.854C237.979 135.562 238.786 134.281 239.5 132.958C241.031 130.146 242.464 127.281 244.016 124.484C245.948 121.016 246.698 117.49 244.875 113.729C244.599 113.161 244.51 112.5 244.531 111.823C245.922 113.693 246.714 115.781 247.151 118.474C247.911 116.948 248.448 115.755 249.089 114.63C250.635 111.906 252.214 109.213 253.792 106.516C255.021 104.422 255.302 102.208 254.667 99.8697C254.599 99.6145 254.609 99.3281 254.786 98.9739C255.104 99.6145 255.427 100.245 255.865 101.099C257.536 97.6302 258.823 94.2135 259.292 90.427C257.906 92.1302 256.484 93.7968 255.146 95.5364C251.021 100.911 246.255 105.698 241.49 110.49C238.25 113.75 234.922 116.922 231.755 120.25C230.724 121.333 229.87 122.693 229.307 124.078C227.974 127.365 226.818 130.724 225.698 134.099C225.464 134.807 225.438 135.833 225.781 136.453C227.828 140.135 229.328 144.005 230.417 148.057C230.589 148.714 230.911 149.333 231.161 149.974C231.198 146.734 232.521 143.932 234.302 141.432ZM176.948 256.859C171.135 257.49 165.328 258.125 159.521 258.792C158.833 258.87 158.161 259.078 157.49 259.26C154.609 260.021 151.734 260.083 148.828 259.302C145.151 258.307 144.5 258.594 142.578 261.802C140.281 265.635 138.344 269.578 137.578 274.083C136.917 277.974 135.776 281.781 134.75 286.036C135.5 285.698 135.859 285.594 136.146 285.396C139.161 283.281 141.979 280.786 145.224 279.125C149.594 276.901 152.828 273.151 157.193 270.969C159.484 269.823 161.708 268.62 164.182 267.797C167.266 266.766 170.208 265.292 173.167 263.911C174.151 263.453 175.031 262.797 175.229 261.474C175.313 260.891 175.979 260.359 176.464 259.87C177.286 259.047 178.182 258.292 178.385 256.896C177.87 256.88 177.401 256.807 176.948 256.859ZM82.6458 296.719C81.1979 288.776 79.6354 280.854 78.3177 272.885C77.8229 269.943 76.7865 267.286 75.4479 264.677C74.7031 263.234 74.0469 261.734 73.6354 260.156C73.7917 260.089 73.9479 260.021 74.099 259.953C75.0469 261.672 75.9948 263.401 76.9427 265.125C77.0313 265.094 77.1198 265.057 77.2136 265.026C77.1927 264.562 77.2136 264.089 77.1459 263.635C76.2031 257.292 75.5886 250.917 75.5469 244.5C75.5261 241.292 74.8334 238.318 73.2761 235.505C72.3854 233.891 71.599 232.203 71.2552 230.38C71.3906 230.312 71.5209 230.245 71.6563 230.182C72.7396 232.24 73.8125 234.297 74.9896 236.531C76.0677 231.818 77.1615 227.437 78.0469 223.016C78.7448 219.536 79.1719 216.005 78.4896 212.443C78.3646 211.766 78.3021 211.073 78.3177 210.359C79.4063 212.198 79.4063 214.339 79.9688 216.724C80.75 214.891 81.2917 213.339 82.0521 211.901C83.5781 209.016 84.9844 206.031 86.8698 203.385C90.0052 198.99 91.7656 194.083 93.2552 188.542C92.5781 189.099 92.1667 189.396 91.8073 189.75C88.5208 192.979 85.6302 196.516 83.0104 200.328C80.1042 204.568 76.7656 208.521 73.8906 212.792C71.0209 217.042 69.2656 221.786 68.7344 226.969C68.2136 232.057 68.2604 237.115 69.0521 242.172C69.4375 244.646 69.724 247.141 69.9479 249.635C70.5365 256.057 72.2396 262.208 74.1146 268.354C76.3854 275.807 78.7709 283.234 80.2865 290.901C80.849 293.734 81.7136 296.51 82.4375 299.318C82.6042 299.271 82.7761 299.234 82.9427 299.187C82.8438 298.365 82.7917 297.531 82.6458 296.719ZM388.12 151.385C390.807 146.927 393.151 142.255 395.792 137.755C397.833 134.266 397.385 130.854 395.99 127.349C395.505 126.125 395.078 124.87 394.703 123.604C394.521 122.984 394.531 122.302 394.729 121.594C395.792 124.562 396.854 127.526 398.047 130.859C398.297 130.068 398.479 129.594 398.599 129.094C399.531 125.203 401.104 121.63 403.307 118.245C404.875 115.828 405.385 112.969 404.818 110.021C404.552 108.661 404.333 107.281 404.156 105.901C404.078 105.266 404.146 104.604 404.151 103.948C404.297 103.937 404.438 103.932 404.583 103.917C405.104 107.349 405.625 110.771 406.13 114.104C408.37 110.708 410.589 107.099 413.073 103.682C414.833 101.26 415.625 98.651 415.76 95.7291C415.807 94.6614 416.016 93.5937 416.151 92.526C416.312 92.5364 416.469 92.552 416.625 92.5625C416.62 94.1406 416.615 95.7187 416.604 97.7447C419.911 93.5104 422.896 89.6875 426.13 85.5468C425.365 85.677 424.927 85.6927 424.526 85.8229C422.609 86.4375 420.693 87.0677 418.792 87.7395C417.943 88.0364 417.062 88.3177 416.302 88.7916C406.922 94.6354 399.557 102.328 395.047 112.516C394.13 114.594 393.505 116.849 393.104 119.083C392.115 124.635 391.484 130.25 390.411 135.781C389.651 139.667 388.885 143.672 387.229 147.203C385.688 150.49 385.036 154.094 383.177 157.214C383.125 157.302 383.188 157.453 383.214 157.818C384.932 155.589 386.766 153.635 388.12 151.385ZM33.8281 263.318C33.6563 265.875 34.1823 268.292 35.3802 270.578C37.1927 274.026 38.875 277.542 40.7084 280.984C44.4375 287.979 49.3334 294.089 54.8229 299.786C59.8959 305.052 64.75 310.516 69.6927 315.906C71.6667 318.062 73.625 320.234 75.5625 322.422C76.25 323.198 76.849 324.052 77.4896 324.875C77.6198 324.74 77.7813 324.635 77.7656 324.578C76.7917 320.818 75.8177 317.057 74.7761 313.307C74.599 312.667 74.1354 312.094 73.75 311.521C72.0625 308.979 70.1302 306.568 68.7031 303.891C66.1302 299.052 62.8073 294.776 59.3229 290.62C57.099 287.964 54.4948 285.63 52.1615 283.052C50.4896 281.203 48.8438 279.292 47.4479 277.229C43 270.651 39.0469 263.776 35.7604 256.531C35.4792 255.911 35.1302 255.318 34.8125 254.714C34.7188 254.74 34.6198 254.776 34.5261 254.802C34.2865 257.641 34.0104 260.474 33.8281 263.318ZM256.792 104.24C258.25 103.38 259.276 102.776 260.302 102.167C260.349 102.208 260.401 102.255 260.453 102.297C260.036 102.724 259.672 103.219 259.193 103.557C257.229 104.943 255.526 106.51 254.51 108.76C254.052 109.76 253.391 110.682 252.724 111.568C250.667 114.318 249.318 117.417 248.016 120.708C250.573 119.906 252.984 119.151 255.406 118.396C255.458 118.531 255.51 118.661 255.557 118.792C254.958 119.052 254.37 119.354 253.755 119.573C252.771 119.927 251.755 120.182 250.786 120.557C248.667 121.375 246.938 122.573 245.807 124.703C243.891 128.323 241.724 131.812 239.682 135.365C239.406 135.839 239.224 136.359 238.906 137.062C241.516 136.792 244.021 136.87 246.094 135.13C245.349 136.615 244.042 137.245 242.526 137.479C237.109 138.318 238.172 138.693 236.229 142.458C235.432 144.005 234.615 145.578 234.141 147.229C233.667 148.875 233.411 150.641 233.417 152.349C233.432 154.849 233.76 157.344 233.969 159.844C233.984 160.109 234.083 160.365 234.224 160.948C236.672 159.141 239.453 158.026 241.234 155.729C244.906 151.01 248.448 146.177 250.698 140.557C251.115 139.526 251.531 138.49 251.833 137.417C253.24 132.521 255.042 127.781 257.391 123.255C259.146 119.891 260.271 116.328 260.87 112.583C261.88 106.255 262.792 99.9166 262.536 93.4739C262.51 92.6718 262.422 91.875 262.354 91.0729C262.234 91.0625 262.115 91.052 262 91.0416C260.328 95.2708 258.661 99.5 256.792 104.24ZM416.385 110.088C416.464 110.167 416.536 110.245 416.62 110.323C416.047 110.781 415.51 111.281 414.901 111.687C412.807 113.057 410.682 114.375 408.594 115.755C407.964 116.177 407.266 116.615 406.844 117.219C404.458 120.609 401.776 123.844 400.729 128C400.302 129.677 399.812 131.333 399.302 133.177C401.516 131.708 403.526 130.318 405.589 129.005C407.667 127.687 409.797 126.448 411.776 125.25C410.667 126.854 408.911 127.932 407.125 129.036C405.01 130.349 402.964 131.797 401.01 133.339C399.365 134.635 398.198 136.323 397.344 138.312C396.526 140.208 395.25 141.906 394.193 143.703C393.922 144.172 393.714 144.687 393.479 145.161C395.74 144.24 397.958 143.339 400.172 142.437C400.24 142.578 400.302 142.724 400.37 142.865C399.521 143.276 398.682 143.719 397.818 144.089C394.516 145.505 391.995 147.734 390.146 150.854C388.625 153.422 386.828 155.823 385.135 158.281C384.625 159.021 384.052 159.714 383.276 160.734C385.5 160.104 386.979 158.917 388.458 157.776C391.359 155.505 394.224 153.187 397.099 150.885C397.484 150.583 397.891 150.307 398.229 149.958C402.635 145.516 407.307 141.297 411.359 136.552C415.885 131.255 418.594 124.859 420.307 118.109C421.245 114.401 421.75 110.609 421.969 106.766C422.099 104.505 422.75 102.255 423.354 100.052C424.24 96.8281 425.297 93.6614 426.266 90.4635C426.422 89.9635 426.495 89.4375 426.703 88.4531C422.979 92.7395 419.589 96.6562 416.193 100.568C416.266 100.672 416.333 100.771 416.406 100.875C418.01 100.151 419.615 99.427 421.667 98.5052C421.078 99.0885 420.875 99.4583 420.578 99.5729C416.557 101.135 413.859 104.151 411.615 107.661C409.974 110.229 408.385 112.828 406.776 115.411C406.885 115.484 407.005 115.552 407.115 115.625C410.208 113.781 413.297 111.932 416.385 110.088ZM449.177 51.1197C448.031 49.9427 446.714 49.1197 444.917 49.6927C443.688 50.0781 442.505 49.8489 441.276 49.3906C439.135 48.5937 437.13 48.7552 435.271 50.427C433.26 52.2291 431.047 53.8125 428.901 55.4635C428.562 55.7239 428.089 55.802 427.318 56.1093C428.365 53.8541 430.042 52.7187 431.536 51.4375C432.797 50.3541 434.089 49.276 435.49 48.401C436.75 47.6145 438.188 47.1041 439.672 46.4166C439.432 46.2135 439.104 45.776 438.667 45.5885C433.438 43.3541 428.521 43.4114 423.448 46.5677C417.516 50.2656 412.807 55.2708 407.812 59.9843C405.417 62.2395 402.865 64.2343 399.995 65.8489C399.526 66.1145 399.068 66.4062 398.667 66.8802C402.771 67.5885 406.401 65.7031 410.234 64.8645C407.323 66.4895 404.042 67.151 400.448 68.3437C403.125 69.2916 405.359 69.8958 407.729 70.0052C409.599 70.0885 411.484 70.1406 413.344 70.375C415.646 70.6614 417.938 70.6354 420.188 70.1198C422.964 69.4791 425.714 68.7083 428.469 67.9843C428.74 67.9166 429.016 67.8333 429.25 67.6875C434.448 64.4375 440.276 62.4218 445.594 59.4166C447.125 58.552 448.495 57.5208 449.318 55.875C449.682 55.1406 450.229 54.4947 450.87 53.5572C450.276 52.6875 449.833 51.7968 449.177 51.1197ZM199.99 278.146C200.682 278.062 201.198 277.984 201.724 277.937C206.245 277.51 210.578 276.187 214.953 275.125C220.182 273.859 223.87 270.562 226.042 265.615C226.396 266.948 226.339 267.302 225.198 268.865C224.422 269.932 223.63 271 222.719 271.948C221.88 272.823 220.87 273.536 220.089 274.682C222.266 274.068 224.469 273.531 226.609 272.823C230.313 271.604 234.026 270.396 237.641 268.948C240.906 267.635 243.641 265.484 245.76 262.635C246.495 261.646 247.234 260.656 248.125 259.469C248.094 261.057 247.542 262.031 244.729 265.687C245.406 265.417 245.833 265.271 246.234 265.078C251.557 262.5 256.859 259.885 262.208 257.365C263.318 256.844 264.219 256.182 264.995 255.26C265.505 254.656 266.104 254.12 266.958 253.823C266.745 254.208 266.536 254.594 266.198 255.208C266.76 254.979 267.182 254.859 267.547 254.651C272.391 251.87 276.693 248.333 281.234 245.109C284.208 243 286.792 240.552 289.01 237.589C288.422 238.01 287.807 238.396 287.245 238.854C280.984 243.875 274.505 248.521 267.052 251.682C262.703 253.526 258.12 254.328 253.552 255.245C241.995 257.568 230.656 260.63 219.672 264.927C219.219 265.104 218.745 265.26 218.328 265.5C213.203 268.437 207.604 270.078 201.964 271.656C196.135 273.302 190.453 275.391 184.516 276.687C181.542 277.339 178.75 278.786 175.807 279.599C169.823 281.255 164.479 284.016 159.469 287.698C153.995 291.734 148.219 295.365 142.63 299.453C143.286 299.276 143.953 299.13 144.594 298.906C150.661 296.76 156.307 293.766 161.75 290.365C164.698 288.521 167.646 286.667 170.635 284.891C173.911 282.948 177.495 281.797 181.224 281.193C184.109 280.724 187.026 280.448 189.938 280.182C193.995 279.818 197.708 278.708 200.609 275.641C200.797 275.443 201.047 275.307 201.286 275.172C201.401 275.115 201.552 275.151 201.943 275.125C201.281 276.151 200.698 277.047 199.99 278.146ZM133.818 367.411C137 365.823 140.323 365.146 143.896 365.151C147.37 365.156 150.859 364.885 154.307 364.437C158.615 363.88 161.807 361.292 164.484 358.047C165.406 356.922 166.078 355.594 166.958 354.432C167.828 353.276 168.818 352.214 170.073 351.333C169.849 351.661 169.62 351.995 169.401 352.333C168.177 354.271 167.078 356.302 165.703 358.125C164.328 359.937 162.677 361.547 161.094 363.312C161.214 363.339 161.443 363.453 161.641 363.417C167.042 362.391 172.427 361.297 177.839 360.333C181.964 359.594 184.161 356.839 185.661 353.271C186.115 352.182 186.438 351.036 186.854 349.932C187.021 349.51 187.276 349.125 187.656 348.797C187.24 352.177 186.115 355.292 184.167 358.13C187.833 357.057 191.349 356.026 194.865 354.995C193.016 349.406 188.135 342.479 182.651 337.786C180.62 338.323 178.839 339.557 176.938 340.521C176.01 340.995 175.099 341.505 174.151 341.937C166.495 345.422 158.823 348.885 151.161 352.375C148.156 353.745 145.563 355.714 143.12 357.922C138.74 361.875 134.672 366.219 129.266 368.911C129.333 369.062 129.401 369.214 129.469 369.37C130.917 368.719 132.396 368.12 133.818 367.411ZM217.438 362.661C217.526 364.656 217.589 366.234 217.677 368.323C217.26 367.599 217.005 367.328 216.938 367.01C216.792 366.26 216.734 365.495 216.646 364.734C216.266 361.578 215.427 358.594 213.469 356.016C211.021 352.802 208.589 349.578 206.125 346.38C205.589 345.672 204.948 345.042 204.026 344.01C204.505 347.604 204.922 350.719 205.333 353.833C205.161 353.88 204.984 353.922 204.802 353.964C204.589 353.172 204.328 352.385 204.156 351.583C203.62 348.995 203.135 346.396 202.583 343.807C202.271 342.349 201.521 341.146 200.427 340.078C196.938 336.677 193.51 333.208 190.052 329.771C189.729 329.458 189.38 329.177 188.938 328.792C189.531 331.641 190.089 334.292 190.641 336.948C190.474 336.995 190.302 337.042 190.135 337.089C189.849 336.198 189.542 335.312 189.292 334.406C189.031 333.469 188.906 332.49 188.594 331.573C187.557 328.568 186.099 325.984 183.276 324.099C179.927 321.865 176.938 319.104 173.74 316.651C172.849 315.964 171.755 315.531 170.328 314.75C171.271 317.286 172.016 319.339 171.917 321.646C171.693 321.276 171.422 320.927 171.26 320.536C170.969 319.828 170.75 319.089 170.49 318.37C169.536 315.729 167.995 313.687 165.313 312.453C162.219 311.036 159.333 309.167 156.24 307.755C152.068 305.854 147.708 304.76 142.776 306.094C143.323 306.302 143.63 306.464 143.958 306.547C150.406 308.078 155.953 311.219 160.833 315.693C166.427 320.818 172.161 325.781 177.776 330.891C182.557 335.245 187.469 339.495 191.458 344.641C192.604 346.115 193.578 347.74 194.526 349.359C197.188 353.911 200.453 358.005 204.432 361.411C209.188 365.484 214.089 369.406 219.104 373.146C222.891 375.974 226.865 378.578 231.25 380.448C231.667 380.625 232.078 380.818 232.49 381C227.078 375.333 222.016 369.479 217.438 362.661ZM166.385 372.745C165.135 371.99 163.99 371.057 162.708 370.365C161.495 369.708 160.203 369.151 158.885 368.74C156.766 368.073 154.609 367.516 152.443 367.016C151.656 366.839 150.792 366.875 149.984 366.953C147.349 367.203 144.719 367.448 142.104 367.828C140.188 368.104 138.266 368.453 136.411 368.995C133.672 369.797 131.005 370.828 128.292 371.708C125.635 372.562 123.193 373.833 120.891 375.479C121.401 375.396 121.911 375.328 122.417 375.229C124.88 374.745 127.219 375.026 129.542 376.068C131.109 376.771 132.818 377.198 134.51 377.568C137.563 378.25 140.635 378.885 143.729 379.354C145.563 379.63 147.479 379.786 149.313 379.589C156.99 378.781 164.583 379.328 172.193 380.385C175.766 380.88 179.411 381.062 183.021 380.995C186.813 380.922 190.401 379.672 193.818 378.016C197.203 376.38 200.563 374.687 203.984 373.13C206.182 372.141 208.479 371.354 210.896 370.411C209.745 369.495 208.698 368.599 207.589 367.781C203.984 365.115 200.813 361.984 197.885 358.615C196.771 357.328 195.615 356.937 194.036 357.453C191.453 358.292 188.844 359.052 186.266 359.891C185.573 360.115 184.938 360.505 184.104 360.891C188.573 363.401 192.771 365.812 197.026 368.104C198.286 368.792 199.719 369.146 201.406 369.781C199.839 370.104 198.563 369.88 197.385 369.297C194.396 367.818 191.453 366.234 188.469 364.734C186.922 363.958 185.365 363.177 183.745 362.589C182.026 361.964 180.25 362.01 178.406 362.318C173.188 363.177 167.927 363.828 162.693 364.62C160.63 364.927 158.594 365.38 156.542 365.781C156.24 365.844 155.953 365.974 155.219 366.219C156.104 366.51 156.521 366.708 156.958 366.786C159.833 367.302 162.349 368.516 164.688 370.271C167.172 372.135 169.802 373.818 172.365 375.578C170.068 375.224 168.271 373.885 166.385 372.745ZM361.375 231.854C362.865 231.906 364.292 232.057 365.714 231.995C367.516 231.911 369.333 231.786 371.099 231.432C372.302 231.193 373.411 230.51 374.573 230.062C375.547 229.693 376.521 229.312 377.521 229.062C377.995 228.943 378.536 229.109 379.375 229.167C378.073 230.672 376.302 230.479 375.042 231.615C381 234.984 384.427 240.87 389.25 245.62C389.453 244.828 389.635 244.125 389.807 243.427C389.932 243.417 390.057 243.406 390.182 243.401C390.375 244.615 390.578 245.828 390.776 247.042C392.448 244.12 393.292 241.021 392.875 237.828C392.151 232.323 389.781 227.625 385.177 224.224C384.297 223.578 383.406 223.193 382.344 223.062C381.75 222.995 381.177 222.807 380.531 222.292C381.062 222.062 381.578 221.682 382.125 221.62C389.344 220.776 393.786 216.354 396.922 210.229C397.557 208.99 398.083 207.693 398.766 206.484C399.875 204.5 401.078 202.562 402.266 200.568C398.891 200.859 396.109 202.807 393.208 204.484C395.266 202.094 397.906 200.635 400.714 199.156C399.896 199.156 399.078 199.099 398.266 199.167C394.307 199.505 390.792 201.26 387.167 202.677C385.552 203.307 383.896 203.828 382.281 204.469C381.724 204.687 381.208 205.052 380.74 205.427C377.922 207.693 374.693 208.344 371.089 207.781C371.479 207.578 371.844 207.339 372.25 207.177C373.219 206.792 374.203 206.453 375.182 206.089C378.755 204.755 380.646 202.266 381.411 198.437C382.484 193.057 383.964 187.745 385.526 182.479C386.083 180.604 387.385 178.948 388.297 177.297C386.453 177.646 385.818 178.052 382.219 181.13C382.609 180.589 383.005 180.052 383.615 179.229C381.078 180.224 379.214 181.651 377.599 183.307C376.052 184.885 374.755 186.724 373.448 188.51C372.427 189.906 371.547 191.411 370.531 192.984C371.542 192.786 372.562 192.594 373.578 192.396C373.667 192.5 373.755 192.604 373.849 192.714C373.521 193.052 373.26 193.531 372.865 193.708C370.391 194.818 367.938 195.844 365.104 195.917C362.922 195.974 360.76 196.661 358.401 197.099C358.719 198.089 358.938 198.781 359.104 199.307C360.677 199.365 362.083 199.422 363.495 199.474C363.521 199.568 363.542 199.661 363.568 199.76C362.292 200.172 361.016 200.583 359.589 201.052C359.792 202.094 359.979 203.031 360.182 204.042C361.135 204.099 362.016 204.146 362.901 204.198C362.927 204.297 362.958 204.391 362.984 204.484C362.203 204.833 361.417 205.177 360.526 205.578C360.88 209.297 361.234 213.026 361.604 216.958C364.036 217.161 366.406 216.562 368.849 216.932C366.531 217.474 364.224 218.016 361.964 218.542C361.672 220.792 361.396 222.896 361.104 225.167C361.823 225.458 362.625 225.781 363.812 226.266C362.875 226.609 362.281 226.828 361.49 227.115C361.453 228.651 361.417 230.099 361.375 231.854ZM22.7136 387.922C23.0261 380.625 23.3281 373.328 23.6406 366.026C23.7969 362.234 23.1927 358.526 22.3646 354.849C22.2292 354.25 21.9583 353.667 21.6979 353.104C21.3698 352.417 21 351.745 20.625 351.078C16.5469 343.771 17.25 344.656 11.0261 341.151C9.09376 340.068 7.27085 338.844 5.9896 336.922C7.00002 337.682 7.96876 338.51 9.03127 339.177C10.4479 340.057 11.9063 340.875 13.4011 341.604C17.3281 343.536 17.3386 343.51 20.5156 347.625C20.3802 347.073 20.3333 346.87 20.2917 346.667C19.3906 342.448 18.4011 338.24 17.6198 334C17.0208 330.755 15.9427 327.703 14.5625 324.729C13.7136 322.891 12.2656 321.625 10.7448 320.391C8.69272 318.729 6.65627 317.057 4.64585 315.344C4.15106 314.922 3.8021 314.328 3.64064 313.557C5.44793 315.052 7.21876 316.594 9.07293 318.031C10.9948 319.521 12.9896 320.906 15.224 322.536C15.1042 321.661 15.0156 320.948 14.9011 320.24C14.2761 316.323 13.3229 312.427 13.1042 308.484C12.8958 304.729 12.1719 301.349 9.72918 298.443C9.59897 298.286 9.53647 298.073 9.45835 297.88C9.38022 297.693 9.31772 297.495 9.40627 297.187C10.3438 298.391 11.2865 299.599 12.4583 301.099C12.4583 298.88 12.375 296.943 12.4792 295.01C12.5938 293.068 12.8438 291.125 13.1406 289.203C13.4479 287.219 13.8854 285.255 14.2917 283.141C13.4636 283.979 12.6667 284.75 11.9115 285.557C11.1042 286.422 10.2813 287.276 9.56251 288.214C7.39585 291.042 5.68231 294.141 4.27085 297.417C3.22918 299.849 2.06772 302.224 0.895848 304.594C-0.187485 306.802 -0.906236 309.104 -1.34373 311.521C-3.60936 323.87 -1.8229 335.781 2.40106 347.448C3.27606 349.87 4.27085 352.26 4.95835 354.734C6.97918 361.969 10.0677 368.714 14.0104 375.078C16.75 379.49 19.5729 383.854 22.4063 388.318C22.6302 388.031 22.7136 387.979 22.7136 387.922ZM380.807 141.536C380.099 137.141 379.495 132.724 378.557 128.375C377.911 125.38 376.589 122.573 374.651 120.146C371.323 115.974 366.776 113.859 361.698 112.708C360.922 112.531 360.125 112.427 359.396 112.088C364.328 112.073 368.703 113.786 373.182 116.687C372.266 114.797 371.562 113.245 370.771 111.74C369.396 109.161 367.979 106.604 366.557 104.052C363.677 98.9062 359.568 95.2916 353.734 93.8333C351.911 93.375 350.115 92.8385 348.312 92.302C347.484 92.052 346.688 91.7083 345.953 91.2083C351.057 92.5833 356.557 92.6354 361.318 95.7291C361.151 95.3281 361 94.927 360.833 94.5364C359.75 92.0468 358.573 89.5989 357.589 87.0677C355.469 81.6041 352.125 77.1041 347.385 73.6354C346.495 72.9791 345.719 72.1718 345.13 71.1302C347.964 73.2968 350.797 75.4635 353.755 77.7343C353.755 77.4218 353.807 77.1354 353.75 76.8645C352.562 71.0677 351.5 65.2395 350.078 59.5C349.578 57.4791 348.203 55.6614 347.193 53.7708C346.88 53.1875 346.443 52.6666 345.828 51.7864C347.568 52.7656 348.005 53.1979 349.396 55.177C349.396 55.177 351.161 38.8385 351.198 38.5052C350.781 39.0989 350.516 39.4427 350.292 39.8177C349.156 41.651 348.052 43.5052 346.906 45.3229C343.875 50.1406 341.562 55.1979 340.818 60.9375C340.12 66.3229 338.979 71.6458 338.333 77.0312C337.943 80.2604 337.802 83.5833 338.12 86.8072C338.62 91.9635 341.042 96.4739 343.698 100.854C346.594 105.635 350.375 109.75 353.724 114.193C356.12 117.354 358.443 120.588 361.068 123.557C363.875 126.729 367.005 129.625 369.995 132.641C371.51 134.177 372.99 135.745 374.552 137.234C375.651 138.286 376.922 139.156 377.99 140.229C378.995 141.24 379.839 142.406 380.844 143.615C380.839 142.896 380.917 142.198 380.807 141.536ZM363.286 64.4479C363.906 63.5 364.24 62.3697 364.854 60.9895C365.068 62.7187 364.573 63.9166 363.875 65.0104C362.094 67.8281 360.26 70.6145 358.391 73.3854C356.505 76.1718 355.849 78.9635 357.604 82.1562C358.698 84.1458 359.385 86.3697 360.208 88.5052C361.156 90.9687 362.042 93.4583 362.984 95.9322C363.12 96.302 363.38 96.6197 363.677 97.1302C364.38 92.3229 366.146 88.1718 368.547 84.2239C369.865 82.052 370.833 79.6718 372.12 77.0677C371.854 78.276 371.781 79.2708 371.411 80.151C370.688 81.875 369.932 83.6198 368.958 85.2083C367.339 87.8541 366.333 90.7291 365.365 93.6354C364.76 95.4427 365.172 97.0937 365.714 98.901C368.01 106.536 372.734 112.911 376.312 119.875C376.401 120.052 376.568 120.193 376.708 120.344C376.74 120.38 376.807 120.37 377.036 120.417C376.859 119.62 376.714 118.88 376.521 118.156C376.01 116.26 376.135 114.38 377.042 112.661C378.708 109.484 380.505 106.359 382.245 103.213C382.391 103.286 382.542 103.359 382.688 103.432C382.51 103.87 382.37 104.323 382.156 104.734C380.854 107.266 379.547 109.802 378.208 112.318C377.177 114.26 376.969 116.245 377.635 118.365C378.589 121.422 379.453 124.5 380.365 127.568C381.589 131.682 381.917 135.906 381.854 140.172C381.818 143.167 381.896 146.167 381.698 149.151C381.547 151.5 381.078 153.823 380.708 156.156C380.604 156.818 380.359 157.453 380.495 158.229C381.13 156.714 381.812 155.219 382.38 153.677C383.562 150.484 384.63 147.25 385.833 144.068C387.583 139.448 388.156 134.646 388.427 129.755C388.766 123.5 387.443 117.422 386.656 111.286C386.365 109.01 386.125 106.724 385.969 104.432C385.625 99.5989 384.594 94.9322 382.703 90.4635C378.104 79.5677 373.745 68.5573 368.823 57.8125C365.328 50.1718 361.073 42.8802 357.167 35.4322C356.531 34.2083 355.927 32.9635 355.219 31.5416C354.229 32.9114 353.568 34.3385 353.302 35.8906C352.479 40.6979 351.703 45.5052 350.969 50.3281C350.797 51.4687 350.88 52.6458 350.828 54.2031C354.01 51.7812 354.708 48.1614 356.906 45.5729C355.76 48.3437 354.745 51.1875 352.818 53.552C351.49 55.177 350.896 57.0104 351.339 59.0052C352.578 64.5729 353.943 70.1145 355.271 75.6666C355.302 75.7708 355.453 75.8541 355.568 75.9635C358.141 72.1354 360.76 68.3177 363.286 64.4479ZM257.427 272.146C256.349 272.448 255.323 272.432 253.573 271.865C252.115 271.391 250.703 270.781 249.255 270.297C248.073 269.891 246.87 269.531 245.656 269.224C243.927 268.786 242.302 268.995 240.578 269.656C232.521 272.74 224.349 275.505 215.854 277.214C215.547 277.271 215.255 277.391 214.953 277.484C217.651 278.635 220.307 279.609 222.828 280.87C226.422 282.656 229.849 284.802 233.844 285.917C233.427 285.917 233 285.958 232.589 285.906C229.859 285.531 227.359 284.51 224.969 283.182C221.307 281.151 217.495 279.484 213.365 278.609C211.833 278.286 210.365 278.187 208.823 278.531C205.151 279.339 201.469 280.073 197.786 280.849C197.401 280.927 197.021 281.057 196.302 281.26C198.229 282.432 199.828 283.521 201.531 284.406C203.151 285.255 204.875 285.901 206.552 286.635C206.51 286.792 206.469 286.943 206.427 287.094C205.51 286.943 204.516 286.974 203.693 286.609C201.536 285.661 199.365 284.698 197.38 283.448C195.146 282.036 192.969 281.37 190.302 281.964C185.62 282.995 180.885 283.797 176.177 284.724C175.458 284.87 174.781 285.193 174.104 285.562C175.693 286.021 177.385 285.953 178.734 287.187C178.224 287.198 177.708 287.26 177.208 287.214C176.38 287.141 175.552 286.99 174.719 286.901C172.318 286.656 170.063 286.901 167.906 288.229C163.651 290.844 159.302 293.307 155.089 296.182C155.5 296.151 155.911 296.146 156.313 296.078C158.917 295.635 161.531 295.214 164.125 294.708C167.125 294.12 170.104 293.406 173.115 292.833C174.396 292.589 175.729 292.573 177.036 292.448C178.771 292.286 180.505 292.187 182.224 291.932C187.365 291.167 192.448 291.094 197.542 292.458C200.609 293.281 203.708 294.198 206.984 293.937C207.714 293.88 208.51 294.125 209.208 294.396C211.188 295.161 213.224 295.5 215.339 295.495C220.786 295.479 226.177 294.979 231.453 293.516C237.339 291.885 242.375 288.771 247.068 284.937C249.37 283.057 251.943 281.484 254.51 279.964C260.755 276.271 266.859 272.411 271.807 267C272.042 266.745 272.276 266.479 272.542 266.255C280.115 259.698 284.677 251.135 288.573 242.135C288.615 242.042 288.531 241.896 288.521 241.849C281.63 247.839 274.255 253.214 266.057 257.854C268.969 258.979 271.75 258.891 274.573 259.312C274.188 259.469 273.792 259.755 273.417 259.74C271.198 259.661 268.948 259.724 266.792 259.312C264.964 258.969 263.464 259.146 261.833 260.026C258.156 262.005 254.417 263.87 250.646 265.656C248.911 266.474 247.036 266.984 244.943 267.74C249.365 269.302 253.469 270.75 257.427 272.146ZM124.745 255.448C120.766 254.391 117.5 251.932 113.849 250.234C112.422 249.573 110.922 249.073 109.276 248.427C109.219 249.443 109.141 250.203 109.141 250.958C109.104 256.094 107.708 260.88 105.172 265.297C100.333 273.745 95.4219 282.156 90.4948 290.557C88.9896 293.13 87.974 295.849 87.8802 298.828C87.7396 303.141 87.7917 307.464 87.6146 311.776C87.4948 314.682 87.125 317.583 86.8438 320.484C86.7708 321.229 86.6042 321.964 86.4531 322.875C88.2188 322.526 89.3333 321.437 90.599 320.651C91.25 320.255 91.849 319.771 92.4948 319.359C92.7136 319.208 93.0938 318.99 93.2344 319.073C95.2708 320.328 96.4636 318.625 97.7552 317.708C101.911 314.75 105.604 311.307 108.74 307.229C113.667 300.823 118.422 294.323 122.474 287.318C123.24 285.995 123.995 284.661 124.823 283.375C128.031 278.365 129.688 272.781 130.964 267.047C131.635 264.016 132.276 260.974 132.917 258.005C130.026 257.094 127.417 256.156 124.745 255.448ZM436.094 35.9739C436.042 35.2135 435.943 34.4375 436.026 33.6875C436.177 32.3125 436.911 31.4479 437.938 31.2239C439.021 30.9947 440.245 31.5625 440.87 32.7395C441.323 33.5885 441.615 34.526 441.974 35.4322C442.146 35.8697 442.297 36.3072 442.594 37.1302C442.917 35.9218 443.568 34.8802 443.276 34.3229C442.094 32.0468 443.781 30.1562 443.812 28.0729C443.844 26.2708 444.021 24.4687 444.12 22.6666C444.24 20.5156 444.297 18.3541 444.484 16.2083C444.552 15.4114 444.922 14.6406 445.479 13.875C445.516 14.2135 445.625 14.5677 445.568 14.8958C445.005 17.9427 445.021 20.9583 445.625 24.0156C446.198 26.9375 445.917 29.8489 444.578 32.7395C446.891 33.2656 447.344 35.1822 447.771 37.0625C448.042 38.2604 448.13 39.5 448.339 40.9583C449.589 39.4375 450.781 38.1562 452.703 38.8593C454.297 39.4479 454.339 40.9322 454.208 42.3958C459.432 41.6406 464.349 39.6666 469.656 40.5416C469.156 40.625 468.661 40.7552 468.156 40.776C464.693 40.9322 461.385 41.7968 458.25 43.151C456.323 43.9739 454.599 45.2708 452.521 46.5156C453.479 46.8906 454.12 47.0833 454.708 47.3906C455.833 47.9687 456.406 48.9531 456.24 49.875C456.068 50.8385 455.276 51.4427 453.901 51.5781C453.495 51.6145 453.078 51.4947 452.583 51.4427C452.589 53.7291 453.479 54.9375 455.365 55.9531C459.026 57.9322 462.823 58.276 466.693 57.3489C470.391 56.4687 474.125 56.3385 477.87 56.0729C478.141 56.052 478.417 56.0208 478.833 55.6666C477.745 55.1197 476.656 54.5677 475.573 54.0208C475.583 53.927 475.589 53.8281 475.604 53.7291C476.411 53.8645 477.297 53.8229 478.005 54.1562C479.63 54.9218 481.245 55.7604 482.734 56.7656C486.536 59.3072 490.266 61.9635 494.021 64.5729C492.458 58.6093 489.865 53.1354 485.641 48.4531C488.812 49.3906 490.161 52.2291 492.188 54.4479C492.099 54.1979 492.031 53.9427 491.917 53.6979C491.807 53.4479 491.667 53.2083 491.516 52.9739C490.026 50.6718 489.068 48.1458 488.302 45.5312C487.906 44.1927 487.411 42.8906 486.927 41.5885C485.427 37.5364 482.349 34.8541 478.953 32.4583C478.568 32.1875 478.068 32.0625 477.609 31.9114C475.958 31.375 474.328 30.7239 472.641 30.3541C468.479 29.4427 464.344 29.1979 460.521 31.5989C458.807 32.677 457.234 33.9375 454.969 33.4635C454.266 33.3177 453.448 33.7187 452.297 33.9427C452.979 32.0416 453.536 30.5625 454.042 29.0677C454.24 28.4895 454.443 27.875 454.443 27.276C454.427 22.6354 453.26 18.1979 452.089 13.7552C451.719 12.3489 451.526 10.8958 451.359 9.45308C451.286 8.85412 451.422 8.19266 451.604 7.60412C452.146 5.85412 453.286 5.48954 454.714 6.41141C456.776 5.06766 458.771 3.77078 461.109 2.25516C457.938 2.40099 455.188 2.37495 452.63 3.77599C450.188 5.11454 447.698 6.35933 445.167 7.51558C441.458 9.20829 438.661 11.7916 437.021 15.5208C436.042 17.7447 435.13 20.0156 434.38 22.3281C433.682 24.4687 433.589 26.6927 434.193 28.9218C434.396 29.6666 434.833 30.4895 433.891 31.5156C433.182 30 432.417 28.6875 431.958 27.2708C430.875 23.9843 428.542 22.3541 425.271 21.7343C421.344 21 417.51 21.1093 413.797 22.7395C413.375 22.927 412.974 23.177 412.62 23.651C414.432 23.5989 416.245 23.5416 418.062 23.4791C415.344 24.875 412.344 24.6875 409.505 25.3281C406.656 25.9687 403.797 26.5885 400.927 27.125C397.995 27.6822 395.042 28.1197 392.151 28.6041C393.807 29.3645 395.859 29.1406 397.708 29.7968C396.292 30.3697 394.057 30.4739 390.88 29.7968C388.688 29.3229 386.573 28.5208 384.01 27.7395C385.104 28.8229 385.875 29.7968 386.844 30.5C390.208 32.9583 393.646 35.3229 397.062 37.7187C400.495 40.1302 404.443 40.5572 408.443 40.4427C412.37 40.3385 416.203 40.6197 420.062 41.3854C422.198 41.8072 424.474 41.5416 426.688 41.5885C427.938 41.6041 429.333 42.3645 430.375 41.276C431.208 40.4062 431.755 39.2604 432.495 38.1354C430.656 33.6354 421.958 29.5833 415.021 30.2083C415.531 29.1041 416.5 28.8802 417.438 28.9062C419.031 28.9479 420.672 28.9635 422.203 29.3541C425.385 30.1614 428.422 31.4531 431.068 33.427C432.271 34.3229 433.203 35.5989 434.193 36.7552C434.734 37.3906 435.161 38.125 436.323 37.9895C436.245 37.3125 436.146 36.6458 436.094 35.9739ZM81.5104 268.76C81.7969 266.833 82.6302 265.234 84.0208 263.844C86.4323 261.432 88.7865 258.979 92.0781 257.234C91.6354 257.786 91.3698 258.187 91.0365 258.516C90.6406 258.906 90.1511 259.198 89.7604 259.599C87.6823 261.734 85.5938 263.859 83.5729 266.052C83.1719 266.484 82.9531 267.156 82.8281 267.755C82.3229 270.135 81.8542 272.531 81.4531 274.927C81.3333 275.661 81.3802 276.464 81.5104 277.203C82.7188 284.13 83.9583 291.042 85.2188 298.13C85.3646 297.734 85.5417 297.432 85.5886 297.115C85.9531 294.656 86.9896 292.49 88.224 290.354C91.4323 284.818 94.6198 279.271 97.6667 273.646C100.245 268.875 102.667 264.016 105.052 259.141C105.776 257.651 106.354 256.026 106.62 254.401C107.469 249.104 108.078 243.76 107.401 238.396C106.818 233.771 106.047 229.167 105.323 224.562C104.844 221.531 104.219 218.531 103.802 215.495C103.255 211.547 102.333 207.698 100.802 204.01C98.9011 199.437 97.1875 194.807 96.4219 189.885C96.3906 189.698 96.2604 189.521 96.0365 189.047C94.5938 192.5 93.2344 195.729 91.7813 199.208C93.0417 198.698 94.1511 198.245 95.2604 197.797C95.3177 197.891 95.375 197.984 95.4323 198.078C94.8646 198.474 94.3438 198.969 93.724 199.234C91.3281 200.266 89.6875 202.047 88.1615 204.12C85.1563 208.198 83.0417 212.708 81.2396 217.396C81.1146 217.714 81.0833 218.057 80.8906 218.917C82.3438 217.865 83.5313 217.177 84.5 216.266C86.2083 214.651 88.1146 213.479 90.3542 212.771C91.3906 212.448 92.3646 211.927 93.5313 211.823C92.3333 212.437 91.1719 213.141 89.9323 213.651C88.2917 214.323 86.849 215.219 85.5833 216.458C84.7917 217.234 83.8906 217.901 83.0052 218.562C81.2292 219.896 79.9167 221.526 79.2396 223.682C77.7292 228.479 76.3646 233.302 76.4584 238.391C76.5 240.391 76.7813 242.385 77.2292 244.469C77.4323 244.021 77.6979 243.589 77.8334 243.12C78.8594 239.51 81.0781 236.87 84.2865 234.995C86.625 233.625 88.9479 232.219 91.2969 230.87C91.9792 230.479 92.7448 230.234 93.6406 230.245C92.6354 230.823 91.6198 231.38 90.6302 231.99C88.2708 233.453 85.8854 234.885 83.5833 236.448C81.6406 237.771 80.2084 239.568 79.4479 241.818C78.8854 243.464 78.349 245.125 77.9167 246.807C77.3698 248.974 77.125 251.151 77.4896 253.417C78.4427 259.401 79.2761 265.396 80.1615 271.385C80.2344 271.865 80.3698 272.328 80.4792 272.802C80.6094 272.812 80.7292 272.828 80.8542 272.839C81.0729 271.479 81.3073 270.125 81.5104 268.76ZM145.344 303.75C150.63 303.906 155.661 305.026 160.396 307.474C162.677 308.651 165.089 309.583 167.469 310.557C168.026 310.781 168.693 310.833 169.302 310.818C171.891 310.734 174.422 310.411 176.771 309.167C179.375 307.786 182.146 306.87 185.047 306.38C185.849 306.245 186.667 306.187 187.547 306.443C187.141 306.552 186.724 306.646 186.318 306.766C183.984 307.458 181.578 307.969 179.354 308.911C176.484 310.13 173.807 311.854 170.453 311.573C170.563 311.917 170.568 312.104 170.635 312.13C173.974 313.474 176.234 316.177 178.839 318.479C180.745 320.172 182.823 321.797 185.094 322.911C186.693 323.698 188.724 323.672 190.578 323.812C191.599 323.885 192.672 323.651 193.672 323.391C197.75 322.307 201.938 322.198 206.094 321.891C207.708 321.771 209.354 322.026 211.266 322.125C210.901 322.495 210.818 322.635 210.75 322.635C205.078 322.464 199.521 323.281 193.969 324.354C191.63 324.807 189.198 324.766 186.677 324.964C188.557 326.474 190.458 327.937 192.281 329.49C195.458 332.198 198.63 334.917 201.708 337.734C202.693 338.625 203.672 339.229 204.995 339.302C208.25 339.484 211.51 339.818 214.771 339.849C218.594 339.885 222.24 340.562 225.745 342.068C226.083 342.214 226.38 342.479 226.557 343.026C225.646 342.729 224.734 342.448 223.833 342.141C221.24 341.255 218.573 340.818 215.833 340.797C212.229 340.76 208.62 340.719 204.969 340.677C204.979 340.714 204.948 340.943 205.052 341.057C208.964 345.521 212.365 350.344 215.521 355.365C216.182 356.427 217.302 357.38 218.432 357.943C220.786 359.109 223.26 360.068 225.745 360.948C228.161 361.812 230.521 362.719 232.354 364.641C229.87 363.698 227.391 362.755 224.906 361.812C222.443 360.875 219.984 359.932 217.427 358.953C217.932 360.875 218.932 362.562 220.068 364.167C223.349 368.797 227.318 372.792 231.615 376.469C232.708 377.401 233.833 378.292 235.281 379.484C235.151 378.464 235.099 377.885 235 377.307C234.406 373.714 234.38 370.156 234.776 366.505C235.438 360.391 235.198 354.281 233.536 348.276C232.76 345.464 231.078 343.172 229.63 340.745C228.339 338.578 227.401 336.292 226.641 333.885C225.469 330.172 224.203 326.474 222.724 322.875C220.401 317.24 216.583 312.74 211.255 309.75C203.911 305.63 196.453 301.719 188.469 298.927C185.88 298.016 183.24 297.667 180.49 297.552C175.724 297.359 171.052 297.792 166.359 298.552C163.552 299.01 160.688 299.115 157.844 299.359C154.354 299.656 150.995 300.443 147.766 301.87C146.339 302.5 144.766 302.797 143.255 303.25C143.26 303.359 143.271 303.469 143.276 303.578C143.964 303.635 144.651 303.729 145.344 303.75ZM174.396 330.516C171.589 328.349 168.646 326.354 165.896 324.115C163.526 322.182 161.234 320.13 159.12 317.927C156.089 314.766 152.594 312.302 148.708 310.354C146.453 309.219 144.115 308.401 141.526 308.38C140.365 308.365 139.214 307.995 138.052 307.802C137.729 307.745 137.396 307.698 137.078 307.729C136.292 307.812 135.505 307.948 134.411 308.109C132.667 310.437 129.896 311.854 127.109 313.333C122.172 315.958 118.453 319.964 114.995 324.318C110.016 330.583 106.698 337.635 104.182 345.219C104.193 345.276 104.172 345.448 104.25 345.536C106.036 347.609 105.901 349.729 104.307 351.797C102.865 353.667 101.516 355.677 99.7865 357.25C94.7604 361.823 90.3854 366.922 86.5208 372.49C82.5104 378.26 78.4011 383.958 74.4688 389.776C73.1927 391.661 72.2761 393.797 71.2917 395.865C70.4844 397.547 69.8125 399.297 68.9427 401.359C69.4115 401.042 69.6615 400.906 69.875 400.724C72.4427 398.484 74.9375 396.151 77.6042 394.042C78.8906 393.021 80.4479 392.286 81.9844 391.661C86.5104 389.823 90.8125 387.589 94.9167 384.917C98.9375 382.307 103.063 379.849 107.167 377.354C108.234 376.708 109.333 376.057 110.505 375.646C114.005 374.406 117.219 372.641 120.391 370.724C122.464 369.469 124.672 368.406 126.891 367.411C131.896 365.161 136.432 362.182 140.313 358.339C146.417 352.302 153.646 348.135 161.531 344.969C165.786 343.255 170.057 341.583 174.281 339.771C176.557 338.797 178.734 337.573 181.438 336.219C178.818 334.089 176.646 332.255 174.396 330.516ZM228.641 251.057C231.516 249.599 234.536 248.604 237.703 247.979C246.786 246.177 255.776 243.979 264.661 241.328C267.177 240.578 269.818 240.073 272.427 239.865C280.703 239.219 287.974 236.302 294.177 230.781C294.385 230.594 294.568 230.286 294.802 230.245C295.37 230.135 296.141 229.922 296.495 230.187C296.854 230.469 297 231.292 296.917 231.828C296.833 232.411 296.417 232.969 296.073 233.49C292.797 238.349 290.266 243.62 287.656 248.854C284.349 255.479 280.589 261.797 275.052 266.885C273.318 268.484 271.885 270.427 270.104 271.974C265.526 275.943 260.641 279.526 255.339 282.495C252.161 284.271 249.37 286.557 246.396 288.943C247.068 289.609 247.557 290.297 248.224 290.724C253.443 294.062 258.708 297.312 264.542 299.516C269.568 301.417 274.828 301.932 280.12 302.266C284.078 302.51 288.063 302.891 292.01 302.714C295.245 302.562 298.495 301.854 301.656 301.073C307.099 299.724 312.031 297.094 316.948 294.464C318.729 293.516 320.563 292.667 322.313 291.667C325.089 290.083 327.875 288.51 330.542 286.755C333.323 284.922 336.016 282.943 338.656 280.906C340.188 279.719 341.583 278.323 342.052 276.297C342.068 276.234 342.109 276.172 342.151 276.115C345.286 271.865 346.609 266.708 349.135 262.146C350.208 260.208 351.026 258.115 351.854 256.047C352.594 254.177 353.167 252.245 354.469 250.63C354.932 250.057 355.229 249.292 355.422 248.562C356.901 243.052 358.411 237.547 359.74 231.995C360.13 230.344 360.005 228.547 360.036 226.818C360.146 220.818 358.88 214.932 358.464 208.974C358.13 204.307 356.938 199.865 355.401 195.406C352.307 186.448 348.901 177.635 344.75 169.125C342.958 165.443 340.422 162.323 336.969 160.026C333.38 157.641 330.167 154.698 326.198 152.88C322.146 151.021 318.073 149.234 313.547 148.844C312.375 148.74 311.208 148.437 310.078 148.104C305.922 146.875 301.682 146.182 297.375 145.745C294.479 145.448 291.583 144.901 288.745 144.234C284.37 143.208 280.005 143.484 275.667 144.167C273.708 144.474 271.854 145.437 269.953 146.12C269.693 146.208 269.464 146.38 269.203 146.479C263.833 148.568 258.453 150.646 253.078 152.734C251.786 153.24 250.443 153.656 249.219 154.292C246.63 155.646 244.078 157.083 241.557 158.552C239.995 159.464 238.552 160.479 237.755 162.271C237.286 163.318 236.427 164.229 235.604 165.068C234.745 165.953 234.547 166.885 234.677 168.083C235.25 173.276 235.516 178.469 235.229 183.719C234.917 189.495 233.391 194.948 231.734 200.406C230.708 203.802 229.516 207.151 228.573 210.573C227.833 213.245 226.255 215.458 225.01 217.854C224.276 219.271 223.479 220.667 222.875 222.141C221.51 225.516 219.745 228.62 217.604 231.583C215.021 235.167 214.479 239.177 216.078 243.406C216.417 244.302 216.495 245.286 216.719 246.219C216.984 247.297 217.255 248.375 217.568 249.443C218.156 251.427 218.781 253.396 219.438 255.526C222.646 253.974 225.667 252.568 228.641 251.057ZM187.745 106.12C188.375 104.828 189.063 103.411 189.75 102C189.885 102.057 190.016 102.104 190.151 102.156C189.703 103.625 189.25 105.094 188.755 106.708C189.245 106.911 189.729 107.109 190.229 107.318C191.516 105.963 192.276 104.417 192.828 102.76C194.24 98.5104 197.854 96.4322 201.271 94.1666C201.547 93.9791 201.938 93.8645 202.26 93.8958C202.635 93.9322 203.172 94.0781 203.302 94.3385C203.432 94.5989 203.255 95.1822 203.016 95.4166C202.021 96.3854 200.953 97.2708 199.583 98.4791C200.359 98.4218 200.724 98.4322 201.073 98.3593C202.771 98.0104 204.458 97.5885 206.161 97.2916C209.177 96.7552 212.214 96.3229 215.224 95.7968C219.26 95.0937 222.068 92.8697 223.448 88.9531C223.745 88.1041 224.094 87.2708 224.51 86.1822C224.016 86.3385 223.724 86.3906 223.464 86.5156C223.193 86.651 222.943 86.8593 222.568 86.8906C223.583 85.4791 224.594 84.0625 225.609 82.6458C225.51 82.5573 225.417 82.4635 225.323 82.375C224.88 82.526 224.422 82.6458 224 82.8385C221.74 83.8698 219.359 84.2031 216.891 84.3125C213.104 84.4791 209.62 85.5468 206.219 87.3906C203.453 88.8854 200.906 90.6666 198.26 92.3125C197.891 92.5416 197.458 92.6718 196.943 92.6927C198.531 90.5677 200.234 88.5833 202.297 86.9843C204.193 85.5208 205.177 83.625 205.505 81.3645C205.677 80.1302 205.682 78.8593 205.594 77.6145C205.375 74.427 205.068 71.25 204.766 67.7916C204.146 68.6666 203.656 69.3645 203.161 70.052C203.047 70.0104 202.938 69.9687 202.828 69.9218C203.286 68.5573 203.75 67.177 204.328 65.4531C203.604 65.9323 203.193 66.1614 202.828 66.4531C200.573 68.2968 198.063 69.1145 195.089 68.8645C191.938 68.6093 189.568 70.526 187.313 72.3854C185.036 74.2552 183.583 76.7812 181.969 79.2291C180.651 81.2239 180.078 83.2864 179.49 85.4583C179.224 86.4375 178.828 87.3802 178.495 88.3385C178.281 88.3229 178.073 88.3072 177.859 88.2916C177.969 87.8593 178.13 87.427 178.182 86.9895C178.396 85.1197 178.594 83.2552 178.771 81.3802C178.938 79.6041 178.672 77.9531 177.688 76.3854C176.911 75.1562 176.5 73.6979 175.719 72.4739C173.349 68.7968 170.948 65.1302 168.411 61.5625C166.328 58.625 164.026 55.8385 161.734 52.875C161.25 54.651 161.823 56.3281 161.734 58.1093C161.297 56.7604 160.859 55.4166 160.349 53.8229C160.094 54.4531 159.828 54.9114 159.724 55.4062C159.115 58.2656 158.563 61.1354 157.953 63.9947C157.073 68.1614 157.406 71.9895 160.557 75.2656C162.469 77.2552 164.167 79.4531 166.13 81.7604C166.25 80.5 166.349 79.4635 166.448 78.427C166.635 78.3958 166.828 78.3645 167.016 78.3333C167.203 78.776 167.536 79.2135 167.563 79.6614C167.656 81.677 167.729 83.6979 167.688 85.7135C167.646 87.8698 167.594 90.0364 167.307 92.1666C167.099 93.7135 166.505 95.2083 166.057 96.8229C166.604 96.927 167.271 97.052 168.104 97.2083C168.745 95.7656 169.365 94.3593 169.984 92.9531C170.141 93.0052 170.307 93.0677 170.464 93.125C170.125 94.5156 169.786 95.9062 169.417 97.4062C170.005 97.651 170.563 97.8854 171.245 98.1718C171.802 97.1145 172.328 96.1145 172.995 94.8437C173.594 96.4895 172.927 97.7135 172.698 99.0156C173.911 99.75 175.328 100.182 176.422 101.781C175.589 101.677 175.203 101.667 174.844 101.568C172.63 100.958 170.443 100.281 168.219 99.7135C165.318 98.9791 162.391 98.3333 159.479 97.6458C154.344 96.4427 149.141 96.4322 143.896 96.5468C137.75 96.6822 131.677 97.125 125.682 98.6197C116.724 100.859 108.396 104.328 101.172 110.224C98.9688 112.026 96.625 113.677 94.2656 115.276C90.7292 117.672 87.4896 120.396 84.5677 123.5C81.8073 126.432 78.9792 129.323 76.3542 132.37C74.6771 134.318 73.2813 136.521 72.4844 139.01C71.4115 142.385 70.4167 145.786 69.3959 149.187C69.099 150.187 68.849 151.198 68.5677 152.208C68.3646 152.943 68.0729 153.661 67.9375 154.411C66.2656 163.458 64.8177 172.526 65.1927 181.771C65.2396 182.927 65.625 184.089 65.9792 185.214C68.1615 192.182 70.375 199.146 72.5886 206.115C72.8281 206.87 73.125 207.609 73.5104 208.682C75.5781 206.187 77.3959 204.01 79.1979 201.818C83.8386 196.161 88.5573 190.578 94.125 185.786C94.9011 185.125 95.5156 184.245 96.1042 183.401C96.5052 182.828 96.9219 182.448 97.6406 182.594C98.5156 182.771 98.6146 183.448 98.625 184.193C98.7344 189.672 99.7969 194.984 101.667 200.12C103.724 205.771 105.245 211.521 106.052 217.495C106.87 223.562 108.099 229.573 108.958 235.641C109.411 238.859 109.453 242.141 109.698 245.615C110.448 245.958 111.396 246.365 112.328 246.812C114.953 248.083 117.615 249.292 120.182 250.672C123.755 252.604 127.396 254.349 131.401 255.104C135 255.781 138.641 256.271 142.276 256.771C143.219 256.896 144.203 256.693 145.161 256.76C147.307 256.906 149.453 257.302 151.599 257.286C155.417 257.255 159.266 257.198 163.052 256.776C169.068 256.099 175.068 255.219 181.036 254.203C183.125 253.849 185.151 252.958 187.12 252.115C192.927 249.615 198.01 245.964 202.948 242.083C205.516 240.062 208.146 238.109 210.609 235.958C213.771 233.203 216.505 230.021 218.693 226.443C220.281 223.839 221.62 221.078 222.99 218.344C223.797 216.724 224.411 215.016 225.188 213.38C228.719 205.906 230.62 197.906 232.76 189.984C232.958 189.25 233.026 188.469 233.026 187.708C233.042 181.583 232.979 175.458 232.375 169.344C232.068 166.167 232.224 162.937 231.865 159.766C231.583 157.302 231.042 154.818 230.24 152.464C227.911 145.573 224.797 139.036 220.245 133.307C218.391 130.979 216.177 128.932 214.115 126.771C209.568 121.995 204.396 117.995 198.755 114.635C194.813 112.286 190.708 110.219 186.682 108.01C186.042 107.656 185.458 107.213 184.844 106.812C184.906 106.583 184.969 106.359 185.026 106.135C185.875 106.13 186.719 106.125 187.745 106.12ZM428.161 105.141C429.464 105.557 430.526 105.213 431.771 104.922C436.505 103.797 440.042 100.74 443.646 97.8125C445.714 96.1354 447.245 94.0208 448.318 91.5104C449.542 88.6354 451.161 85.9323 452.438 83.0781C453.719 80.1927 454.068 77.0781 454.38 73.9427C454.719 70.5729 454.271 67.3177 453.807 64.0156C453.599 62.526 453.698 60.9479 453.948 59.4583C454.135 58.3645 453.885 57.7343 452.896 57.2291C448.068 59.2187 443.432 61.5677 439.115 64.7135C435.495 67.3489 431.385 69.3854 426.74 69.927C424.948 70.1354 423.198 70.7083 421.406 70.9323C418.661 71.2708 415.896 71.4479 412.984 71.7031C411.922 73.5468 411.693 75.7708 411.828 77.9895C412.031 81.3177 412.443 84.6354 412.781 87.9583C412.807 88.2239 412.927 88.4843 413 88.7291C413.125 88.7343 413.214 88.7708 413.26 88.7395C415.875 86.9375 418.932 86.2135 421.885 85.1927C424.604 84.2552 427.12 82.9166 428.948 80.5625C429.115 80.3437 429.323 80.151 429.526 79.9635C430.172 79.3645 430.911 79.2187 431.594 79.7968C432.224 80.3281 432.099 81.0312 431.708 81.6875C431.354 82.2916 431.016 82.901 430.641 83.4843C427.781 87.8906 426.344 92.802 425.464 97.9218C425.099 100.052 424.719 102.172 424.401 104.307C424.292 105.047 424.344 105.812 424.323 106.568C423.745 110.198 423.375 113.875 422.542 117.448C420.875 124.573 417.667 131.073 413.49 137.042C412.401 138.589 411.438 140.135 410.651 141.844C410.115 143.01 409.557 144.141 408.385 144.979C407.542 145.573 407.141 146.781 406.526 147.708C405.26 149.625 403.979 151.526 402.729 153.443C402.234 154.198 401.609 154.937 401.375 155.776C400.714 158.151 398.792 159.099 396.792 159.589C394.104 160.25 391.734 161.516 389.302 162.703C387.807 163.443 386.276 164.115 384.786 164.865C383.391 165.573 382.036 165.964 380.781 164.573C377.531 166.448 374.167 167.724 371.005 169.51C364.906 172.943 358.745 176.406 351.76 177.885C351.708 177.901 351.672 177.99 351.516 178.182C351.755 178.786 352.021 179.469 352.302 180.177C356.109 179.641 359.667 178.526 362.974 176.745C368.219 173.922 373.797 172 379.484 170.349C380.953 169.927 382.391 169.375 383.818 168.833C387.911 167.276 392.021 165.76 396.073 164.115C398.568 163.094 400.958 161.807 403.438 160.734C404.448 160.302 405.552 160.01 406.641 159.839C411.234 159.109 415.568 157.635 419.417 155.036C421.536 153.604 423.365 151.75 425.318 150.089C426.01 149.5 426.682 148.896 427.406 148.359C428.812 147.323 430.141 147.031 432.021 147.651C434.062 148.323 436.411 148.161 438.63 148.224C443.797 148.37 448.688 147.286 453.427 145.161C457.448 143.359 461.266 141.276 464.828 138.687C465.859 137.932 466.458 137.01 466.526 135.734C466.552 135.266 466.599 134.797 466.651 134.203C468.547 135.344 468.245 136.74 467.401 138.385C468.005 138.38 468.464 138.427 468.896 138.365C472.885 137.766 476.901 137.25 480.87 136.51C486.135 135.526 490.719 133.208 494.396 129.187C496.693 126.677 497.401 123.557 497.938 120.417C498.229 118.713 497.464 117.177 495.594 116.328C495.229 117.219 494.943 118.062 494.542 118.849C493.172 121.521 491.141 123.588 488.526 125.047C484.99 127.031 481.266 128.531 477.24 129.266C474.161 129.828 471.099 130.505 468.073 131.297C467.24 131.51 466.562 132.318 465.651 132.969C465.552 131.74 465.891 130.812 466.49 129.937C466.917 129.307 467.443 129.141 468.245 129.151C475.927 129.214 483.146 127.609 489.505 123.036C491.411 121.661 492.839 119.896 493.812 117.76C496.312 112.292 492.214 104.911 486.271 104.302C484.911 104.161 483.458 104.213 482.13 104.521C474.214 106.375 468.042 110.896 462.917 117.271C463.802 118.047 464.698 118.713 464.292 120.057C464.156 120.484 464.635 121.083 464.792 121.615C464.979 122.255 465.365 122.932 464.406 123.708C464.036 123.292 463.552 122.932 463.318 122.448C462.141 120.031 460.51 118.172 457.792 117.484C457.698 117.458 457.646 117.286 457.391 116.922C458.167 116.703 458.844 116.365 459.536 116.344C460.812 116.307 461.75 115.74 462.693 114.943C466.344 111.838 469.953 108.661 474.115 106.203C477.021 104.5 480.052 103.125 483.406 102.609C484.635 102.422 485.896 102.453 487.297 102.37C487.292 101.786 487.448 101.125 487.26 100.578C486.49 98.3437 485.766 96.0468 484.026 94.3333C482.068 92.4062 479.641 91.7291 476.943 92.0364C472.312 92.5572 468.495 94.7083 465.25 97.9531C461.823 101.385 458.859 105.115 457.615 109.958C457.307 111.161 456.714 112.286 456.198 113.588C456.589 113.75 457.047 113.937 457.521 114.135C456.828 115.286 454.333 116.276 451.969 116.312C452.344 115.823 452.656 115.411 452.99 114.979C452.807 114.917 452.677 114.812 452.594 114.849C451.036 115.432 449.453 115.969 447.932 116.646C444.979 117.958 442.448 119.823 440.161 122.151C436.333 126.042 432.802 130.13 430.026 134.839C428.693 137.083 427.719 139.448 427.521 142.068C427.474 142.667 427.479 143.38 427.755 143.87C428.359 144.917 427.943 145.604 427.167 146.203C425.464 147.516 423.776 148.875 421.984 150.068C418.333 152.495 414.635 154.844 410.922 157.167C410.109 157.677 409.188 158.146 408.26 158.297C407.427 158.422 406.484 158.193 405.661 157.917C404.901 157.661 404.698 156.948 404.99 156.187C405.167 155.734 405.391 155.302 405.635 154.88C408.786 149.396 412.052 143.969 415.062 138.411C416.891 135.031 418.859 131.776 421.208 128.74C421.417 128.469 421.578 128.146 421.719 127.833C422.979 125.12 424.271 122.427 425.469 119.687C426.276 117.823 426.62 115.87 426.745 113.812C426.88 111.625 427.464 109.469 427.865 107.213C426.88 106.979 425.349 108.443 424.547 106.573C425.448 105.312 426.688 104.672 428.161 105.141ZM124.057 372.01C124 371.885 123.938 371.771 123.88 371.651C123.219 372.052 122.557 372.458 121.901 372.859C121.286 373.13 120.677 373.401 120.057 373.667C120.125 373.781 120.193 373.891 120.26 374.005C120.807 373.604 121.354 373.203 121.901 372.802C122.62 372.531 123.339 372.271 124.057 372.01ZM365.016 193.516C367.927 192.266 370.427 190.479 372.49 188.016C375.125 184.875 377.797 181.745 380.708 178.865C382.312 177.276 384.344 176.052 386.354 174.979C387.516 174.359 388.995 174.255 390.354 174.13C391.323 174.036 392.328 174.292 393.469 174.406C394.24 175.75 394.25 175.797 392.911 176.609C390.729 177.927 388.766 179.531 387.542 181.766C385.656 185.203 384.969 189.042 384.219 192.5C387.021 192.646 389.719 192.797 392.411 192.917C393.698 192.964 394.161 193.703 393.521 194.818C393.286 195.234 392.891 195.557 392.62 195.964C391.849 197.12 390.979 198.229 390.385 199.87C391.719 199.474 392.708 199.167 393.708 198.896C395.521 198.401 397.318 197.833 399.156 197.474C401.901 196.943 404.568 197.318 407.094 198.536C407.901 198.932 408.635 199.427 408.214 200.448C407.844 201.354 407.021 201.333 406.266 200.953C405.036 200.339 404.021 200.781 403.307 201.703C402.422 202.844 401.651 204.099 401.016 205.396C399.823 207.833 398.901 210.406 397.63 212.797C395.297 217.187 392.328 220.995 387.281 222.547C387.24 222.562 387.224 222.667 387.193 222.729C388.156 223.885 389.245 224.964 390.073 226.219C394.396 232.75 395.672 239.76 393.203 247.318C392.646 249.016 391.812 250.651 392.083 252.557C392.167 253.13 391.953 253.849 391.109 253.917C390.292 253.984 390.104 253.365 389.854 252.771C388.885 250.464 388 248.115 386.859 245.896C386.078 244.385 384.922 243.073 383.938 241.667C383.786 241.672 383.63 241.672 383.479 241.677C383.495 244.88 381.677 247.167 379.969 249.547C379.078 250.771 378.51 252.219 377.812 253.578C377.682 253.823 377.656 254.172 377.464 254.323C377.172 254.568 376.745 254.859 376.432 254.807C376.12 254.75 375.729 254.339 375.641 254.005C375.521 253.562 375.672 253.052 375.661 252.573C375.646 251.125 375.682 249.682 375.552 248.245C375.443 247.073 375.062 245.927 374.943 244.755C374.589 241.344 373.141 238.484 370.693 236.135C369.141 234.641 367.323 233.698 365.052 233.995C363.745 234.161 362.432 234.266 360.964 234.417C360.688 235.979 360.375 237.958 359.995 239.927C359.141 244.385 358.109 248.766 355.526 252.646C354.495 254.193 353.812 255.984 353.031 257.687C350.276 263.693 348.021 269.917 344.76 275.698C342.354 279.964 339.406 283.609 335.411 286.484C332.063 288.896 328.635 291.057 324.75 292.542C321.188 293.906 317.745 295.615 314.271 297.208C310.286 299.031 306.391 301.068 302.333 302.714C297.786 304.552 293.057 305.724 288.063 305.042C281.234 304.109 274.37 303.365 267.583 302.193C264.682 301.693 261.865 300.474 259.12 299.318C253.844 297.089 249.12 293.896 244.5 290.349C243.87 290.672 243.193 291.016 242.526 291.375C238.693 293.411 234.724 295.161 230.406 295.766C223.156 296.776 215.891 297.687 208.563 296.479C208.156 296.411 207.714 296.339 207.318 296.422C203.635 297.198 200.208 296.073 196.974 294.667C193.12 292.99 189.172 292.656 185.12 292.958C181.797 293.214 178.49 293.714 175.177 294.125C174.698 294.182 174.229 294.339 173.755 294.458C169.708 295.458 165.745 296.859 161.547 297.198C161.469 297.203 161.406 297.396 161.266 297.609C162.156 297.656 162.984 297.786 163.802 297.734C165.333 297.63 166.885 297.573 168.365 297.229C173.146 296.12 178.031 295.948 182.885 295.63C184.792 295.5 186.802 295.76 188.656 296.24C191 296.854 193.292 297.75 195.516 298.729C202.563 301.833 208.807 306.302 215.115 310.625C219.979 313.958 223.552 318.474 225.927 323.901C226.151 324.401 226.411 324.891 226.62 325.312C232.057 325.073 237.401 324.729 242.755 324.641C248.083 324.547 253.302 325.281 258.26 327.453C260.099 328.26 262.016 328.953 263.969 329.432C267.203 330.224 270.495 330.802 273.766 331.484C274.443 331.63 275.151 331.734 275.76 332.036C276.651 332.479 276.641 333.516 275.786 334.01C275.495 334.182 275.146 334.286 274.807 334.354C271.984 334.937 269.771 336.542 267.594 338.344C264.536 340.87 261.474 343.427 258.161 345.589C252.224 349.474 246.104 353.073 240.057 356.792C239 357.443 237.964 358.13 237.089 358.687C236.995 362.714 236.766 366.542 236.859 370.354C236.938 373.552 237.432 376.734 238.604 379.755C239.229 381.359 239.953 382.917 240.568 384.521C241.099 385.896 240.443 386.776 239.021 386.484C238.083 386.297 237.167 385.88 236.318 385.422C228.302 381.083 220.125 377.047 212.583 371.802C212.26 371.922 211.927 372.016 211.62 372.161C206.984 374.401 202.354 376.651 197.719 378.891C191.13 382.073 184.234 383.745 176.88 383.068C174.802 382.875 172.734 382.599 170.656 382.396C166.714 382.016 162.745 381.797 158.818 381.245C155.469 380.771 152.172 380.844 148.823 381.099C147.052 381.24 145.224 381.005 143.443 380.792C140.406 380.427 137.375 379.974 134.354 379.5C132.438 379.198 130.484 378.964 128.641 378.396C126.37 377.703 124.13 377.453 121.865 378.125C117.656 379.354 113.469 380.651 109.286 381.958C107.161 382.62 105.089 383.458 102.938 384.026C100.026 384.802 97.2708 385.896 94.6511 387.396C91.2083 389.37 87.7865 391.401 84.2136 393.104C78.4427 395.865 73.5625 399.828 69.474 404.562C65.1771 409.557 61.5209 415.109 57.6042 420.427C56.9844 421.271 56.5469 422.25 55.8594 423.021C53.0209 426.193 50.5261 429.599 48.1927 433.167C45.4688 437.328 43.099 441.615 41.4479 446.312C38.099 455.823 36.2031 465.656 34.8854 475.615C34.3073 479.984 33.2344 484.229 31.9271 488.422C31.8021 488.823 31.6406 489.208 31.4896 489.594C31.2552 490.161 30.8386 490.672 30.2448 490.312C29.8959 490.099 29.7084 489.437 29.6615 488.958C29.6198 488.495 29.8334 488.005 29.9792 487.536C31.7084 481.865 32.7396 476.036 33.6406 470.182C34.7552 462.88 36.2656 455.656 38.2031 448.526C39.4636 443.87 40.9531 439.302 43.6198 435.234C45.0677 433.021 46.6823 430.922 48.1511 428.724C52.5625 422.13 56.7656 415.396 61.375 408.943C64.7709 404.187 67.5261 399.203 69.4271 393.693C70.0365 391.932 70.8698 390.182 71.9531 388.682C74.8334 384.672 77.8802 380.781 80.9115 376.88C83.724 373.25 86.5417 369.625 89.4688 366.083C92.224 362.766 95.1719 359.609 97.9427 356.297C99.4531 354.484 100.802 352.536 102.146 350.594C102.516 350.062 103.021 349.365 102.365 348.401C100.87 350.344 99.4844 352.161 98.0729 353.964C97.474 354.729 96.8854 355.521 96.1771 356.182C95.5677 356.74 94.6927 356.344 94.6875 355.521C94.6823 354.99 94.8594 354.411 95.1146 353.943C95.6198 353.031 96.1667 352.13 96.8125 351.318C99.724 347.63 102.214 343.724 103.661 339.214C103.958 338.286 104.349 337.385 104.714 336.484C106.307 332.531 108.026 328.635 111.036 325.51C114.417 322.01 117.943 318.635 121.281 315.089C123.516 312.708 126.104 310.953 129.016 309.516C131.625 308.229 133.792 306.297 135.474 304.479C134.385 304.339 133.167 304.125 131.938 304.047C131.167 304 130.484 303.875 130.359 303.031C130.229 302.172 130.932 301.896 131.589 301.594C132.464 301.187 133.401 300.828 134.141 300.234C135.818 298.88 137.37 297.37 139.01 295.969C141.495 293.849 143.854 291.521 146.557 289.714C150.854 286.839 154.792 283.547 158.813 280.339C161.854 277.906 164.995 275.651 168.922 274.672C173.865 273.437 178.542 271.437 183.115 269.182C187.984 266.792 192.854 264.37 197.849 262.25C200.969 260.927 204.276 259.948 207.583 259.167C210.922 258.38 214.13 257.297 217.323 255.974C216.453 253.542 215.599 251.146 214.724 248.693C212.563 250.016 210.557 251.234 208.552 252.453C205.141 254.536 201.547 256.109 197.656 257.125C194.844 257.859 192.047 258.828 189.427 260.073C183.573 262.865 177.568 265.25 171.51 267.547C165.021 270.01 158.354 272.177 152.771 276.557C151.677 277.417 150.552 278.245 149.37 278.974C145.323 281.49 141.776 284.589 138.297 287.818C136.063 289.891 133.557 291.687 131.031 293.401C129.922 294.156 128.479 294.458 127.146 294.828C126.448 295.021 125.708 294.771 125.568 293.88C125.448 293.146 125.875 292.714 126.547 292.49C127.531 292.151 128.51 291.812 129.135 291.599C130.156 289.339 130.932 287.333 131.943 285.448C134.229 281.172 136.068 276.75 136.318 271.844C136.547 267.443 138.385 263.667 140.583 259.99C140.771 259.667 140.87 259.297 141.052 258.854C138.969 258.609 137.047 258.38 135.042 258.146C134.906 258.76 134.781 259.297 134.667 259.839C134.156 262.359 133.75 264.901 133.12 267.391C131.672 273.083 129.589 278.516 126.385 283.495C124.464 286.474 122.693 289.562 120.964 292.656C117.563 298.75 113.672 304.516 109.339 309.974C105.141 315.255 99.5156 319.01 94.6198 323.557C93.1823 324.891 91.6927 326.099 90.8802 327.964C90.6771 328.427 89.9844 329.005 89.5521 328.974C88.7136 328.922 88.5938 328.052 88.6458 327.349C88.6823 326.818 88.9427 326.297 89.1094 325.776C89.2604 325.292 89.4167 324.807 89.5729 324.323C89.3281 324.25 89.2448 324.203 89.2083 324.224C84.2708 327.719 84.7604 325.698 84.0573 332.531C83.8802 334.255 83.7917 336 83.5 337.703C82.8958 341.198 82.0208 344.651 81.5521 348.161C80.4636 356.292 77.1927 363.516 72.6459 370.219C70.5365 373.328 68.2656 376.328 65.9844 379.312C61.7084 384.906 57.2084 390.307 51.9531 395.021C49.6042 397.125 47.6719 399.583 45.7813 402.083C43.0052 405.74 40.1459 409.333 37.3594 412.979C36.3438 414.297 35.3959 415.677 34.474 417.062C33.224 418.932 32.4063 420.995 31.9011 423.187C31.7344 423.911 31.2865 424.484 30.4011 424.255C29.625 424.057 29.4948 423.385 29.6094 422.755C29.8646 421.396 30.2136 420.052 30.5521 418.708C30.7761 417.807 31.0417 416.917 31.3229 415.875C30.1042 415.974 29.2084 416.083 28.3177 416.104C26.4479 416.151 26.2709 416.214 26.0104 417.995C25.8281 419.229 25.8073 420.49 25.7761 421.74C25.7344 423.271 25.7761 424.802 25.75 426.333C25.6198 432.88 25.4375 439.427 25.3438 445.969C25.3021 449.312 25.5938 452.661 25.4115 455.995C24.9063 465.333 23.9011 474.604 21.0833 483.583C20.0208 486.969 18.8594 490.323 17.7136 493.687C17.5104 494.281 17.1146 494.958 16.3906 494.615C16.0886 494.469 15.8802 493.635 15.9896 493.203C16.4271 491.526 17.0313 489.891 17.5313 488.224C19.0365 483.151 20.8333 478.146 21.9427 472.99C23.724 464.734 24.5156 456.365 24.1146 447.875C23.5313 435.365 22.8177 422.849 24.1146 410.339C24.1458 410.062 24.1094 409.776 24.0781 409.5C23.5208 404.729 22.9636 399.958 22.3854 395.193C22.0886 392.729 21.2865 390.443 19.8333 388.417C18.1667 386.104 16.3438 383.891 14.849 381.469C12.9063 378.344 11.2136 375.057 9.41668 371.833C7.31251 368.047 5.69272 364.068 4.49481 359.891C3.51564 356.484 2.34376 353.125 1.24481 349.75C0.250014 346.703 -0.838527 343.687 -1.75519 340.625C-4.67186 330.875 -5.67186 320.984 -3.95832 310.885C-3.52603 308.318 -2.78124 305.88 -1.59894 303.562C-0.364569 301.146 0.859389 298.724 2.01043 296.26C4.09376 291.812 6.78647 287.776 10.0573 284.125C13.3698 280.432 16.3958 276.552 18.6927 272.13C18.9011 271.74 19.7188 271.224 19.9115 271.339C20.3646 271.609 20.849 272.214 20.8854 272.708C20.9375 273.516 20.6458 274.349 20.5052 275.167C19.9271 278.599 19.2188 282.01 18.8177 285.464C18.1458 291.198 18.4688 296.865 20.5729 302.339C22.2917 306.823 23.8594 311.37 25.6615 315.812C28.5521 322.917 29.7709 330.406 31.0573 337.885C31.7188 341.703 31.7552 345.536 31.0625 349.323C29.5261 357.75 27.9115 366.161 26.1719 374.547C25.625 377.182 25.4583 379.755 25.6094 382.417C25.9011 387.49 26.0313 392.573 26.25 397.646C26.2917 398.552 26.3125 399.479 26.5469 400.339C27.2552 402.953 27.2031 405.578 26.875 408.224C26.6615 409.937 26.4636 411.651 26.2656 413.302C28.0781 413.573 29.7292 413.802 31.375 414.073C32.349 414.24 33.1146 413.99 33.8125 413.271C37.5469 409.422 41.1615 405.464 44.2917 401.099C46.8542 397.526 49.7188 394.245 52.8125 391.104C56.3229 387.542 59.6719 383.792 62.8594 379.932C67.6094 374.172 71.5469 367.844 75.1094 361.297C78.0313 355.943 80.5365 350.406 80.3073 344.115C80.2031 341.026 81.125 337.969 80.2396 334.844C79.474 332.135 78.6615 329.474 76.9271 327.245C74.4427 324.068 71.7813 321.031 69.2761 317.865C64.1302 311.344 58.3594 305.417 52.349 299.687C47.9011 295.453 43.7761 290.891 40.6667 285.568C38.0365 281.073 35.8125 276.339 33.3594 271.74C31.7292 268.682 31.1563 265.458 31.4584 262.042C31.6667 259.682 31.8177 257.318 32.0625 254.964C32.1823 253.724 32.3906 252.484 32.6563 251.26C32.9688 249.88 33.4688 249.625 34.7084 250.255C35.7552 250.792 36.7917 251.401 37.724 252.115C40.6563 254.354 43.5156 256.693 46.4479 258.927C50.1042 261.714 53.1459 264.99 55.1354 269.182C55.4896 269.932 55.9896 270.62 56.4688 271.302C58.7813 274.562 60.599 278.057 61.8438 281.87C64.4375 289.833 67.6771 297.495 72.1042 304.656C74.2917 308.193 76.4375 311.818 77.599 315.88C78.6302 319.495 79.6406 323.115 80.6615 326.729C80.875 327.5 81.1146 328.266 81.4479 329.38C81.974 327.51 82.5313 326.099 82.7552 324.641C83.0104 322.922 83.0886 321.161 83.0469 319.427C82.8802 312.24 82 305.161 80.3542 298.13C77.8073 287.266 74.7761 276.583 70.8854 266.12C69.4427 262.229 68.4323 258.104 67.8125 254C66.9531 248.359 66.4479 242.651 66.1459 236.953C65.6823 228.068 66.5781 219.401 71.4636 211.594C71.7031 211.208 71.7136 210.542 71.5781 210.078C70.8542 207.609 70.099 205.151 69.2761 202.714C67.2969 196.844 65.2552 191 63.2865 185.125C62.9167 184.016 62.5938 182.844 62.5365 181.682C62.3386 177.776 62.5677 173.901 63.474 170.057C64.224 166.875 64.8021 163.651 65.3906 160.432C66.7865 152.833 67.974 145.198 71.0886 138.021C72.9896 133.641 74.9115 129.359 78.9792 126.479C79.4792 126.13 79.8073 125.542 80.25 125.104C83.0104 122.354 85.599 119.401 88.5781 116.922C92.3229 113.812 96.3438 111.031 100.323 108.224C103.792 105.771 107.375 103.505 111.464 102.141C117.208 100.219 122.938 98.2708 128.646 96.2447C132.245 94.9687 135.911 94.4375 139.724 94.6041C147.385 94.9218 155.026 95.3906 162.625 96.4531C163.099 96.5208 163.568 96.6145 163.906 96.6718C164.219 96.0625 164.391 95.7604 164.536 95.4479C166.193 91.8177 166.49 88.2135 164.297 84.677C162.979 82.5468 161.672 80.4114 160.276 78.3281C157.635 74.3906 156.094 70.2135 156.724 65.3593C157.089 62.5312 157.115 59.6614 157.417 56.8229C157.651 54.6822 157.969 52.5312 158.474 50.4479C158.776 49.1875 159.427 47.9895 160.063 46.8437C160.51 46.0416 161.417 46.0677 161.948 46.8177C162.26 47.2656 162.438 47.8125 162.635 48.3281C163.224 49.8958 163.651 51.5416 164.401 53.0156C167.109 58.3437 171.234 62.6041 175.172 67.3333C175.573 66.3645 175.875 65.6823 176.141 64.9791C176.938 62.927 178.177 61.177 179.854 59.7604C181.24 58.5885 182.208 58.8072 182.938 60.4375C183.141 60.8802 183.271 61.3541 183.458 61.802C184.677 64.7239 185.901 67.6458 187.182 70.7031C188.438 69.9427 189.521 69.3281 190.563 68.6406C191.932 67.7448 193.411 67.1145 195.057 67.1406C197.339 67.1718 199.229 66.2395 201.036 64.9948C202.641 63.8854 204.24 62.7656 205.885 61.7239C206.359 61.427 207.25 61.0625 207.49 61.2708C207.932 61.6458 208.229 62.427 208.224 63.0364C208.219 63.9947 207.958 64.9635 207.724 65.9062C206.828 69.5312 206.849 73.2031 207.078 76.9948C207.693 76.9583 208.234 76.9062 208.776 76.8958C209.406 76.8802 210.031 76.8645 210.656 76.901C212.615 77.0312 213.021 77.4843 212.583 79.4062C212.25 80.8489 211.688 82.2448 211.214 83.6979C213.135 83.4218 214.969 83.0781 216.818 82.9218C219.089 82.7343 221.193 82.1458 223.099 80.875C224.484 79.9583 225.891 79.0573 227.333 78.2343C227.682 78.0312 228.354 77.9687 228.63 78.1718C228.917 78.3854 229.026 79.0156 228.979 79.4375C228.906 80.0468 228.458 80.6302 228.453 81.2239C228.422 83.8333 227.297 86.1041 226.172 88.3177C223.813 92.9791 220.25 96.3177 215.135 97.875C211.583 98.9583 207.99 99.6562 204.276 99.8958C201.307 100.083 198.276 100.281 195.922 102.552C194.281 104.125 192.333 105.479 192.255 108.115C192.411 108.271 192.542 108.443 192.708 108.557C199.875 113.547 207.505 117.875 213.906 123.958C217.115 127.016 220.979 129.365 223.698 133.193C223.932 132.672 224.13 132.318 224.255 131.937C225.083 129.5 225.911 127.057 226.708 124.615C227.526 122.115 228.823 119.943 230.76 118.135C234.161 114.948 237.62 111.802 240.88 108.474C245.505 103.75 250.089 98.9687 254.479 94.026C257.24 90.9218 259.63 87.4739 262.167 84.1718C262.953 83.1458 264.094 83.2187 264.589 84.4114C264.771 84.8489 264.818 85.3593 264.839 85.8437C265.068 91.3437 265.099 96.8385 264.245 102.312C263.76 105.406 263.344 108.516 262.958 111.625C262.365 116.359 261.089 120.87 259.214 125.271C257.448 129.427 256.01 133.724 254.448 137.969C253.073 141.698 251.599 145.359 249.135 148.562C247.698 150.437 246.469 152.479 244.995 154.661C245.526 154.562 245.76 154.583 245.906 154.479C248.651 152.615 251.698 151.474 254.818 150.448C255.927 150.083 256.953 149.443 258 148.906C259.49 148.146 260.938 147.312 262.453 146.609C264.604 145.62 266.776 144.693 268.964 143.802C271.24 142.87 273.615 142.359 276.083 142.359C278.104 142.359 280.125 142.297 282.141 142.354C284.224 142.411 286.313 142.542 288.385 142.714C292.198 143.036 296.005 143.417 299.813 143.776C300.714 143.865 301.625 143.917 302.505 144.089C307.349 145.036 312.24 145.812 317.016 147.031C323.182 148.594 329.083 150.891 334.104 155C337.12 157.464 340.339 159.714 342.453 163.104C344.188 165.88 345.932 168.641 347.661 171.417C348.641 172.99 349.599 174.583 350.589 176.203C352.682 175.5 354.578 174.839 356.495 174.224C359.969 173.109 363.51 172.224 366.516 169.932C367.99 168.802 369.781 168.089 371.458 167.245C373.495 166.219 375.328 164.703 376.286 162.833C377.818 159.833 378.672 156.479 379.75 153.25C379.932 152.687 379.901 152 379.807 151.396C379.536 149.677 379.229 147.964 378.849 146.271C378.401 144.271 377.703 142.469 375.781 141.271C374.688 140.594 373.891 139.443 372.979 138.484C371.542 136.974 370.135 135.432 368.698 133.922C364.714 129.745 360.271 126.031 356.708 121.422C351.557 114.75 346.281 108.187 341.969 100.927C339.51 96.7812 337.26 92.5 336.391 87.7135C335.141 80.8645 336.021 74.1302 337.901 67.4791C338.641 64.875 339.396 62.25 339.859 59.5885C340.755 54.4427 342.63 49.6927 345.151 45.1614C346.844 42.125 348.474 39.052 350.109 35.9843C351.318 33.7083 352.411 31.3802 353.682 29.1458C354.432 27.8177 355.385 26.6041 356.328 25.3958C356.521 25.1458 357.115 24.9739 357.401 25.0937C357.698 25.2083 357.938 25.6875 358.026 26.052C358.104 26.3593 357.964 26.7395 357.865 27.0677C357.125 29.4791 357.536 31.7916 358.609 33.9687C361.411 39.6406 364.167 45.3541 367.193 50.9114C369.161 54.5312 370.896 58.2291 372.469 62.026C376.542 71.8645 380.693 81.6718 384.828 91.4791C386.38 95.1562 387.797 98.8906 388.156 102.87C388.781 109.667 389.151 116.479 389.635 123.286C389.672 123.859 389.708 124.432 389.75 125.005C390.276 123.552 390.609 122.125 390.771 120.682C391.255 116.312 392.823 112.344 394.88 108.495C398.526 101.698 403.318 95.9166 409.495 91.2916C410.615 90.4531 410.979 89.3489 410.719 87.9843C410.49 86.7604 410.151 85.5208 410.151 84.2864C410.161 81.2291 410.307 78.1718 410.448 75.1145C410.505 73.8698 410.688 72.6354 410.833 71.2656C409.812 71.2291 408.906 71.2656 408.021 71.1614C403.812 70.6406 399.604 70.0885 395.406 69.5156C395.031 69.4635 394.641 69.1979 394.333 68.9427C392.964 67.7864 393.068 66.7031 394.693 65.901C395.875 65.3177 397.182 64.9739 398.339 64.3541C400.839 62.9947 403.516 61.8177 405.682 60.0312C409.172 57.1718 412.302 53.8697 415.599 50.7708C417.521 48.9635 419.474 47.1875 421.427 45.4114C422.021 44.8645 422.661 44.3697 423.401 43.7552C421.589 43.3697 419.984 42.9375 418.354 42.6979C415.818 42.3281 413.26 42.0312 410.703 41.8072C409.458 41.7031 408.198 41.8906 406.948 41.8541C402.99 41.7343 399.214 41.0416 395.922 38.5781C393.255 36.5781 390.542 34.6302 387.766 32.7864C385.094 31.0156 383.146 28.5781 381.177 26.1458C380.693 25.5468 380.25 24.8489 380.74 24.052C381.245 23.2447 382.068 23.3333 382.807 23.5885C384.12 24.0364 385.438 24.5 386.682 25.1041C390.531 26.9583 394.51 27.4843 398.682 26.5052C400.646 26.052 402.599 25.5156 404.578 25.125C406.812 24.6718 408.802 23.7708 410.573 22.3385C412.63 20.6822 415.026 19.6927 417.594 19.3072C422.667 18.5572 427.297 19.5364 431.052 23.3281C431.458 23.7343 431.948 24.0572 432.323 24.3593C433.896 20.5364 435.464 16.9062 436.906 13.2239C438.396 9.4062 441.141 6.90099 444.854 5.41141C448.016 4.14058 451.219 2.95308 454.422 1.78641C456.396 1.06766 458.448 0.593701 460.568 0.895785C461.365 1.01037 462.156 1.33328 462.88 1.69266C463.552 2.02599 464.432 2.49995 464.068 3.38016C463.865 3.86974 463.031 4.13537 462.443 4.41662C461.885 4.68224 461.281 4.94787 460.672 5.01558C458.312 5.29162 456.859 6.86454 455.438 8.51558C453.729 10.4843 453.396 12.6927 454.26 15.1302C454.49 15.776 454.656 16.4635 454.755 17.1406C455.26 20.302 455.672 23.4739 456.24 26.6197C456.479 27.927 456.406 29.0937 455.786 30.25C455.531 30.7239 455.365 31.2395 455.141 31.7708C456.401 32.2864 457.052 31.3541 457.786 30.8177C460.021 29.1614 462.469 27.9687 465.271 27.9739C468.536 27.9843 471.839 28.0208 474.865 29.5833C475.292 29.8072 475.766 29.9635 476.234 30.0781C480.339 31.0625 483.115 33.8697 485.568 37.0208C487.427 39.4062 488.432 42.2604 489.266 45.151C489.969 47.5677 490.927 49.8489 492.198 52.0416C493.016 53.4635 493.474 55.1041 494.026 56.6666C495.443 60.6614 496.766 64.6927 498.25 68.6614C498.677 69.7968 498.911 70.7968 498.177 71.802C497.792 72.3281 497.302 73.1145 496.807 73.1562C495.786 73.2343 495.901 72.1875 495.708 71.4687C494.818 68.0833 493.292 65.0989 490.302 63.0572C484.083 58.8072 477.036 57.6302 469.771 58.1875C465.276 58.5364 460.823 59.3281 456.25 58.9166C455.344 60.6927 454.948 62.4531 455.312 64.4062C455.573 65.8333 455.672 67.2968 455.781 68.7552C455.88 70.0729 455.75 71.4218 455.969 72.7135C456.682 76.8333 455.698 80.5781 453.698 84.1406C451.833 87.4739 449.979 90.8177 448.109 94.151C447.87 94.5677 447.599 94.9843 447.292 95.3593C443.234 100.224 438.385 104.057 432.578 106.672C431.797 107.026 430.958 107.588 430.51 108.292C429.146 110.427 428.24 112.833 428.193 115.354C428.146 117.557 427.396 119.411 426.427 121.276C425.469 123.12 424.49 124.969 423.651 126.87C421.484 131.797 418.922 136.479 415.615 140.74C413.646 143.286 412.167 146.109 410.917 149.083C409.953 151.38 408.693 153.552 407.583 155.792C407.474 156.01 407.495 156.297 407.391 156.901C408.589 156.51 409.599 156.281 410.521 155.854C414.37 154.052 418.01 151.87 421.432 149.344C424.599 147.01 426.771 144.094 426.911 139.974C427.01 137.089 428.146 134.542 429.818 132.266C431.255 130.307 432.792 128.406 434.443 126.625C436.76 124.12 439.25 121.776 441.615 119.318C444.125 116.703 447.062 114.812 450.484 113.635C455.448 111.932 455.474 111.932 457.255 107.021C457.995 104.969 458.865 103 460.276 101.338C461.63 99.75 463.016 98.1718 464.505 96.7135C467.76 93.526 471.526 91.2604 476.151 90.6614C480.177 90.1354 483.516 91.3177 486.115 94.4947C486.417 94.8697 486.802 95.1875 487.188 95.4791C488.844 96.7395 490.484 98.0312 492.198 99.2083C494.089 100.51 495.167 102.323 495.646 104.495C495.995 106.094 496.708 107.474 497.568 108.844C499.073 111.245 500.005 113.87 499.839 116.75C499.734 118.615 499.49 120.479 499.224 122.328C498.745 125.693 497.161 128.422 494.74 130.839C490.906 134.672 486.318 136.984 481.089 138.016C476.922 138.839 472.693 139.328 468.51 140.057C467.24 140.281 465.958 140.672 464.807 141.229C462.38 142.411 460.099 143.901 457.635 144.995C455.292 146.036 452.833 146.896 450.349 147.536C447.536 148.271 444.656 148.927 441.771 149.146C438.464 149.401 435.104 148.75 431.786 149.328C430.849 149.49 429.875 149.635 429.031 150.021C428.026 150.474 427.099 151.125 426.219 151.802C422.63 154.557 419.12 157.417 414.927 159.25C414.859 159.276 414.859 159.437 414.76 159.74C419.74 158.932 424.62 158.182 429.479 157.307C430.901 157.052 432.307 156.547 433.651 155.99C437.818 154.26 442.188 153.484 446.635 153.031C451.109 152.573 455.536 152.656 459.88 153.99C463.333 155.057 466.781 156.172 470.271 157.12C476.443 158.802 482.641 160.375 488.833 161.99C489.406 162.141 490.016 162.37 489.833 163.052C489.745 163.375 489.161 163.76 488.781 163.781C485.979 163.927 483.552 165.146 481.073 166.25C475.542 168.719 470.01 171.182 464.458 173.594C459.938 175.562 455.167 176.708 450.266 176.729C444.516 176.755 438.896 175.635 433.646 173.156C431.135 171.964 428.76 170.495 426.276 169.25C421.844 167.031 417.255 165.281 412.37 164.245C408.917 163.51 405.547 162.339 402.016 163.745C401.896 163.792 401.734 163.76 401.609 163.802C399.104 164.62 396.417 164.87 394.13 166.349C389.854 169.104 385.146 170.703 380.172 171.661C376.62 172.344 373.057 173.094 369.771 174.687C365.708 176.661 361.656 178.677 357.604 180.682C356.25 181.354 354.901 182.052 353.583 182.724C354.953 187.052 356.271 191.208 357.604 195.422C360.464 195.635 362.719 194.5 365.016 193.516Z" fill="#7ED957"/>
</g>
</svg>
