<svg width="389" height="453" viewBox="0 0 389 453" fill="none" xmlns="http://www.w3.org/2000/svg">
<path d="M385.34 446.555C383.934 447.399 381.715 449.592 382.424 451.493C383.168 453.493 386.267 451.024 386.851 450.16C389.226 446.649 387.986 445.868 385.299 443.05C379.689 437.16 373.991 431.758 367.522 426.805C364.507 424.498 361.668 422.076 359.101 419.274C357.101 417.092 354.496 416.092 353.095 413.337C351.892 410.962 350.731 409.451 349.272 407.092C348.47 405.795 348.799 402.977 348.736 401.529C348.444 394.956 348.069 388.394 348.715 381.852C350.418 364.618 350.424 347.206 351.637 329.93C352.616 315.941 354.517 301.821 356.913 288.008C358.288 280.107 360.049 272.123 362.866 264.592C363.267 263.514 367.007 259.764 364.741 258.894C361.95 257.821 357.788 262.446 356.684 264.248C354.83 267.29 354.127 271.258 353.267 274.649C350.059 287.305 347.913 300.227 345.377 313.029C341.996 330.081 339.549 346.597 340.502 364.076C340.97 372.675 340.522 381.347 341.257 389.92C341.736 395.477 341.392 406.337 345.96 410.54C346.304 410.857 347.095 410.05 346.757 409.743C342.174 405.524 342.71 395.16 342.189 389.472C341.522 382.16 342.434 374.842 341.726 367.54C340.127 351.003 341.554 334.04 345.226 317.868C347.377 308.41 348.95 298.816 350.877 289.311C351.882 284.326 352.955 279.357 354.168 274.425C355.21 270.212 356.085 265.732 359.059 262.451C360.371 261.587 361.684 260.727 362.996 259.863C364.007 260.092 364.314 260.394 363.929 260.769C363.283 261.852 363.2 262.003 362.627 263.191C361.45 265.644 360.72 268.373 359.944 270.967C357.486 279.201 356.002 287.727 354.72 296.212C352.934 308.05 351.403 320.055 350.595 332.008C349.444 349.035 349.825 366.404 347.674 383.337C347.174 387.264 347.424 391.248 347.549 395.206C347.658 398.654 346.549 406.019 349.106 408.91C351.356 411.451 351.955 414.66 354.45 416.915C357.981 420.102 361.491 423.441 365.215 426.43C369.142 429.581 373.142 432.514 376.793 435.998C378.559 437.68 380.314 439.357 382.012 441.102C383.054 442.17 387.845 445.878 385.59 447.232C386.09 446.93 385.976 446.175 385.34 446.555Z" fill="#FF3131"/>
<path d="M326.736 388.582C332.809 397.998 338.647 406.342 348.522 412.061C348.892 412.274 349.616 411.425 349.163 411.165C339.335 405.472 333.569 397.144 327.533 387.785C327.303 387.42 326.475 388.181 326.736 388.582Z" fill="#FF3131"/>
<path d="M364.736 259.894C356.533 265.972 354.794 278.212 352.544 287.53C349.497 300.118 345.559 312.483 342.851 325.155C342.71 325.811 343.664 325.353 343.752 324.931C345.96 314.608 348.872 304.42 351.617 294.233C354.445 283.733 355.648 267.488 364.986 260.571C365.445 260.228 365.341 259.446 364.736 259.894Z" fill="#FF3131"/>
<path d="M342.851 325.155C341.288 332.227 341.695 339.92 341.721 347.102C341.747 356.477 342.044 365.878 342.794 375.222C343.346 382.087 342.882 389.248 343.867 396.03C344.038 397.217 347.002 413.774 350.268 409.144C350.7 408.53 349.924 408.42 349.59 408.894C348.794 410.024 347.21 405.155 347.09 404.8C346.054 401.712 345.195 398.332 344.726 395.113C344.252 391.852 344.497 388.384 344.445 385.102C344.361 379.457 343.601 373.858 343.278 368.222C342.82 360.139 342.643 352.035 342.648 343.941C342.648 337.712 342.403 331.045 343.752 324.925C343.898 324.274 342.945 324.733 342.851 325.155Z" fill="#FF3131"/>
<path d="M343.58 422.55C347.595 424.639 351.699 425.847 355.189 428.883C359.158 432.352 363.043 435.878 367.132 439.212C371.132 442.482 375.147 445.727 378.996 449.175C380.335 450.373 381.741 451.883 383.58 452.144C384.001 452.206 384.611 451.3 384.027 451.217C381.147 450.805 377.569 446.394 375.543 444.67C372.027 441.675 368.397 438.816 364.835 435.878C361.293 432.962 357.975 429.821 354.522 426.811C351.652 424.311 347.543 423.383 344.22 421.649C343.84 421.451 343.121 422.305 343.58 422.55Z" fill="#FF3131"/>
<path d="M356.892 432.472C344.116 428.087 329.903 427.92 316.528 427.139C310.674 426.8 305.012 426.212 299.132 426.649C292.361 427.149 285.596 428.493 278.882 429.472C264.559 431.561 250.168 432.54 235.83 434.368C227.71 435.405 219.898 437.42 211.877 438.858C208.694 439.431 213.059 435.759 214.309 435.306C216.408 434.54 218.674 434.196 220.872 433.858C226.038 433.061 231.273 433.342 236.46 432.634C253.934 430.254 271.403 428.233 288.96 426.368C299.731 425.222 310.372 425.425 321.174 426.05C331.788 426.665 342.929 427.217 353.111 430.519C356.491 431.618 359.663 433.186 362.471 435.379C362.846 435.67 363.622 434.853 363.273 434.577C355.601 428.603 345.507 427.353 336.137 426.311C324.898 425.061 313.502 424.452 302.194 424.535C287.929 424.644 273.658 427.42 259.46 428.587C251.788 429.217 244.288 430.571 236.684 431.733C231.502 432.524 226.288 432.259 221.096 432.957C219.382 433.186 207.033 435.097 209.95 439.618C210.892 441.077 220.663 437.722 221.84 437.483C235.382 434.702 249.205 434.259 262.892 432.55C276.939 430.795 291.309 427.264 305.486 427.337C312.622 427.373 320.059 427.967 327.163 428.577C336.825 429.399 347.075 430.217 356.252 433.368C356.668 433.509 357.366 432.634 356.892 432.472Z" fill="#FF3131"/>
<path d="M219.33 437.998C237.001 436.373 254.715 435.285 272.429 434.165C284.673 433.389 296.923 432.056 309.194 431.946C320.007 431.852 330.845 432.175 341.621 433.076C346.725 433.498 351.876 434.071 356.845 435.347C360.673 436.332 364.871 440.941 368.741 440.451C369.147 440.399 369.731 439.451 369.189 439.519C366.955 439.8 364.986 437.79 363.142 436.727C361.121 435.561 358.903 434.816 356.653 434.233C352.324 433.123 347.793 432.686 343.361 432.259C332.173 431.181 320.876 430.951 309.642 431.014C298.048 431.082 286.47 432.363 274.908 433.102C256.517 434.279 238.126 435.384 219.772 437.066C219.361 437.102 218.772 438.045 219.33 437.998Z" fill="#FF3131"/>
<path d="M347.564 423.279C345.174 420.415 344.356 417.607 340.882 415.727C337.762 414.04 333.554 413.883 330.085 413.508C320.023 412.42 309.903 411.753 299.799 411.17C278.523 409.946 257.064 411.477 236.21 416.04C221.356 419.29 206.304 421.628 191.533 425.279C183.169 427.347 174.788 429.79 166.971 433.467C162.835 435.41 157.205 438.373 155.575 443.024C155.2 444.102 155.059 445.102 155.148 446.243C155.169 446.436 155.32 446.519 155.502 446.472C173.794 441.758 191.934 436.493 210.346 432.264C224.731 428.956 239.189 427.123 253.846 425.613C268.778 424.076 283.731 422.717 298.7 421.597C305.71 421.071 312.721 420.701 319.747 420.524C326.517 420.352 335.82 419.3 342.116 422.389C342.507 422.581 343.226 421.722 342.762 421.493C339.189 419.743 334.695 419.779 330.825 419.618C323.299 419.3 315.715 419.649 308.205 420.061C297.991 420.613 287.799 421.54 277.611 422.451C255.122 424.456 232.632 426.378 210.575 431.357C195.392 434.779 180.408 439.003 165.382 443.029C164.648 443.227 156.054 445.441 156.038 445.264C155.913 443.732 156.627 442.285 157.471 441.066C159.669 437.894 163.627 435.925 166.981 434.285C182.783 426.545 201.294 423.592 218.481 420.566C240.299 416.722 261.971 411.128 284.32 411.477C296.252 411.665 308.195 412.571 320.085 413.555C324.767 413.941 329.46 414.342 334.122 414.977C337.361 415.42 340.46 416.279 342.95 418.498C344.622 419.988 345.33 422.363 346.762 424.076C347.054 424.425 347.866 423.644 347.564 423.279Z" fill="#FF3131"/>
<path d="M155.855 446.259C165.595 436.238 179.741 436.071 192.756 434.389C202.902 433.076 213.027 431.404 223.095 429.597C223.517 429.519 223.98 428.576 223.319 428.691C211.689 430.785 199.986 432.701 188.251 434.061C176.168 435.456 164.262 436.644 155.376 445.779C154.897 446.269 155.376 446.753 155.855 446.259Z" fill="#FF3131"/>
<path d="M345.866 420.733C341.819 415.477 331.314 416.665 325.621 416.878C315.736 417.253 305.866 418.41 296.002 419.139C277.418 420.519 259.116 423.29 240.72 426.155C240.288 426.222 239.83 427.165 240.496 427.061C258.408 424.264 276.278 421.363 294.392 420.155C303.335 419.556 312.257 418.675 321.2 418.035C327.616 417.582 340.549 415.665 345.069 421.53C345.34 421.884 346.158 421.108 345.866 420.733Z" fill="#FF3131"/>
<path d="M382.799 440.394C382.565 436.832 379.559 434.816 377.127 432.436C374.486 429.842 371.96 427.613 370.408 424.134C368.627 420.144 366.924 416.087 365.195 412.071C358.773 397.123 357.122 379.056 357.684 362.962C358.148 349.618 360.71 335.847 366.502 323.733C367.945 320.707 369.789 317.899 372.111 315.477C373.216 314.326 374.856 313.878 375.872 312.738C376.278 312.285 376.205 311.649 375.622 311.384C372.117 309.774 368.309 315.165 366.794 317.399C361.533 325.165 359.273 334.727 357.721 343.837C355.726 355.514 354.664 367.441 355.007 379.285C355.341 390.592 358.664 401.67 361.492 412.55C362.83 417.691 364.278 426.118 369.07 429.363C369.419 429.597 370.091 429.029 369.919 428.644C369.648 428.118 369.606 427.545 369.783 426.92C370.236 426.316 369.455 426.212 369.111 426.67C368.679 427.253 368.242 427.66 368.627 428.451C369.174 429.576 369.611 428.425 368.882 427.779C367.976 426.977 367.403 425.826 366.835 424.785C364.179 419.962 362.955 414.196 361.622 408.904C358.57 396.826 355.783 385.243 355.877 372.701C355.971 360.832 357.408 348.837 359.82 337.227C360.903 331.993 362.747 326.977 364.992 322.134C366.539 318.79 369.69 312.295 374.132 312.087C375.33 312.029 375.122 312.342 374.361 312.842C372.684 313.957 371.335 315.243 370.023 316.774C367.049 320.253 365.122 324.644 363.45 328.852C359.085 339.8 357.351 351.701 356.752 363.41C355.976 378.79 358.408 394.524 362.966 409.201C364.08 412.785 365.835 416.191 367.382 419.602C368.575 422.217 369.289 425.389 371.065 427.686C374.059 431.576 381.528 435.681 381.872 440.842C381.908 441.425 382.83 440.816 382.799 440.394Z" fill="#FF3131"/>
<path d="M375.256 312.587C376.736 313.738 374.324 318.847 373.98 320.415C373.158 324.144 372.574 327.946 371.934 331.712C370.496 340.118 369.329 348.566 368.152 357.009C365.22 378.045 362.418 398.561 367.355 419.545C367.465 420.009 368.355 419.331 368.251 418.904C362.819 395.816 366.751 373.055 370.017 349.962C371.147 341.956 372.366 333.967 373.798 326.009C374.517 322.014 375.173 318.055 376.663 314.259C377.111 313.118 377.027 312.545 376.053 311.79C375.678 311.498 374.902 312.311 375.256 312.587Z" fill="#FF3131"/>
<path d="M365.314 396.587C361.341 371.805 365.919 346.446 371.221 322.175C371.356 321.545 370.492 321.936 370.361 322.279C365.471 335.17 363.981 349.962 362.268 363.587C360.497 377.717 361.94 391.983 364.95 405.847C365.049 406.311 365.939 405.634 365.846 405.206C360.367 379.956 362.841 354.649 368.872 329.67C369.148 328.519 370.528 321.326 369.502 326.201C368.669 330.175 367.96 334.175 367.278 338.18C366.367 343.571 365.455 348.972 364.611 354.373C362.387 368.561 362.106 382.837 364.382 397.035C364.476 397.618 365.382 397.003 365.314 396.587Z" fill="#FF3131"/>
<path d="M355.788 430.363C349.366 426.904 343.174 423.082 336.544 420.014C336.148 419.832 335.439 420.696 335.903 420.91C342.533 423.977 348.726 427.8 355.148 431.264C355.528 431.467 356.247 430.613 355.788 430.363Z" fill="#FF3131"/>
<path d="M276.82 380.42C273.684 384.061 263.179 376.477 260.195 374.805C254.101 371.404 248.158 368.779 241.559 366.498C231.606 363.045 221.611 360.357 211.184 358.857C190.544 355.904 169.846 356.024 149.039 356.363C142.596 356.467 136.158 356.613 129.721 356.816C128.867 356.842 129.539 357.701 131.195 357.529C133.32 357.311 135.445 357.118 137.575 356.925C141.528 356.571 145.481 356.29 149.44 356.035C156.71 355.571 163.997 355.347 171.278 355.316C191.283 355.243 211.091 357.378 230.492 362.285C238.164 364.222 245.747 366.519 253.216 369.118C258.825 371.071 264.934 373.107 269.83 376.561C270.221 376.837 270.986 376.014 270.627 375.764C262.049 369.712 250.513 366.904 240.601 363.977C229.049 360.571 217.299 357.91 205.351 356.404C180.138 353.227 154.669 354.227 129.445 356.826C129.065 356.868 128.408 357.774 129.002 357.758C151.565 357.118 174.492 356.014 197.007 358.05C212.106 359.41 226.585 362.493 240.919 367.394C249.231 370.232 256.455 374.107 264.169 378.243C267.632 380.097 273.83 384.93 277.299 380.899C277.742 380.389 277.273 379.894 276.82 380.42Z" fill="#FF3131"/>
<path d="M265.221 372.759C254.231 364.691 241.726 358.238 229.148 353.04C219.002 348.847 207.45 347.347 196.643 345.941C181.08 343.92 165.247 343.353 149.601 344.649C138.637 345.561 126.57 346.41 116.919 352.16C112.679 354.686 108.038 359.467 114.872 361.483C122.439 363.722 131.226 362.748 139.023 362.613C154.038 362.342 168.986 362.144 183.95 363.639C195.195 364.759 206.268 365.842 217.538 366.712C230.2 367.696 242.799 369.639 255.002 373.196C255.429 373.316 256.111 372.436 255.643 372.295C241.851 368.28 227.632 366.41 213.33 365.446C202.372 364.712 191.627 363.358 180.689 362.353C166.294 361.03 151.82 361.462 137.387 361.717C129.825 361.853 120.439 363.03 113.408 359.816C106.856 356.827 125.288 349.311 127.45 348.722C133.507 347.082 139.84 346.504 146.059 345.884C160.976 344.394 175.945 344.743 190.846 346.254C202.908 347.478 215.262 349.332 226.768 353.285C239.903 357.801 253.268 365.368 264.424 373.556C264.809 373.837 265.58 373.019 265.221 372.759Z" fill="#FF3131"/>
<path d="M325.715 413.087C322.637 411.957 319.684 409.957 316.82 408.4C312.82 406.222 308.2 404.186 304.7 401.233C302.637 399.498 301.283 397.248 298.965 395.623C296.465 393.863 293.877 392.17 291.226 390.644C285.491 387.337 279.533 384.384 273.606 381.446C273.215 381.254 272.497 382.113 272.96 382.342C278.596 385.134 284.101 388.123 289.663 391.045C293.012 392.801 296.179 395.019 299.273 397.191C301.387 398.681 302.523 401.04 304.523 402.519C310.403 406.863 318.205 411.462 325.075 413.983C325.486 414.134 326.184 413.259 325.715 413.087Z" fill="#FF3131"/>
<path d="M326.996 364.592C320.074 370.467 319.694 380.274 320.621 388.675C321.803 399.378 328.105 407.733 335.439 415.149C335.704 414.884 335.975 414.613 336.236 414.347C327.184 408.337 321.345 401.003 319.725 390.05C318.944 384.774 319.501 379.326 320.642 374.16C321.111 372.04 321.965 370.217 323.085 368.363C327.241 365.847 328.767 366.165 327.663 369.311C327.486 370.123 327.282 370.92 327.059 371.717C324.96 379.639 326.376 386.634 327.918 394.54C328.897 399.55 330.626 403.712 333.189 408.108C335.012 411.233 338.803 413.441 340.277 416.509C340.501 416.972 341.366 416.259 341.178 415.868C340.413 414.285 339.001 413.55 337.741 412.337C335.012 409.712 333.267 406.113 331.506 402.811C328.225 396.655 326.996 387.399 326.678 380.576C326.454 375.748 328.418 371.535 328.892 366.842C329.059 365.181 327.814 363.821 326.116 364.691C319.288 368.181 318.605 378.488 318.465 385.087C318.184 398.316 324.715 408.024 335.439 415.149C335.814 415.399 336.579 414.691 336.241 414.352C330.465 408.514 324.725 401.884 322.559 393.722C320.204 384.873 319.631 371.727 327.246 365.264C327.673 364.899 327.574 364.102 326.996 364.592Z" fill="#FF3131"/>
<path d="M321.918 398.774C316.21 391.144 309.554 383.602 303.054 376.644C301.793 375.3 297.496 372.644 296.111 375.206C295.127 377.019 296.439 379.243 297.267 380.842C299.725 385.587 303.507 389.785 306.887 393.894C313.595 402.05 322.34 409.024 331.257 414.613C331.616 414.837 332.345 413.993 331.903 413.712C324.986 409.378 318.548 404.191 312.684 398.524C306.877 392.92 300.507 385.628 297.22 378.248C295.767 374.988 298.314 374.92 300.475 376.081C302.434 377.139 303.58 379.134 304.939 380.805C310.158 387.212 316.168 392.951 321.121 399.576C321.387 399.93 322.205 399.16 321.918 398.774Z" fill="#FF3131"/>
<path d="M328.272 408.139C319.793 401.462 309.637 393.279 304.381 383.555C304.084 383.003 303.1 383.102 303.532 383.639C304.428 384.732 305.251 385.889 306.147 386.982C308.298 389.613 310.657 392.076 313.022 394.514C316.621 398.227 320.319 401.868 324.246 405.227C324.605 405.534 325.392 404.727 325.048 404.43C321.428 401.337 318.069 398.003 314.72 394.628C312.725 392.623 310.793 390.555 308.897 388.451C307.355 386.732 305.887 383.883 304.048 382.55C303.834 382.394 303.579 382.55 303.413 382.706C299.887 385.993 325.777 407.597 327.475 408.935C327.85 409.232 328.626 408.415 328.272 408.139Z" fill="#FF3131"/>
<path d="M321.928 370.191C320.027 360.363 319.236 350.357 316.887 340.613C314.756 331.795 312.449 322.154 307.34 314.535C300.178 303.852 281.652 300.618 273.574 311.592C271.111 314.946 278.413 321.42 280.069 323.691C285.355 330.941 289.954 338.717 294.637 346.363C298.85 353.248 303.079 360.118 307.189 367.061C311.569 374.472 316.059 381.165 318.684 389.43C318.829 389.904 319.71 389.212 319.579 388.79C315.475 375.847 306.996 364.43 299.939 352.93C293.225 341.993 286.991 330.217 278.829 320.269C275.402 316.087 272.085 312.451 277.975 308.076C281.97 305.102 287.527 305.331 292.131 306.3C300.293 308.019 306.152 313.456 309.6 320.826C316.902 336.451 317.809 354.17 321.027 370.837C321.116 371.295 322.012 370.623 321.928 370.191Z" fill="#FF3131"/>
<path d="M274.215 313.42C274.408 311.519 279.345 313.217 280.46 313.363C281.324 313.472 282.548 312.504 283.173 312.134C289.939 308.129 295.554 307.681 302.564 311.352C302.944 311.556 303.663 310.696 303.205 310.457C296.559 306.972 290.481 306.644 284.142 310.691C280.387 313.087 277.882 310.415 274.423 311.384C273.387 311.675 273.366 313.071 273.283 313.868C273.225 314.42 274.173 313.832 274.215 313.42Z" fill="#FF3131"/>
<path d="M320.611 374.092C316.382 364.628 311.454 355.42 306.855 346.134C304.71 341.795 302.595 337.431 300.355 333.134C299.137 330.795 297.835 328.493 296.501 326.217C294.658 323.082 292.496 318.415 289.715 316.128C289.335 315.816 288.803 316.488 288.871 316.847C289.09 318.097 290.46 319.665 291.074 320.743C293.314 324.696 295.444 328.712 297.533 332.743C305.147 347.451 311.465 362.79 319.152 377.457C319.392 377.915 320.246 377.196 320.048 376.816C311.309 360.139 304.152 342.691 295.262 326.082C293.564 322.899 291.772 319.769 289.986 316.639C289.913 316.509 289.835 316.373 289.772 316.238C288.965 316.457 288.71 316.722 289.012 317.03C289.486 317.644 289.954 318.274 290.402 318.915C293.34 322.899 295.876 327.181 298.241 331.524C305.892 345.561 313.189 360.139 319.71 374.733C319.918 375.201 320.788 374.488 320.611 374.092Z" fill="#FF3131"/>
<path d="M297.126 374.597C289.277 365.477 284.054 354.733 277.663 344.639C277.382 344.191 276.543 344.92 276.767 345.279C283.194 355.436 288.434 366.222 296.33 375.394C296.621 375.738 297.434 374.956 297.126 374.597Z" fill="#FF3131"/>
<path d="M309.356 395.071C292.929 387.149 278.918 375.732 267.101 361.909C259.33 352.821 253.075 342.717 246.481 332.79C246.241 332.43 245.418 333.191 245.684 333.587C252.554 343.93 259.137 354.326 267.231 363.795C278.736 377.248 292.767 388.279 308.715 395.972C309.106 396.159 309.825 395.295 309.356 395.071Z" fill="#FF3131"/>
<path d="M320.038 392.311C311.746 380.076 303.179 368.055 294.486 356.113C294.225 355.758 293.403 356.524 293.684 356.91C302.382 368.852 310.949 380.873 319.236 393.107C319.481 393.467 320.304 392.706 320.038 392.311Z" fill="#FF3131"/>
<path d="M296.549 356.118C296.465 358.097 292.976 354.665 292.819 354.488C290.767 352.212 288.762 350.004 286.491 347.941C282.434 344.254 277.762 341.28 273.002 338.597C262.575 332.733 250.767 329.16 239.153 326.519C221.897 322.592 204.616 322.014 187.012 323.248C185.674 323.342 184.33 323.446 182.991 323.556C181.621 323.066 180.788 323.379 180.481 324.483C184.507 323.811 188.559 323.327 192.616 322.91C198.767 322.29 204.955 322.108 211.132 322.222C222.663 322.431 234.075 324.358 245.22 327.248C255.153 329.821 264.799 332.998 273.882 337.795C281.387 341.769 291.793 346.998 296.424 354.587C296.694 355.035 297.543 354.311 297.319 353.946C293.345 347.431 285.147 342.972 278.746 339.248C269.293 333.743 259.465 330.191 248.981 327.202C225.804 320.587 202.283 319.988 178.569 323.936C178.226 323.993 177.689 324.899 178.231 324.853C200.918 322.879 222.653 323.16 244.799 328.957C258.996 332.67 272.809 338.254 284.309 347.551C285.554 348.561 297.168 363.087 297.481 355.67C297.502 355.108 296.564 355.702 296.549 356.118Z" fill="#FF3131"/>
<path d="M293.616 349.806C286.309 337.524 273.392 330.061 260.658 324.389C247.132 318.368 232.33 314.613 217.621 313.066C202.835 311.509 188.095 313.67 173.97 318.118C170.043 319.353 147.262 326.035 152.783 333.045C152.944 333.254 153.293 332.998 153.418 332.889C162.319 325.16 174.861 321.436 186.069 318.67C197.741 315.785 208.97 315.233 220.83 316.712C246.72 319.946 268.835 329.962 288.548 346.879C288.902 347.186 289.689 346.373 289.345 346.077C270.663 330.045 249.684 319.863 225.137 316.295C203.048 313.092 180.626 316.582 160.746 327.097C158.929 328.061 157.189 329.17 155.501 330.347C154.887 330.78 154.267 331.259 153.699 331.754C154.595 330.024 155.491 328.295 156.387 326.566C157.236 326.087 158.09 325.623 158.949 325.17C165.554 321.629 172.658 319.228 179.85 317.202C192.205 313.712 205.262 312.743 218.007 314.082C231.85 315.54 245.496 319.3 258.356 324.577C271.559 329.993 285.251 337.899 292.72 350.446C292.986 350.894 293.835 350.17 293.616 349.806Z" fill="#FF3131"/>
<path d="M153.184 333.055C164.481 327.305 178.366 326.071 190.882 325.55C201.679 325.102 212.392 327.008 222.991 328.826C245.522 332.701 269.298 339.524 288.83 351.753C289.184 351.982 289.913 351.139 289.47 350.857C269.851 338.576 246.064 331.811 223.439 327.899C211.783 325.883 200.231 324.097 188.371 324.764C176.575 325.42 163.804 326.826 153.173 332.238C152.752 332.456 152.528 333.389 153.184 333.055Z" fill="#FF3131"/>
<path d="M299.434 382.3C286.351 370.045 275.856 355.327 266.674 339.993C266.408 339.545 265.559 340.274 265.778 340.639C274.991 356.024 285.507 370.795 298.637 383.103C298.976 383.42 299.767 382.618 299.434 382.3Z" fill="#FF3131"/>
<path d="M306.882 393.878C290.277 377.957 275.34 359.102 264.069 338.998C263.814 338.545 262.965 339.264 263.173 339.639C274.475 359.805 289.428 378.707 306.085 394.675C306.423 394.998 307.215 394.201 306.882 393.878Z" fill="#FF3131"/>
<path d="M267.814 327.832C255.512 311.905 245.637 294.373 235.611 276.977C230.403 267.941 225.075 258.227 217.783 250.712C216.564 249.462 213.7 246.837 212.059 248.998C208.695 253.415 210.58 259.946 211.898 264.785C216.939 283.269 227.018 299.681 234.913 316.931C235.127 317.399 235.997 316.686 235.814 316.29C232.309 308.644 227.84 301.488 224.408 293.8C221.288 286.8 218.335 279.66 215.601 272.503C213.21 266.233 209.221 257.108 211.955 250.42C213.866 245.743 222.408 258.134 223.325 259.431C239.111 281.743 250.236 306.894 267.018 328.628C267.288 328.983 268.106 328.212 267.814 327.832Z" fill="#FF3131"/>
<path d="M255.569 322.321C242.616 303.587 231.09 283.915 219.793 264.155C219.538 263.701 218.731 264.399 218.897 264.795C227.481 285.108 240.33 303.431 252.012 322.03C252.293 322.472 253.137 321.743 252.913 321.389C243.34 306.149 233.423 291.144 225.043 275.196C223.944 273.102 222.897 270.983 221.882 268.847C221.507 268.05 221.142 267.248 220.783 266.446C219.314 263.201 220.903 268.3 221.116 268.67C225.09 275.602 229.121 282.498 233.22 289.358C240.064 300.821 247.174 312.134 254.772 323.118C255.017 323.477 255.84 322.717 255.569 322.321Z" fill="#FF3131"/>
<path d="M282.538 377.556C271.121 369.832 258.856 363.139 248.142 354.42C239.475 347.368 230.975 339.509 223.929 330.826C223.642 330.477 222.83 331.259 223.132 331.628C230.205 340.337 238.72 348.066 247.34 355.217C257.96 364.024 270.345 370.644 281.741 378.358C282.137 378.623 282.897 377.8 282.538 377.556Z" fill="#FF3131"/>
<path d="M220.96 328.373C222.57 330.977 224.439 333.404 226.252 335.868C227.491 337.555 231.971 342.509 230.689 344.608C230.304 345.248 231.059 345.358 231.366 344.858C232.715 342.634 231.247 340.863 229.809 339.05C226.997 335.503 224.236 331.581 221.856 327.733C221.58 327.285 220.736 328.014 220.96 328.373Z" fill="#FF3131"/>
<path d="M225.934 341.108C224.293 339.655 223.137 337.254 221.996 335.436C220.231 332.618 218.533 329.759 216.845 326.894C216.58 326.446 215.736 327.17 215.949 327.535C217.637 330.405 219.345 333.254 221.1 336.077C222.288 337.983 223.439 340.405 225.137 341.905C225.486 342.217 226.272 341.41 225.934 341.108Z" fill="#FF3131"/>
<path d="M207.809 312.701C200.611 300.925 195.918 288.087 191.486 275.066C189.158 268.217 186.981 261.316 185.007 254.357C184.069 251.05 183.205 247.722 182.351 244.394C181.877 242.54 181.424 240.686 180.97 238.831C180.642 237.498 180.319 236.159 180.002 234.826C178.819 233.899 178.538 234.034 179.158 235.238C183.023 248.133 187.72 260.8 192.142 273.519C197.043 287.628 202.106 301.18 210.762 313.493C211.012 313.852 211.835 313.087 211.559 312.696C202.257 299.462 197.179 284.779 191.913 269.644C187.653 257.394 183.127 245.175 179.502 232.712C179.361 232.232 178.502 232.941 178.601 233.357C185.033 260.43 192.278 289.394 206.913 313.342C207.184 313.795 208.033 313.066 207.809 312.701Z" fill="#FF3131"/>
<path d="M222.183 335.806C217.095 333.248 212.392 329.649 208.423 325.571C208.1 325.243 207.298 326.035 207.626 326.373C211.642 330.493 216.392 334.118 221.543 336.701C221.928 336.899 222.647 336.04 222.183 335.806Z" fill="#FF3131"/>
<path d="M198.512 313.056C184.674 294.493 177.559 272.483 173.038 250.061C171.122 240.55 168.716 230.764 169.492 220.998C169.788 217.295 172.689 208.728 177.038 213.629C179.564 216.467 181.169 220.353 182.742 223.769C196.179 252.91 201.96 284.78 215.716 313.733C215.934 314.202 216.799 313.483 216.611 313.092C207.341 293.577 202.195 272.988 195.158 252.675C192.544 245.134 190.028 237.42 186.684 230.16C183.976 224.28 181.877 217.983 177.835 212.832C174.429 208.478 170.929 213.123 169.538 216.728C166.439 224.78 169.111 235.155 170.653 243.269C175.403 268.337 182.226 293.077 197.716 313.858C197.976 314.212 198.799 313.441 198.512 313.056Z" fill="#FF3131"/>
<path d="M288.288 342.462C279.497 326.16 269.538 309.003 265.413 290.795C265.309 290.332 264.418 291.009 264.517 291.436C268.642 309.644 278.601 326.8 287.392 343.102C287.637 343.561 288.491 342.842 288.288 342.462Z" fill="#FF3131"/>
<path d="M266.548 288.285C265.21 288.087 263.876 287.883 262.538 287.686C262.132 286.915 261.71 286.165 261.262 285.42C260.47 284.045 259.6 282.717 258.746 281.383C256.689 278.175 254.481 275.076 252.027 272.16C245.705 264.639 238.741 257.743 231.194 251.456C230.83 251.154 230.048 251.967 230.397 252.253C240.408 260.592 249.746 269.998 257.053 280.821C258.923 283.592 261.527 291.3 265.559 291.654C267.428 291.821 267.553 288.899 267.475 287.837C267.434 287.258 266.517 287.868 266.548 288.285Z" fill="#FF3131"/>
<path d="M260.106 283.592C257.861 283.034 255.538 278.498 254.231 276.847C250.122 271.639 245.59 266.821 240.663 262.378C226.549 249.659 208.273 239.467 189.283 236.93C188.866 236.873 188.252 237.784 188.835 237.857C208.715 240.514 227.314 251.555 241.861 264.998C246.45 269.238 250.554 273.956 254.398 278.873C255.575 280.378 257.418 283.982 259.465 284.493C259.892 284.597 260.575 283.712 260.106 283.592Z" fill="#FF3131"/>
<path d="M266.762 284.54C259.731 269.04 246.752 254.852 231.892 246.529C224.549 242.415 216.767 239.014 208.887 236.066C201.981 233.488 194.46 231.05 187.002 231.222C186.585 231.232 185.986 232.165 186.554 232.149C201.054 231.821 216.559 239.717 229.106 246.269C244.788 254.456 258.564 269.081 265.866 285.18C266.075 285.649 266.939 284.936 266.762 284.54Z" fill="#FF3131"/>
<path d="M266.955 285.894C260.841 282.306 256.778 274.082 252.163 268.764C247.856 263.806 242.788 259.79 237.497 255.931C222.971 245.326 206.986 238.529 189.028 236.264C188.611 236.212 187.997 237.123 188.58 237.196C208.262 239.675 224.747 247.66 240.398 259.467C244.981 262.925 249.018 266.8 252.747 271.16C257.002 276.134 260.585 283.431 266.315 286.79C266.679 287.009 267.403 286.16 266.955 285.894Z" fill="#FF3131"/>
<path d="M169.549 231.43C162.95 232.029 146.502 234.144 146.502 243.675C146.502 246.956 153.137 241.956 153.596 241.753C158.726 239.451 164.481 238.67 169.997 237.894C170.429 237.837 170.893 236.899 170.226 236.993C164.169 237.842 158.163 238.878 152.549 241.404C151.877 241.717 151.226 242.066 150.585 242.441C150.45 242.519 146.044 245.639 147.965 240.956C149.127 238.139 151.783 236.92 154.33 235.821C158.934 233.831 164.137 232.811 169.101 232.363C169.512 232.326 170.101 231.384 169.549 231.43Z" fill="#FF3131"/>
<path d="M202.049 325.774C205.747 328.983 209.033 332.634 212.627 335.957C214.361 337.566 217.335 340.743 220.038 340.186C220.46 340.097 220.919 339.149 220.262 339.285C217.304 339.894 213.335 335.113 211.481 333.332C208.596 330.556 205.872 327.602 202.846 324.977C202.492 324.665 201.705 325.472 202.049 325.774Z" fill="#FF3131"/>
<path d="M211.965 339.087C222.074 344.91 231.928 351.654 240.595 359.488C240.944 359.8 241.736 358.998 241.392 358.691C232.673 350.811 222.777 344.05 212.605 338.191C212.236 337.977 211.512 338.826 211.965 339.087Z" fill="#FF3131"/>
<path d="M216.226 339.097C203.195 336.483 190.434 330.285 177.95 325.863C177.539 325.717 176.841 326.592 177.309 326.759C189.794 331.181 202.554 337.379 215.585 339.998C216.018 340.082 216.69 339.191 216.226 339.097Z" fill="#FF3131"/>
<path d="M191.314 313.972C173.6 297.253 146.804 291.941 123.934 285.92C108.929 281.972 93.8087 279.899 78.2879 279.706C71.6421 279.623 65.1681 280.165 58.7254 281.842C57.4962 282.16 56.1316 282.597 54.9441 283.035C56.1368 281.42 57.3296 279.8 58.5223 278.18C60.0118 277.561 61.5379 277.055 63.1004 276.665C67.7723 275.352 72.6421 274.774 77.465 274.399C92.5014 273.222 107.538 275.831 122.179 278.983C136.486 282.071 150.574 286.102 163.929 292.16C169.71 294.785 175.277 297.91 180.418 301.634C182.934 303.456 185.189 305.566 187.189 307.936C189.199 310.326 188.887 308.993 187.548 308.029C186.491 307.274 185.418 306.529 184.345 305.795C173.929 298.639 162.486 293.311 150.465 289.467C133.585 284.066 116.184 279.352 98.5952 276.998C82.7723 274.884 66.7618 275.238 52.9233 283.805C52.4233 284.113 52.5379 284.873 53.1733 284.483C75.6785 270.545 105.559 278.097 129.413 284.477C150.856 290.212 170.621 297.212 188.741 310.264C189.069 310.498 189.809 309.904 189.59 309.545C183.934 300.253 172.324 294.779 162.772 290.451C149.642 284.493 135.559 280.837 121.507 277.805C107.751 274.837 93.9077 272.795 79.7931 273.358C72.1473 273.66 54.3816 274.139 52.5952 284.259C52.5379 284.587 52.7879 284.649 53.0535 284.55C77.6733 275.493 106.996 282.149 131.382 289.035C151.772 294.79 174.632 299.779 190.517 314.774C190.856 315.092 191.652 314.29 191.314 313.972Z" fill="#FF3131"/>
<path d="M190.028 314.128C174.309 304.347 158.512 297.274 140.663 292.404C130.179 289.545 117.497 285.608 106.627 288.207C104.341 288.748 100.997 290.665 100.986 293.436C100.966 298.05 110.153 301.326 113.377 302.858C130.163 310.821 148.341 315.665 165.825 321.826C166.242 321.972 166.934 321.097 166.466 320.925C151.33 315.597 135.637 311.337 120.877 305.009C115.481 302.691 109.986 300.373 105.106 297.061C101.955 294.925 100.684 291.67 104.981 289.592C107.742 288.259 111.242 288.399 114.226 288.488C124.971 288.8 135.689 292.029 145.966 294.957C161.606 299.404 175.617 306.457 189.387 315.029C189.747 315.248 190.471 314.404 190.028 314.128Z" fill="#FF3131"/>
<path d="M212.247 334.061C206.955 330.259 201.585 327.154 195.59 324.581C195.189 324.41 194.481 325.279 194.95 325.477C200.877 328.024 206.21 331.097 211.444 334.857C211.835 335.139 212.601 334.316 212.247 334.061Z" fill="#FF3131"/>
<path d="M205.762 327.67C204.189 326.555 202.418 325.592 200.658 324.811C200.257 324.639 199.548 325.503 200.017 325.712C201.72 326.462 203.449 327.389 204.965 328.467C205.356 328.743 206.121 327.925 205.762 327.67Z" fill="#FF3131"/>
<path d="M183.293 315.53C176.247 312.103 168.689 309.457 161.382 306.639C154.601 304.019 147.569 301.868 140.58 299.889C136.825 298.821 132.976 297.873 129.111 297.3C128.033 297.139 125.913 296.342 124.83 296.853C124.606 296.957 124.096 297.53 124.512 297.712C126.856 298.733 129.788 299.03 132.257 299.67C138.767 301.353 145.205 303.332 151.575 305.488C161.377 308.795 170.997 312.821 180.46 316.978C180.861 317.149 181.569 316.285 181.101 316.082C172.262 312.196 163.293 308.504 154.194 305.274C144.668 301.889 134.898 299.712 125.236 296.847C125.085 297.139 124.939 297.431 124.788 297.717C125.476 297.78 126.163 297.863 126.846 297.957C129.309 298.259 131.741 298.785 134.163 299.316C138.096 300.175 141.965 301.342 145.814 302.519C151.273 304.191 156.736 305.972 162.054 308.045C168.918 310.717 176.023 313.207 182.648 316.425C183.038 316.613 183.757 315.754 183.293 315.53Z" fill="#FF3131"/>
<path d="M243.913 350.816C240.986 348.352 239.116 344.483 237.283 341.207C235.189 337.457 233.168 333.54 231.778 329.467C231.616 328.998 230.736 329.696 230.876 330.108C232.278 334.196 234.324 338.071 236.387 341.852C238.189 345.149 240.189 349.149 243.111 351.613C243.475 351.92 244.257 351.108 243.913 350.816Z" fill="#FF3131"/>
<path d="M244.116 333.347C246.449 340.123 248.715 346.748 252.407 352.936C253.845 355.342 255.522 357.613 257.267 359.806C258.527 361.389 264.309 364.628 263.96 366.587C263.845 367.248 264.788 366.79 264.866 366.363C265.262 364.118 263.454 363.556 261.73 362.29C259.699 360.795 258.152 359.165 256.631 357.16C251.001 349.712 248.012 341.42 245.017 332.701C244.85 332.233 243.975 332.931 244.116 333.347Z" fill="#FF3131"/>
<path d="M227.324 302.248C227.876 306.655 227.33 311.035 228.46 315.415C228.58 315.878 229.47 315.201 229.356 314.769C228.241 310.446 228.804 306.149 228.251 301.8C228.184 301.217 227.272 301.826 227.324 302.248Z" fill="#FF3131"/>
<path d="M275.83 318.154C268.241 310.42 257.7 304.904 248.528 299.274C248.169 299.055 247.439 299.899 247.887 300.17C256.976 305.748 267.491 311.269 275.033 318.956C275.356 319.285 276.158 318.488 275.83 318.154Z" fill="#FF3131"/>
<path d="M219.189 281.581C213.684 278.274 207.845 275.264 201.746 273.217C201.325 273.076 200.632 273.956 201.106 274.118C207.2 276.16 213.043 279.175 218.543 282.477C218.908 282.701 219.637 281.852 219.189 281.581Z" fill="#FF3131"/>
<path d="M266.122 293.795C255.97 282.149 242.325 273.129 228.825 265.816C228.444 265.613 227.726 266.467 228.184 266.717C241.611 273.988 255.215 282.993 265.325 294.592C265.622 294.936 266.429 294.149 266.122 293.795Z" fill="#FF3131"/>
<path d="M211.96 261.311C207.33 260.196 202.377 260.217 197.679 260.92C197.247 260.988 196.783 261.925 197.455 261.826C201.991 261.139 206.84 261.134 211.319 262.207C211.747 262.311 212.429 261.425 211.96 261.311Z" fill="#FF3131"/>
<path d="M270.705 306.685C264.965 301.477 259.017 296.581 252.757 291.998C250.257 290.17 247.715 288.399 245.194 286.592C244.142 285.842 243.095 285.081 242.054 284.316C241.601 283.977 241.147 283.633 240.705 283.279C240.319 282.738 239.996 282.894 239.736 283.743C244.543 285.118 249.543 289.685 253.632 292.545C258.897 296.232 264.325 300.133 268.809 304.758C269.132 305.092 269.934 304.295 269.606 303.962C264.882 299.087 259.132 295.04 253.58 291.154C249.778 288.498 244.689 284.076 240.179 282.784C239.788 282.675 239.205 283.258 239.46 283.633C241.7 286.873 247.194 289.383 250.371 291.649C257.215 296.534 263.684 301.831 269.908 307.482C270.257 307.8 271.049 306.993 270.705 306.685Z" fill="#FF3131"/>
<path d="M231.049 267.087C230.564 265.54 231.33 263.03 231.554 261.498C231.783 259.936 231.83 257.681 232.637 256.28C233.007 255.644 232.054 255.863 231.819 256.269C230.887 257.889 230.846 260.394 230.58 262.196C230.346 263.79 229.653 266.149 230.153 267.733C230.304 268.201 231.184 267.509 231.049 267.087Z" fill="#FF3131"/>
<path d="M240.043 263.097C239.501 266.425 239.486 269.857 239.407 273.222C239.392 273.79 240.324 273.191 240.335 272.774C240.413 269.488 240.418 266.123 240.944 262.873C241.053 262.206 240.111 262.665 240.043 263.097Z" fill="#FF3131"/>
<path d="M233.981 247.983C234.632 244.384 235.236 240.78 235.919 237.186C236.341 234.962 236.856 232.759 237.445 230.571C237.799 229.306 238.226 228.066 238.726 226.847C239.377 225.201 243.814 220.915 243.283 224.233C241.7 234.071 240.148 243.66 240.663 253.686C240.695 254.264 241.617 253.66 241.596 253.238C241.153 244.733 241.924 236.17 243.45 227.8C243.877 225.472 245.83 221.915 242.346 222.004C239.236 222.082 237.689 227.295 236.945 229.462C234.893 235.457 234.2 241.998 233.075 248.212C232.955 248.873 233.903 248.41 233.981 247.983Z" fill="#FF3131"/>
<path d="M252.174 232.228C252.466 244.873 255.387 257.16 257.106 269.639C257.184 270.222 258.091 269.613 258.033 269.191C256.32 256.712 253.393 244.425 253.106 231.78C253.091 231.207 252.163 231.806 252.174 232.228Z" fill="#FF3131"/>
<path d="M277.387 308.077C274.715 296.123 270.751 284.686 268.923 272.493C267.6 263.67 267.199 254.712 268.111 245.832C269.022 236.899 273.272 217.571 286.038 221.41C286.34 221.504 286.637 221.212 286.767 220.967C288.835 217.035 284.887 212.051 280.574 213.873C271.621 217.66 267.642 227.92 265.861 236.754C260.928 261.233 268.47 286.665 275.116 309.972C275.246 310.441 276.131 309.759 276.012 309.332C270.387 289.592 265.22 270.306 265.506 249.613C265.642 239.733 267.142 229.066 273.069 220.879C276.053 216.764 285.397 210.337 286.361 218.998C286.59 221.061 282.23 220.035 280.574 220.67C273.47 223.399 270.777 230.16 268.871 237.019C266.204 246.629 266.324 256.936 267.241 266.774C268.585 281.264 273.345 294.649 276.491 308.717C276.595 309.186 277.48 308.509 277.387 308.077Z" fill="#FF3131"/>
<path d="M284.079 220.675C280.35 230.941 280.434 243.123 280.178 253.873C279.767 271.144 280.897 288.55 283.855 305.576C283.954 306.16 284.861 305.545 284.788 305.128C281.918 288.628 280.887 271.868 281.079 255.134C281.21 243.915 281.095 231.144 284.98 220.451C285.204 219.837 284.22 220.285 284.079 220.675Z" fill="#FF3131"/>
<path d="M281.434 305.842C277.377 290.566 275.33 274.894 274.944 259.103C274.767 251.967 275.158 244.79 275.83 237.686C275.991 235.962 277.392 231.827 276.616 230.217C276.455 229.873 275.96 230.207 275.835 230.415C274.09 233.233 273.746 237.629 273.345 240.816C272.439 248.066 272.33 255.358 272.533 262.655C272.944 277.722 275.512 292.467 279.09 307.087C279.205 307.556 280.095 306.879 279.986 306.446C276.752 293.228 274.356 279.931 273.632 266.327C273.012 254.717 272.757 242.254 276.366 231.082C275.856 230.79 275.632 230.858 275.694 231.29C275.642 231.847 275.554 232.4 275.486 232.952C275.21 235.139 274.976 237.327 274.767 239.519C274.09 246.696 273.871 253.931 274.049 261.139C274.424 276.441 276.606 291.696 280.533 306.483C280.663 306.952 281.549 306.269 281.434 305.842Z" fill="#FF3131"/>
<path d="M282.278 233.483C290.241 223.503 297.918 213.404 307.293 204.675C313.252 199.128 319.965 194.352 327.429 191.055C329.694 190.055 332.043 189.451 334.502 189.206C335.054 189.154 338.58 188.925 336.627 189.863C333.356 191.436 330.262 193.373 327.257 195.394C317.476 201.983 309.538 210.936 302.345 220.175C293.444 231.618 285.955 243.316 280.194 256.665C279.898 257.347 280.814 257.123 281.007 256.675C286.898 243.04 294.7 231.118 303.783 219.446C313.246 207.29 324.288 196.608 338.304 189.878C338.549 189.764 339.017 189.227 338.621 189.019C334.627 186.92 329.356 189.384 325.648 191.024C319.168 193.884 313.398 198.415 308.101 203.04C297.955 211.899 289.96 222.764 281.606 233.233C281.137 233.821 281.924 233.925 282.278 233.483Z" fill="#FF3131"/>
<path d="M288.684 351.53C289.366 359.649 293.053 368.077 297.225 374.988C297.496 375.436 298.345 374.712 298.126 374.347C293.996 367.509 290.288 359.113 289.611 351.082C289.564 350.504 288.647 351.108 288.684 351.53Z" fill="#FF3131"/>
<path d="M304.6 371.925C304.751 374.035 306.08 376.279 306.892 378.186C307.512 379.644 308.137 381.102 308.736 382.571C308.96 383.134 310.205 385.451 309.856 386.056C309.486 386.691 310.439 386.472 310.673 386.066C311.439 384.738 309.465 381.514 308.981 380.347C307.871 377.686 305.736 374.404 305.533 371.483C305.491 370.899 304.569 371.503 304.6 371.925Z" fill="#FF3131"/>
<path d="M293.538 305.78C296.382 282.566 310.121 260.082 326.986 244.201C334.397 237.222 343.996 232.269 354.158 231.045C357.413 230.649 362.543 231.056 363.897 234.665C364.288 235.717 357.418 236.004 356.845 236.076C354.397 236.399 352.012 236.852 349.627 237.498C334.684 241.509 323.887 256.738 316.512 269.399C311.59 277.847 308.241 286.962 305.58 296.337C304.595 299.826 303.762 303.352 302.856 306.863C302.377 308.733 301.715 309.457 302.434 311.227C302.627 311.696 303.496 310.993 303.33 310.587C302.554 308.675 303.913 306.066 304.397 304.113C305.533 299.566 306.736 295.045 308.137 290.571C312.064 277.993 318.335 267.337 326.132 256.811C332.939 247.623 340.725 240.363 352.142 237.712C355.194 237.004 358.345 236.78 361.47 236.634C362.236 236.597 363.423 236.811 364.158 236.285C364.913 235.743 364.96 234.852 364.793 234.024C363.444 227.28 350.434 230.696 346.762 231.795C338.647 234.227 331.606 238.925 325.481 244.691C308.757 260.441 295.413 283.285 292.611 306.233C292.543 306.774 293.491 306.191 293.538 305.78Z" fill="#FF3131"/>
<path d="M363.908 235.811C362.168 229.519 350.486 234.061 347.226 235.524C338.122 239.608 332.247 246.92 326.689 254.941C326.262 255.561 327.033 255.67 327.361 255.191C332.179 248.238 337.158 241.8 344.663 237.623C347.84 235.853 361.163 229.754 363.012 236.451C363.142 236.92 364.028 236.238 363.908 235.811Z" fill="#FF3131"/>
<path d="M303.126 308.207C313.564 299.613 324.168 291.764 336.272 285.639C339.47 284.019 348.189 278.847 350.533 283.644C351.569 285.754 347.283 290.524 346.173 292.04C341.178 298.863 335.366 305.118 329.595 311.28C327.632 313.384 325.637 315.462 323.616 317.514C320.595 320.582 316.757 325.832 312.762 327.103C312.361 327.228 311.902 328.207 312.538 328.009C316.449 326.764 320.184 321.863 323.007 319.087C325.678 316.457 328.251 313.712 330.814 310.972C337.559 303.764 344.741 296.306 349.866 287.816C354.09 280.826 347.574 280.16 341.871 282.254C327.356 287.587 314.658 297.837 302.882 307.535C302.444 307.894 302.543 308.686 303.126 308.207Z" fill="#FF3131"/>
<path d="M298.767 307.868C302.335 285.519 313.502 264.863 326.647 246.706C327.017 246.191 326.434 245.93 326.069 246.347C311.21 263.055 299.882 285.175 296.272 307.363C296.163 308.029 297.106 307.571 297.179 307.139C298.934 296.331 302.913 285.857 307.496 275.956C310.147 270.232 313.293 264.748 316.746 259.477C318.403 256.941 320.22 254.514 322.075 252.123C323.804 249.889 326.84 245.175 323.559 249.847C311.377 267.196 301.231 286.993 297.866 308.087C297.757 308.758 298.7 308.295 298.767 307.868Z" fill="#FF3131"/>
<path d="M308.955 318.024C318.434 309.566 327.632 301.045 337.423 292.941C338.83 291.774 337.824 291.748 336.694 292.853C334.184 295.311 331.663 297.764 329.132 300.202C322.632 306.467 316.147 312.79 309.47 318.863C308.96 319.327 309.444 319.795 309.949 319.337C319.673 310.504 328.949 301.155 338.455 292.082C338.845 291.712 338.585 291.092 338.09 291.509C327.944 299.972 318.33 308.754 308.481 317.545C307.96 318.004 308.449 318.478 308.955 318.024Z" fill="#FF3131"/>
<path d="M317.288 342.477C317.804 339.639 318.564 336.868 319.429 334.118C320.132 331.878 321.018 329.707 322.012 327.576C322.523 326.509 323.127 325.483 323.809 324.514C329.278 321.951 331.116 321.613 329.325 323.498C326.846 326.342 325.794 330.655 324.762 334.186C323.033 340.076 321.908 346.16 320.939 352.217C320.366 355.821 319.439 359.925 319.783 363.597C319.84 364.175 320.752 363.571 320.715 363.149C320.195 357.639 321.866 351.457 322.866 346.076C324.169 339.066 325.346 329.097 330.2 323.519C332.684 320.665 326.054 321.186 324.559 322.67C319.616 327.571 317.596 336.087 316.387 342.701C316.262 343.363 317.21 342.899 317.288 342.477Z" fill="#FF3131"/>
<path d="M297.992 394.972C270.465 382.134 239.788 384.717 210.242 384.774C197.101 384.801 184.153 383.842 171.101 382.462C166.148 381.941 153.179 377.785 150.481 384.17C148.325 389.28 163.538 393.17 165.919 393.853C180.08 397.92 194.903 398.019 209.512 397.946C224.096 397.873 238.689 397.54 253.268 397.316C268.158 397.087 285.653 395.717 299.658 401.639C301.372 402.363 302.695 403.092 304.278 401.806C304.721 401.446 304.611 400.655 304.028 401.129C302.268 402.566 297.544 399.649 295.689 399.092C289.695 397.295 283.21 397.014 277.007 396.649C260.997 395.696 244.825 396.478 228.804 396.717C216.544 396.905 204.273 397.29 192.018 396.816C179.752 396.342 165.731 394.566 154.877 388.358C153.533 387.592 152.184 386.566 151.465 385.165C149.408 381.181 160.122 382.113 161.398 382.243C166.288 382.748 171.169 383.441 176.059 383.967C188.34 385.285 200.617 385.754 212.965 385.691C241.439 385.54 270.851 383.509 297.351 395.868C297.742 396.056 298.455 395.191 297.992 394.972Z" fill="#FF3131"/>
<path d="M301.45 401.253C296.83 394.451 283.809 395.29 276.762 394.769C264.246 393.837 251.83 393.53 239.293 393.957C225.882 394.41 212.174 394.925 198.778 394.003C191.611 393.509 184.476 392.259 177.59 390.207C176.101 389.764 174.653 389.201 173.21 388.634C171.314 387.889 170.663 388.019 168.804 387.691C170.382 387.972 171.97 388.634 173.502 389.092C197.913 396.363 223.351 393.733 248.465 393.457C256.064 393.373 263.705 393.832 271.288 394.259C278.845 394.681 288.054 394.3 295.236 397.03C295.648 397.186 296.351 396.311 295.877 396.134C288.96 393.503 280.262 393.847 272.996 393.399C264.851 392.905 256.648 392.441 248.486 392.53C233.736 392.691 218.965 393.441 204.205 393.123C196.726 392.962 188.991 392.102 181.72 390.321C177.606 389.306 173.528 387.519 169.361 386.78C168.981 386.712 168.226 387.41 168.72 387.675C188.788 398.436 215.299 395.503 237.168 394.936C248.642 394.639 259.96 394.634 271.429 395.358C279.262 395.852 295.554 394.54 300.653 402.05C300.898 402.41 301.72 401.649 301.45 401.253Z" fill="#FF3131"/>
<path d="M259.756 256.712C256.22 253.665 257.986 243.524 257.892 239.238C257.756 232.753 257.861 226.264 257.782 219.774C257.715 214.014 257.512 208.248 257.267 202.493C257.152 199.894 257.017 197.295 256.782 194.706C256.631 193.029 256.449 191.352 256.293 189.675C256.262 189.295 256.23 188.92 256.199 188.54C256.397 187.618 256.178 187.472 255.558 188.102C257.861 192.607 257.788 199.212 258.272 204.165C258.907 210.623 259.189 217.113 259.355 223.597C259.501 229.149 259.855 234.675 260.329 240.206C260.73 244.941 263.329 252.696 261.246 257.149C260.933 257.826 261.855 257.597 262.058 257.165C263.803 253.43 262.251 248.404 261.699 244.54C260.772 238.014 260.543 231.274 260.329 224.691C260.105 217.686 259.829 210.701 259.204 203.717C258.746 198.628 258.668 191.785 256.272 187.107C256.152 186.873 255.871 186.977 255.699 187.092C253.897 188.326 255.887 195.415 256.027 197.269C256.548 204.238 256.673 211.248 256.819 218.232C256.98 225.951 256.835 233.675 256.996 241.394C257.09 245.759 255.23 254.3 258.96 257.514C259.319 257.821 260.1 257.009 259.756 256.712Z" fill="#FF3131"/>
<path d="M262.668 251.977C263.746 236.712 266.533 221.524 267.111 206.233C267.418 198.201 266.705 190.003 265.252 182.108C264.371 177.326 262.371 169.54 255.892 170.472C249.424 171.399 243.647 170.743 242.653 178.384C242.132 182.399 244.345 187.306 245.137 191.196C246.377 197.264 247.33 203.384 248.377 209.483C249.549 216.295 250.684 223.108 251.804 229.925C253.002 237.227 256.043 244.165 256.991 251.483C257.064 252.066 257.976 251.457 257.918 251.035C257.116 244.806 254.606 238.868 253.272 232.738C252.064 227.17 251.397 221.431 250.455 215.811C249.361 209.295 248.252 202.785 247.111 196.279C246.116 190.639 244.528 185.087 243.59 179.446C242.408 172.363 251.7 171.457 256.778 171.368C264.424 171.238 265.028 186.332 265.543 191.118C266.262 197.826 266.46 204.628 265.887 211.352C264.715 225.066 262.71 238.701 261.736 252.431C261.7 252.983 262.637 252.394 262.668 251.977Z" fill="#FF3131"/>
<path d="M243.543 178.769C244.1 175.134 249.428 178.936 251.225 179.024C252.121 179.071 253.074 178.066 253.668 177.55C262.184 170.181 264.611 186.066 265.569 191.306C265.652 191.764 266.548 191.097 266.465 190.665C265.704 186.519 263.678 171.295 256.116 175.108C254.475 175.931 251.991 178.488 250.059 177.691C248.637 177.102 246.954 175.832 245.282 176.118C243.652 176.399 242.887 177.384 242.642 178.993C242.538 179.66 243.475 179.196 243.543 178.769Z" fill="#FF3131"/>
<path d="M245.002 173.498C238.877 152.165 225.934 132.831 208.122 119.597C193.752 108.925 175.351 102.321 158.096 98.1699C154.523 97.3105 162.497 94.7324 162.783 94.696C165.856 94.3366 169.143 95.2012 172.101 95.8418C176.075 96.7064 179.856 98.1491 183.606 99.7012C192.991 103.592 202.163 108.383 210.653 113.962C230.82 127.212 240.851 150.404 248.945 172.154C249.117 172.623 249.992 171.925 249.84 171.514C241.325 148.633 230.715 125.081 209.158 111.68C199.814 105.873 189.861 100.8 179.554 96.9512C173.377 94.6491 162.564 90.8366 157.221 96.5501C154.632 99.3157 158.741 99.347 160.773 99.8262C172.403 102.581 183.814 107.482 194.538 112.68C219.038 124.55 236.674 148.248 244.101 174.139C244.236 174.607 245.122 173.925 245.002 173.498Z" fill="#FF3131"/>
<path d="M217.278 128.629C230.413 141.467 237.512 160.66 242.726 177.868C242.872 178.337 243.752 177.644 243.627 177.222C238.392 159.972 231.262 140.722 218.08 127.832C217.747 127.504 216.95 128.306 217.278 128.629Z" fill="#FF3131"/>
<path d="M191.71 237.873C191.023 239.524 190.793 241.326 190.642 243.097C190.595 243.654 191.538 243.066 191.575 242.649C191.715 241.05 191.903 239.378 192.528 237.883C192.814 237.196 191.898 237.42 191.71 237.873Z" fill="#FF3131"/>
<path d="M176.247 286.805C168.262 285.821 166.627 271.415 165.434 264.967C163.83 256.29 162.59 247.529 161.497 238.779C161.429 238.196 160.517 238.805 160.57 239.227C161.767 248.873 163.168 258.524 165.002 268.076C166.2 274.305 167.976 286.769 175.799 287.732C176.221 287.79 176.83 286.878 176.247 286.805Z" fill="#FF3131"/>
<path d="M173.746 282.696C167.048 269.17 164.506 253.379 162.652 238.524C162.579 237.941 161.668 238.551 161.72 238.972C163.585 253.899 166.121 269.754 172.845 283.337C173.074 283.801 173.939 283.087 173.746 282.696Z" fill="#FF3131"/>
<path d="M189.241 298.28C179.829 288.045 172.621 277.733 169.543 263.889C168.553 259.431 167.954 254.847 167.288 250.332C166.715 246.462 165.548 241.837 166.194 237.915C166.303 237.248 165.366 237.712 165.293 238.139C164.059 245.603 166.902 254.79 168.194 262.155C170.814 277.123 178.418 288.176 188.444 299.077C188.756 299.415 189.559 298.623 189.241 298.28Z" fill="#FF3131"/>
<path d="M174.382 280.545C174.116 279.514 173.897 278.472 173.642 277.441C173.413 276.488 173.252 275.295 172.726 274.457C172.444 274.009 171.601 274.738 171.824 275.097C172.356 275.941 172.512 277.134 172.746 278.082C173.002 279.113 173.22 280.155 173.481 281.186C173.606 281.649 174.491 280.972 174.382 280.545Z" fill="#FF3131"/>
<path d="M151.303 242.53C154.152 256.894 157.329 272.368 169.283 282.118C169.647 282.42 170.428 281.608 170.079 281.321C158.163 271.603 155.038 256.196 152.199 241.889C152.111 241.425 151.22 242.097 151.303 242.53Z" fill="#FF3131"/>
<path d="M152.715 241.748C153.616 249.253 155.642 256.561 158.241 263.649C160.632 270.181 163.814 277.545 169.283 282.118C169.642 282.425 170.429 281.613 170.08 281.321C164.975 277.05 162.153 270.53 159.71 264.498C156.725 257.113 154.595 249.207 153.647 241.3C153.574 240.717 152.663 241.326 152.715 241.748Z" fill="#FF3131"/>
<path d="M151.757 236.675C151.585 223.03 152.783 209.316 154.736 195.821C155.424 191.087 156.293 186.431 157.809 181.884C158.413 180.076 161.955 169.759 165.674 172.91C165.871 173.071 164.835 176.806 164.814 177.024C163.111 195.186 163.455 214.451 164.903 232.608C164.95 233.186 165.866 232.582 165.83 232.16C164.825 219.514 165.054 206.738 165.2 194.066C165.252 189.254 165.325 184.431 165.512 179.618C165.575 178.103 167.939 172.498 165.762 171.524C153.2 165.925 150.757 231.795 150.825 237.123C150.83 237.696 151.762 237.092 151.757 236.675Z" fill="#FF3131"/>
<path d="M165.622 172.623C165.153 174.41 163.132 175.759 162.205 177.363C159.377 182.269 158.194 187.957 157.012 193.436C153.991 207.457 152.83 221.925 152.491 236.238C152.481 236.811 153.413 236.212 153.424 235.795C153.773 220.889 155.163 205.998 158.304 191.41C159.47 186.019 160.71 179.743 164.455 175.472C165.33 174.472 166.179 173.717 166.528 172.399C166.694 171.748 165.731 172.207 165.622 172.623Z" fill="#FF3131"/>
<path d="M160.611 233.28C160.329 227.452 160.366 221.613 160.512 215.785C160.595 212.483 160.762 209.186 160.97 205.889C161.069 204.368 161.204 202.847 161.34 201.327C161.47 200.009 161.621 198.696 161.803 197.384C161.996 196.821 161.73 196.795 161.012 197.321C161.34 201.561 160.684 206.066 160.579 210.316C160.397 218.004 160.491 225.707 161.085 233.379C161.126 233.957 162.048 233.353 162.012 232.931C161.423 225.254 161.361 217.566 161.512 209.868C161.595 205.561 162.267 201.03 161.934 196.728C161.907 196.379 161.543 196.498 161.345 196.618C159.293 197.858 159.965 207.504 159.85 209.571C159.397 217.603 159.293 225.696 159.684 233.728C159.704 234.306 160.631 233.702 160.611 233.28Z" fill="#FF3131"/>
<path d="M186.345 229.582C190.506 216.868 196.689 204.498 204.194 193.425C206.319 190.285 208.84 187.628 211.59 185.035C213.22 183.498 214.949 182.082 216.756 180.764C217.647 180.113 224.408 177.238 222.001 180.009C216.704 186.097 211.048 191.602 206.564 198.363C199.793 208.576 195.548 220.389 193.111 232.337C192.975 232.998 193.928 232.535 194.012 232.113C196.855 218.165 202.246 204.868 210.871 193.477C214.574 188.597 220.991 184.358 223.725 178.92C223.788 178.795 223.814 178.628 223.715 178.514C219.704 173.998 208.397 187.045 206.168 189.613C196.605 200.628 189.928 216.102 185.439 229.805C185.236 230.436 186.215 229.983 186.345 229.582Z" fill="#FF3131"/>
<path d="M146.325 255.634C155.465 271.243 166.174 286.769 178.361 300.165C178.668 300.509 179.476 299.717 179.158 299.368C167.017 286.024 156.325 270.53 147.221 254.993C146.955 254.54 146.106 255.264 146.325 255.634Z" fill="#FF3131"/>
<path d="M150.611 254.983C148.46 258.123 142.559 250.404 141.293 249.081C137.007 244.592 132.366 240.696 127.481 236.884C119.049 230.295 110.2 224.701 100.845 219.524C91.0903 214.123 81.1319 209.076 70.934 204.576C65.684 202.259 60.335 200.186 54.8871 198.389C52.4705 197.597 50.0173 196.936 47.5486 196.337C46.6944 197.358 47.1007 197.738 48.7673 197.493C50.0434 197.727 51.309 198.009 52.5694 198.29C72.2413 202.706 91.085 213.524 108.345 223.555C116.861 228.509 124.778 234.019 132.512 240.081C137.637 244.102 142.809 249.259 148.611 252.29C148.997 252.488 149.715 251.628 149.257 251.389C142.054 247.628 135.632 241.081 129.247 236.108C121.028 229.712 112.137 224.394 103.085 219.274C93.533 213.873 83.809 208.733 73.6528 204.55C67.8038 202.144 61.7986 199.92 55.7569 198.045C53.5955 197.373 49.2621 195.66 46.9548 196.233C46.7309 196.29 46.0278 197.009 46.5173 197.134C69.1111 202.993 90.5486 214.347 110.481 226.3C121.304 232.79 131.741 240.8 140.497 249.878C142.622 252.081 148.075 259.92 151.283 255.233C151.71 254.613 150.939 254.503 150.611 254.983Z" fill="#FF3131"/>
<path d="M148.017 250.613C138.793 239.498 131.293 227.368 118.777 219.597C107.444 212.555 95.4233 206.654 83.0691 201.644C71.7462 197.045 60.0066 193.623 48.241 190.363C38.741 187.727 28.8087 185.102 18.892 184.998C16.4337 184.972 13.2774 185.139 11.1785 186.597C10.0483 187.378 8.58474 188.644 10.2983 189.54C12.2045 190.534 15.6524 189.956 17.6941 190.014C21.5795 190.128 25.4702 190.618 29.3191 191.149C36.142 192.081 42.767 193.946 49.4077 195.717C79.0535 203.623 107.923 215.055 130.699 236.31C134.09 239.472 137.257 242.868 140.408 246.269C140.72 246.602 141.527 245.816 141.205 245.472C124.147 227.087 103.658 213.441 80.2879 204.175C67.0379 198.92 53.0431 195.3 39.1889 191.998C32.8712 190.488 26.4285 189.685 19.9597 189.18C18.1941 189.045 16.4129 189.034 14.642 188.988C13.8347 188.972 8.19932 189.019 11.8972 187.019C13.8243 185.977 16.3243 185.972 18.4441 185.93C28.5847 185.732 39.0014 188.878 48.6889 191.56C60.1004 194.727 71.4129 198.17 82.4285 202.54C94.4233 207.3 105.991 213.144 117.027 219.816C130.059 227.691 137.699 239.946 147.22 251.409C147.507 251.758 148.319 250.977 148.017 250.613Z" fill="#FF3131"/>
<path d="M142.621 250.503C138.298 249.29 134.043 244.316 130.673 241.566C125.907 237.685 121.048 233.967 115.845 230.691C105.595 224.232 94.9647 218.258 84.0793 212.941C60.8032 201.581 35.8553 195.357 10.9959 188.654C10.5689 188.54 9.88656 189.425 10.3553 189.555C34.9647 196.185 59.3397 202.524 82.5324 213.404C93.3866 218.498 103.897 224.555 114.069 230.873C120.142 234.644 125.741 238.993 131.272 243.503C134.355 246.019 138.001 250.284 141.975 251.399C142.402 251.519 143.09 250.633 142.621 250.503Z" fill="#FF3131"/>
<path d="M122.471 235.175C113.57 230.259 103.929 227.306 93.7884 226.462C88.4916 226.024 80.3874 226.451 77.3457 231.759C76.0749 233.972 74.7936 235.774 77.5905 235.655C82.8353 235.436 88.2103 237.795 92.8874 239.873C106.283 245.811 118.882 254.727 131.221 262.587C144.195 270.852 158.528 278.946 169.684 289.66C170.023 289.983 170.82 289.181 170.486 288.863C161.169 279.915 149.445 273.061 138.663 266.061C129.169 259.894 119.559 253.91 109.924 247.977C100.872 242.399 89.2676 234.498 78.0332 234.727C76.3718 234.759 76.5332 235.363 77.5853 232.78C79.9134 227.056 88.3093 227.123 93.3405 227.394C103.335 227.925 113.143 231.269 121.83 236.071C122.205 236.28 122.929 235.425 122.471 235.175Z" fill="#FF3131"/>
<path d="M148.476 239.8C142.892 228.962 137.049 218.571 133.606 206.774C130.21 195.165 131.424 182.118 133.252 170.383C135.288 157.311 140.122 144.951 145.283 132.837C149.122 123.816 152.903 114.545 157.622 105.936C157.981 105.285 157.033 105.524 156.804 105.925C142.549 130.795 129.835 157.248 128.419 186.399C128.392 186.962 129.33 186.368 129.351 185.951C130.45 163.279 138.57 141.602 148.856 121.592C151.465 116.514 154.32 111.581 157.205 106.66C157.861 105.535 156.148 107.165 155.903 107.654C155.075 109.285 154.304 110.946 153.523 112.597C151.304 117.316 149.174 122.071 147.064 126.837C138.653 145.873 132.278 164.472 130.7 185.342C129.153 205.8 138.528 222.878 147.575 240.436C147.814 240.899 148.674 240.186 148.476 239.8Z" fill="#FF3131"/>
<path d="M163.085 99.8524C151.455 119.087 142.273 140.415 136.523 162.16C134.153 171.108 132.705 180.316 132.387 189.571C132.314 191.764 133.814 200.529 131.95 202.16C131.424 202.618 131.913 203.082 132.424 202.639C134.038 201.227 133.361 197.722 133.32 195.91C133.142 187.988 133.757 180.175 135.127 172.358C139.528 147.165 150.58 121.899 163.757 100.102C164.142 99.4617 163.387 99.3524 163.085 99.8524Z" fill="#FF3131"/>
<path d="M167.215 94.3734C171.137 85.639 178.174 78.665 184.809 71.9307C186.179 70.54 189.528 68.3421 189.044 66.0088C187.247 57.3369 167.46 79.238 165.882 81.0973C151.424 98.1025 139.648 117.342 132.101 138.389C124.58 159.358 119.747 182.868 127.538 204.467C127.705 204.936 128.585 204.238 128.434 203.827C121.549 184.722 124.7 164.175 130.585 145.254C136.762 125.394 146.731 107.144 159.163 90.54C163.992 84.0921 169.247 77.9203 175.033 72.3109C176.184 71.1911 187.268 60.5296 188.21 66.9775C188.523 69.1442 180.2 75.6911 178.788 77.1911C173.96 82.3317 169.309 87.889 166.398 94.363C166.096 95.04 167.018 94.8161 167.215 94.3734Z" fill="#FF3131"/>
<path d="M188.914 66.5763C184.226 66.6596 179.867 71.7898 176.747 74.769C170.518 80.7221 165.283 87.2742 160.539 94.4565C160.127 95.0815 160.893 95.1961 161.216 94.7065C165.158 88.7377 169.424 83.1179 174.424 77.9825C177.809 74.5138 183.325 67.5971 188.471 67.5086C188.887 67.4981 189.486 66.5658 188.914 66.5763Z" fill="#FF3131"/>
<path d="M157.387 98.4772C137.204 128.889 121.282 167.3 127.517 204.368C127.616 204.951 128.517 204.337 128.449 203.925C122.256 167.092 137.996 128.962 158.058 98.7272C158.475 98.1022 157.71 97.9928 157.387 98.4772Z" fill="#FF3131"/>
<path d="M106.793 163.733C111.314 179.16 115.319 195.087 122.023 209.753C125.84 218.113 130.194 226.248 134.038 234.613C134.252 235.076 135.116 234.363 134.934 233.972C131.085 225.597 126.908 217.404 122.918 209.108C115.965 194.649 112.184 178.43 107.694 163.092C107.554 162.623 106.674 163.311 106.793 163.733Z" fill="#FF3131"/>
<path d="M140.341 224.436C138.705 212.904 137.731 202.003 139.867 190.42C142.846 174.248 149.976 159.394 159.361 146.024C163.439 140.212 168.028 134.561 173.559 130.061C175.679 128.337 178.184 126.743 180.976 126.555C185.971 126.222 183.658 130.951 182.132 132.91C180.856 134.545 179.689 136.238 178.528 137.956C169.367 151.555 160.877 166.212 156.867 182.232C156.705 182.884 157.663 182.42 157.768 182.009C160.502 171.092 165.413 160.988 170.997 151.269C173.82 146.363 176.908 141.607 180.07 136.915C181.762 134.404 184.783 131.79 185.544 128.769C186.46 125.092 180.242 125.477 178.325 126.316C172.997 128.66 168.689 133.253 165.007 137.628C153.867 150.852 145.731 165.899 140.908 182.498C136.757 196.785 137.351 210.373 139.413 224.884C139.497 225.467 140.403 224.852 140.341 224.436Z" fill="#FF3131"/>
<path d="M124.684 186.514C118.996 170.905 114.726 154.873 111.746 138.519C111.663 138.061 110.772 138.727 110.851 139.16C113.83 155.524 118.095 171.54 123.783 187.16C123.955 187.629 124.835 186.931 124.684 186.514Z" fill="#FF3131"/>
<path d="M111.725 161.326C110.366 150.967 102.225 140.618 96.6628 132.071C88.3503 119.295 78.2253 107.68 66.543 97.8732C56.0743 89.0919 43.8087 83.3784 30.7878 79.5242C23.0743 77.2378 14.8972 74.6128 6.82949 74.1388C3.85032 73.9617 1.35032 74.9669 0.069072 77.7065C0.00657201 77.8367 -0.024677 77.993 0.0742803 78.1128C0.496156 78.6076 2.30345 78.1388 2.81386 78.1128C7.82949 77.8263 12.5795 79.6023 17.3451 80.8732C24.392 82.7482 31.1732 84.8576 37.9962 87.4148C47.2774 90.8888 55.1316 95.6128 62.642 102.16C74.017 112.076 83.4962 123.712 92.4285 135.805C99.3503 145.186 104.647 155.759 112.944 164.045C113.272 164.373 114.069 163.576 113.741 163.248C107.257 156.769 102.944 148.915 97.8035 141.399C91.5847 132.321 84.866 123.347 77.4232 115.227C69.5951 106.691 61.168 98.269 51.2149 92.2169C45.1212 88.5138 38.1003 86.1909 31.4284 83.7638C24.7878 81.3471 17.7409 79.8732 10.9337 77.993C8.44928 77.3107 5.81907 77.1388 3.26178 77.1805C-1.99864 77.2638 5.39199 75.0138 7.60553 75.1388C15.1107 75.5815 22.9389 78.3523 30.142 80.4201C35.6576 81.9982 41.0587 83.9148 46.2618 86.3263C69.4285 97.0659 86.5222 117.738 99.7566 138.983C103.928 145.686 109.736 153.748 110.793 161.774C110.871 162.358 111.777 161.743 111.725 161.326Z" fill="#FF3131"/>
<path d="M112.189 165.941C104.163 162.868 99.2936 151.732 94.8874 144.904C89.1426 136.003 83.3144 127.191 76.6999 118.904C66.054 105.561 52.3197 93.6491 36.2363 87.4668C35.8249 87.3106 35.1217 88.1856 35.5957 88.3627C53.0853 95.0866 67.1999 108.404 78.5124 123.019C84.4707 130.717 89.7155 138.925 94.9915 147.097C99.2572 153.706 103.757 163.852 111.549 166.837C111.955 166.993 112.658 166.118 112.189 165.941Z" fill="#FF3131"/>
<path d="M108.335 165.384C91.8403 146.555 79.4341 124.613 61.9601 106.54C54.3143 98.6335 43.4133 92.8366 33.408 88.5502C22.9289 84.0606 11.8195 80.1075 0.798672 77.2637C0.371589 77.1544 -0.310703 78.0398 0.158047 78.1648C10.8976 80.9304 21.2622 85.0189 31.6112 88.9773C42.5591 93.1648 53.8872 99.8158 62.0591 108.269C79.2153 126.014 91.3351 147.686 107.538 166.18C107.84 166.524 108.648 165.732 108.335 165.384Z" fill="#FF3131"/>
<path d="M64.4029 109.144C60.3456 106.071 50.6164 104.972 50.1164 112.066C49.8403 115.967 55.382 119.889 57.8195 122.415C62.382 127.134 66.8351 131.962 71.1112 136.946C81.757 149.368 91.0591 163.576 100.142 177.17C105.257 184.816 109.366 192.988 114.247 200.759C116.502 204.358 119.153 207.665 121.398 211.279C122.314 212.759 123.163 214.321 124.804 215.05C125.205 215.233 125.913 214.363 125.445 214.154C123.517 213.295 122.471 210.889 121.434 209.253C119.741 206.587 117.851 204.076 116.049 201.488C112.07 195.779 109.101 189.378 105.476 183.446C98.3299 171.743 90.007 160.795 82.0174 149.67C75.8247 141.045 69.382 133.035 62.1112 125.279C59.6372 122.644 57.1268 120.035 54.5695 117.483C51.8664 114.785 49.0695 110.618 53.5956 108.118C56.3612 106.582 61.2101 108.128 63.606 109.941C63.9862 110.233 64.757 109.415 64.4029 109.144Z" fill="#FF3131"/>
<path d="M109.491 141.306C111.934 140.306 112.293 136.879 112.689 134.649C114.21 126.035 115.267 117.399 117.174 108.842C122.835 83.4098 130.58 57.165 143.418 34.4255C143.757 33.8213 142.924 33.9567 142.674 34.2953C135.955 43.4619 131.403 54.1755 127.538 64.8005C121.538 81.3161 117.043 98.3213 113.142 115.441C112.991 116.097 113.95 115.634 114.043 115.217C118.637 95.0661 123.955 74.9307 131.882 55.8057C134.7 49.0192 137.97 42.3682 142.106 36.2744C143.101 35.04 142.903 35.0661 141.507 36.3578C140.799 37.6286 140.111 38.9046 139.439 40.1963C138.137 42.6494 136.939 45.1598 135.762 47.6755C133.606 52.2744 131.736 57.0036 129.986 61.7692C124.189 77.5453 119.549 94.3421 115.903 110.728C114.418 117.394 113.361 124.139 112.392 130.894C112.075 133.108 112.033 139.446 109.481 140.488C109.028 140.67 108.804 141.582 109.491 141.306Z" fill="#FF3131"/>
<path d="M112.71 134.503C119.241 109.972 126.746 85.5399 135.126 61.566C139.96 47.7326 145.72 34.0191 153.798 21.7378C157.647 15.8941 162.371 10.6545 167.09 5.50867C167.715 4.82638 170.111 2.92534 169.6 1.64929C167.793 -2.88196 159.069 3.217 157.303 4.55554C149.986 10.092 143.98 18.6545 138.866 26.1649C123.59 48.618 115.835 73.9826 110.126 100.222C107.782 110.993 106.564 122.363 107.496 133.368C107.543 133.941 108.366 133.368 108.413 133.03C112.116 106.884 117.611 80.0712 128.095 55.7274C132.986 44.3785 138.939 33.4097 145.772 23.118C150.262 16.3628 159.121 1.95658 168.835 3.13888C169.251 3.19096 169.861 2.2795 169.277 2.21179C162.376 1.36804 156.142 8.54513 152.256 13.2483C144.079 23.1441 137.631 34.4045 131.892 45.842C119.184 71.1701 112.829 99.4097 108.402 127.243C108.163 128.759 107.939 130.28 107.715 131.795C107.803 131.207 108.21 129.733 108.163 128.545C108.027 125.071 108.21 121.592 108.439 118.128C109.048 108.993 110.907 100.082 113.131 91.2274C116.142 79.2066 118.98 67.4097 123.746 55.9201C129.538 41.9618 137.157 28.6337 146.595 16.816C149.913 12.6597 153.434 8.61804 157.553 5.22742C159.657 3.49304 162.074 2.06596 164.72 1.35763C165.282 1.21179 169.788 0.961794 168.506 2.87325C165.673 7.10242 161.46 10.7066 158.215 14.6545C154.251 19.4722 150.923 24.7118 147.892 30.1493C141.84 41.0191 137.34 52.743 133.288 64.4826C125.314 87.5972 118.095 111.108 111.809 134.727C111.637 135.373 112.6 134.915 112.71 134.503Z" fill="#FF3131"/>
<path d="M100.559 120.634C101.288 129.279 102.215 137.946 104.178 146.415C104.283 146.878 105.173 146.201 105.074 145.769C103.126 137.368 102.215 128.769 101.491 120.186C101.439 119.602 100.522 120.212 100.559 120.634Z" fill="#FF3131"/>
<path d="M103.585 123.628C100.731 122.008 101.08 117.253 100.887 114.456C100.496 108.738 99.9963 103.071 99.1213 97.4043C98.215 91.5345 97.5953 85.6179 96.7775 79.7377C95.4755 70.4147 94.0067 61.1127 92.2723 51.8574C91.3348 46.8731 90.2723 41.9095 89.0536 36.9877C88.564 35.0241 88.0171 33.0814 87.4442 31.1439C86.913 29.347 86.3609 25.0658 84.8609 24.0189C87.038 25.5449 87.9286 31.8522 88.6109 34.2481C90.1317 39.6127 91.2671 45.0918 92.3609 50.5554C94.2307 59.8731 95.5119 69.3262 97.6578 78.5814C100.892 92.5241 102.923 106.878 105.038 121.035C105.127 121.618 106.033 121.003 105.97 120.587C103.762 105.785 101.397 90.9199 98.189 76.3054C95.9338 66.0345 94.4703 55.597 92.314 45.3054C91.7932 42.8314 88.3192 22.7116 85.1005 23.0241C84.7723 23.0554 84.5275 23.3002 84.4234 23.6022C83.5692 26.097 86.1473 30.4304 86.8765 32.8939C88.3765 37.9408 89.4859 43.1074 90.5432 48.2585C92.8713 59.6231 94.5953 71.1127 96.1838 82.6022C97.0796 89.1179 97.9234 95.6387 98.8296 102.149C99.6161 107.821 99.6838 113.54 100.33 119.217C100.569 121.29 101.022 123.436 102.944 124.529C103.314 124.738 104.038 123.889 103.585 123.628Z" fill="#FF3131"/>
<path d="M105.398 117.102C106.398 109.352 105.413 101.332 104.502 93.6233C103.226 82.816 101.309 72.0712 99.2155 61.3941C97.1322 50.8108 94.7676 40.2743 92.0697 29.8368C90.2155 22.6805 88.5228 14.6649 84.4811 8.35763C82.0124 4.49826 74.3405 -2.14237 76.1113 7.05034C77.4134 13.7691 79.7572 20.2378 81.5853 26.8212C83.5905 34.0399 85.1113 41.3941 86.5749 48.7378C88.8665 60.2587 90.9655 71.8108 93.2572 83.3316C95.6738 95.5139 96.6686 107.941 98.752 120.181C99.3665 123.79 99.929 127.717 101.596 131.019C101.83 131.483 102.689 130.764 102.492 130.378C98.4447 122.342 98.3822 111.514 97.1999 102.748C95.8405 92.6337 94.0124 82.717 92.0697 72.7066C89.6999 60.493 87.6686 48.2274 84.9395 36.0816C83.3874 29.1858 81.3874 22.4462 79.3717 15.6753C78.3665 12.3003 77.3822 8.88888 76.8613 5.3993C76.0645 0.0659659 81.9447 6.59201 82.8197 7.80555C87.2624 13.9566 88.9811 22.217 90.8926 29.4201C93.5124 39.2951 95.7259 49.2847 97.7676 59.2899C100.028 70.4045 101.992 81.5868 103.424 92.8368C104.439 100.832 105.533 109.28 104.497 117.332C104.408 117.998 105.34 117.535 105.398 117.102Z" fill="#FF3131"/>
<path d="M104.012 89.7586C105.251 74.144 106.47 58.644 110.678 43.4982C113.194 34.4409 116.658 26.0398 122.09 18.3107C124.741 14.5294 127.908 10.5815 132.033 8.35754C132.09 8.32629 137.72 7.36274 135.658 9.43045C134.928 10.1648 134.173 10.868 133.46 11.618C122.981 22.5502 117.595 39.7221 114.241 54.0971C110.798 68.8367 110.595 84.295 110.319 99.3523C110.309 99.92 111.241 99.3211 111.251 98.9044C111.611 79.1909 112.517 59.9096 118.741 41.0398C122.064 30.9617 126.762 20.0398 133.939 12.0971C135.366 10.5138 138.824 8.65962 135.84 7.09712C131.741 4.95649 125.965 12.3627 123.965 14.7325C118.314 21.42 114.272 29.4877 111.533 37.7586C105.892 54.7898 104.491 72.4357 103.079 90.2117C103.038 90.7638 103.975 90.1752 104.012 89.7586Z" fill="#FF3131"/>
<path d="M96.6679 98.8159C89.3033 79.4409 78.1366 60.868 67.6054 43.0868C63.4387 36.0451 59.2043 27.368 51.5897 23.5139C46.6783 21.0295 47.5585 29.0868 47.9908 31.3368C49.7616 40.5816 54.2929 49.5347 58.3137 57.9618C61.8866 65.4566 65.7148 72.8524 69.8085 80.0711C80.1627 98.3316 90.9231 116.378 100.35 135.144C101.293 137.019 102.204 138.91 103.022 140.847C103.22 141.311 104.09 140.608 103.918 140.201C96.4335 122.477 85.845 105.696 76.2825 89.0399C68.1939 74.9514 60.3502 60.8003 54.0116 45.8107C53.22 43.9409 45.1314 22.4722 50.9439 24.4097C59.2304 27.1753 64.7252 40.3055 68.72 47.1441C78.4908 63.8784 88.8658 81.2951 95.7668 99.4618C95.9491 99.9305 96.8189 99.2326 96.6679 98.8159Z" fill="#FF3131"/>
<path d="M136.642 55.8367C141.548 57.3575 136.179 64.5294 134.772 66.9825C132.288 71.3158 130.439 75.7221 128.819 80.4304C125.715 89.4721 123.147 98.6648 121.351 108.055C119.616 117.102 118.496 126.311 117.465 135.467C116.923 140.243 117.012 145.081 117.22 149.873C117.345 152.764 118.772 159.274 116.335 161.54C115.83 162.014 116.314 162.488 116.814 162.019C120.585 158.503 118.085 148.946 117.996 144.581C117.752 131.941 120.163 118.748 122.538 106.347C124.778 94.6492 128.002 82.196 133.168 71.4565C134.679 68.3158 144.085 57.0502 137.283 54.9408C136.866 54.8106 136.173 55.6908 136.642 55.8367Z" fill="#FF3131"/>
<path d="M98.5903 58.8161C101.252 56.5713 102.408 56.4723 102.054 58.5192C102.028 59.2744 101.991 60.0348 101.945 60.7848C101.846 62.5608 101.705 64.3265 101.59 66.0973C101.267 71.1338 101.283 76.1494 101.752 81.1754C101.804 81.7588 102.721 81.1494 102.684 80.7275C102.257 76.1911 102.226 71.6806 102.434 67.1286C102.606 63.5088 103.387 59.6181 102.846 56.014C102.361 52.8004 98.0956 58.0608 97.7726 58.8056C97.481 59.4879 98.3976 59.264 98.5903 58.8161Z" fill="#FF3131"/>
<path d="M91.4862 69.8107C87.0539 66.5347 85.5383 70.3628 87.6112 74.2482C90.5852 79.8211 93.8717 86.9461 94.8873 93.2274C94.981 93.8107 95.8873 93.1961 95.8196 92.7795C95.2779 89.4201 93.7258 86.0815 92.5175 82.9305C91.6217 80.5815 90.6633 78.2586 89.6373 75.967C89.2831 75.1701 88.8977 74.3836 88.5071 73.6076C87.4862 71.5815 87.8404 68.5086 90.6894 70.6076C91.0748 70.8888 91.8404 70.0711 91.4862 69.8107Z" fill="#FF3131"/>
<path d="M264.783 180.425C270.21 171.3 275.325 161.988 282.236 153.868C289.715 145.081 299.293 139.441 309.486 134.368C320.455 128.91 331.882 124.238 344.012 122.196C349.851 121.212 358.33 119.285 363.158 123.769C365.21 125.675 360.814 125.779 360.429 125.831C358.736 126.071 357.059 126.363 355.387 126.691C335.809 130.535 319.252 139.826 303.064 151.066C286.793 162.368 275.674 178.321 265.976 195.337C265.611 195.977 266.559 195.759 266.793 195.347C272.71 184.967 279.262 174.686 287.226 165.733C295.413 156.519 306.054 149.404 316.387 142.8C327.059 135.977 339.267 131.41 351.533 128.399C355.299 127.477 359.168 126.706 363.043 126.462C364.21 126.389 364.741 125.67 364.825 124.608C365.002 122.316 360.559 120.613 358.95 120.384C353.502 119.623 347.7 120.712 342.314 121.618C329.892 123.712 318.095 129.217 306.929 134.826C296.851 139.889 288.101 145.941 280.752 154.576C274.08 162.41 269.205 171.613 263.965 180.415C263.59 181.045 264.543 180.826 264.783 180.425Z" fill="#FF3131"/>
<path d="M263.622 176.436C277.142 152.206 286.476 126.081 298.392 101.076C303.564 90.2169 308.679 78.7637 315.476 68.8002C316.564 67.2116 327.622 52.9616 325.835 51.2116C321.179 46.6544 314.689 52.3366 311.111 55.5762C301.471 64.295 294.325 76.1596 288.179 87.4721C274.127 113.311 264.101 142.837 259.163 171.8C259.043 172.498 259.945 171.941 260.064 171.571C268.127 147.061 275.382 122.363 286.705 99.0762C291.84 88.5137 297.622 77.8575 305.814 69.3471C308.95 66.0919 312.174 62.92 315.46 59.8106C317.418 57.9564 322.21 51.9669 325.215 52.0762C325.637 52.0919 326.241 51.17 325.663 51.1491C324.09 51.0867 322.382 52.8471 321.283 53.7273C317.866 56.4616 314.715 59.545 311.58 62.5919C305.247 68.7533 299.924 74.6856 295.195 82.1804C280.872 104.884 272.179 130.852 264.106 156.285C262.575 161.113 261.075 165.946 259.502 170.759C260.002 169.232 260.705 167.91 261.038 166.102C261.387 164.212 261.778 162.321 262.168 160.436C263.07 156.071 264.122 151.743 265.273 147.436C269.721 130.785 276.351 114.264 283.476 98.6023C290.445 83.295 299.361 67.7846 311.59 56.0554C314.038 53.7064 316.882 51.5033 320.189 50.5658C323.601 49.6023 325.325 51.5502 323.892 54.4616C321.445 59.4408 317.934 63.9877 314.804 68.5502C304.356 83.7533 296.929 101.826 289.554 118.66C281.017 138.144 273.189 157.811 262.804 176.425C262.445 177.071 263.392 176.847 263.622 176.436Z" fill="#FF3131"/>
<path d="M261.293 172.54C266.7 154.764 274.356 137.821 282.007 120.936C289.002 105.514 295.471 88.2637 305.856 74.7428C307.684 72.3678 306.46 73.7585 305.747 75.1751C304.84 76.972 303.861 78.7376 302.903 80.5032C300.007 85.8626 297.116 91.2168 294.325 96.6335C289.028 106.92 284.403 117.545 279.929 128.217C273.523 143.498 267.471 158.956 261.82 174.535C261.596 175.149 262.58 174.701 262.721 174.311C268.726 157.758 275.205 141.363 282.044 125.144C286.366 114.883 290.96 104.758 296.059 94.8574C298.762 89.6126 301.601 84.4407 304.403 79.248C305.418 77.373 307.372 74.8887 307.606 72.6907C307.622 72.5449 307.491 72.4564 307.361 72.4512C304.481 72.2845 299.773 82.873 298.611 84.9668C293.32 94.4876 288.747 104.425 284.2 114.321C275.429 133.43 266.523 152.607 260.392 172.764C260.2 173.399 261.168 172.941 261.293 172.54Z" fill="#FF3131"/>
<path d="M257.163 170.774C259.892 152.363 262.21 133.878 265.444 115.55C268.277 99.5084 272.793 83.5293 272.361 67.1178C272.309 65.1751 271.913 66.3105 272.126 67.8209C272.408 69.7741 272.434 71.7689 272.481 73.7376C272.6 79.1334 271.668 84.498 270.871 89.8157C269.496 99.0084 267.731 108.144 266.022 117.274C262.767 134.659 260.335 152.212 259.491 169.889C259.465 170.451 260.402 169.863 260.423 169.446C261.356 149.92 264.371 130.691 267.965 111.508C269.861 101.394 271.632 91.2584 272.975 81.0501C273.46 77.3834 273.475 73.6855 273.293 69.9928C273.246 69.0241 273.402 65.7637 272.455 64.9876C272.126 64.7116 271.705 65.2272 271.606 65.498C270.928 67.373 271.507 69.9668 271.507 71.9199C271.512 75.9928 271.001 80.0709 270.439 84.0918C269.137 93.3262 267.048 102.451 265.309 111.607C261.574 131.279 259.189 151.201 256.257 171.003C256.163 171.665 257.1 171.206 257.163 170.774Z" fill="#FF3131"/>
<path d="M266.236 144.056C269.398 129.665 270.861 114.712 273.111 100.154C275.632 83.8628 279.528 66.6285 276.273 50.1805C275.736 47.4514 274.314 40.6284 270.351 40.8628C268.72 40.9618 268.179 43.6597 268.075 44.8316C267.252 53.8628 268.033 63.1076 267.752 72.1701C267.424 83.0607 265.158 94.0503 263.444 104.785C261.653 116.024 259.684 127.238 258.012 138.498C256.387 149.488 255.132 160.498 253.08 171.425C252.96 172.087 253.903 171.623 253.986 171.201C258.408 147.649 261.34 123.686 265.069 100.003C266.59 90.3472 268.413 80.5399 268.715 70.7535C268.986 61.9253 267.783 52.5399 269.069 43.7951C269.814 38.7482 273.83 45.6284 274.059 46.1128C274.934 47.9514 275.262 50.118 275.585 52.1024C276.08 55.1545 276.2 58.2795 276.299 61.368C276.507 67.9253 276.184 74.6128 275.241 81.1076C274.413 86.8368 273.424 92.5451 272.538 98.2639C270.179 113.503 268.174 128.847 265.387 144.019C265.372 144.108 265.351 144.196 265.33 144.285C265.189 144.941 266.142 144.477 266.236 144.056Z" fill="#FF3131"/>
<path d="M266.158 92.8783C264.981 85.8731 263.616 78.9252 261.903 72.0345C260.694 67.17 259.819 58.7168 255.043 55.7481C246.83 50.6439 248.72 68.8679 248.804 71.5762C249.043 79.196 250.809 86.6856 251.491 94.2793C252.205 102.243 252.361 110.259 252.47 118.248C252.705 136.014 252.215 153.785 253.069 171.535C253.095 172.113 254.017 171.509 253.996 171.087C252.715 144.347 254.772 117.43 252.132 90.7533C251.533 84.7377 250.236 78.8366 249.819 72.8002C249.606 69.8106 247.871 53.8731 253.731 56.2273C258.798 58.2637 259.871 68.1908 261.007 72.6752C262.731 79.4981 264.059 86.3887 265.226 93.3262C265.33 93.9095 266.231 93.295 266.158 92.8783Z" fill="#FF3131"/>
<path d="M305.398 62.2484C291.575 50.5817 268.726 124.847 268.413 135.118C268.398 135.686 269.33 135.092 269.346 134.67C269.497 129.717 271.252 124.587 272.564 119.858C274.95 111.248 277.793 102.754 280.96 94.3994C282.965 89.113 295.148 55.0713 304.601 63.0453C304.96 63.3525 305.741 62.54 305.398 62.2484Z" fill="#FF3131"/>
</svg>
