<?xml version="1.0" encoding="utf-8"?>
<!-- Generator: Adobe Illustrator 24.0.3, SVG Export Plug-In . SVG Version: 6.00 Build 0)  -->
<svg version="1.1" id="Layer_1" xmlns="http://www.w3.org/2000/svg" xmlns:xlink="http://www.w3.org/1999/xlink" x="0px" y="0px"
	 viewBox="0 0 1080 1080" style="enable-background:new 0 0 1080 1080;" xml:space="preserve">
<style type="text/css">
	.st0{opacity:0.16;fill:#9F702A;}
	.st1{opacity:0.2;}
	.st2{fill:#9F702A;}
	.st3{fill:#FEBF13;}
	.st4{fill:#FFFFFF;}
</style>
<g>
	<path d="M215.6,741.2c3.6-23,11.8-44.1,26.8-62.1c24.2-28.9,55.2-44,92.9-44.9c16.2-0.4,32.4-0.4,48.6,0
		c18.7,0.4,34.3-6.5,47.9-18.7c23.3-20.9,35.1-48.3,42.5-78c6.8-27.1,1.8-51.8-12.6-75.6c-18.9-31.2-29.5-65.3-32-101.8
		c-2.2-33-0.6-66-0.9-99c-0.1-8,5.1-12.7,13-12.7c27-0.1,53.9-0.1,80.9,0c8.5,0,13.2,5.1,13.2,14.4c0.1,22.9,0,45.7,0,68.6
		c0,5.7,0,11.3,0.1,17c0.1,2.3-1,5.3,1.4,6.5c2,1,3.7-1.7,5.3-3c22.4-17.6,47.7-28.8,75.7-33.9c76.3-13.9,153.6,27.9,183.8,99.5
		c1.8,4.3,3.6,8.7,5,13.1c2.6,8.2-0.4,15-7.4,17.3c-6.8,2.3-13.3-1.4-16.2-9.5c-12-33.6-32.8-60.1-63.7-78.3
		c-57.2-33.7-130-23.3-176.8,25.2c-1.5,1.5-2.9,3.2-4.5,4.7c-8.1,7.8-18.8,5-21.9-5.9c-3.7-13-5.9-26.3-6-39.8
		c-0.2-21.5-0.2-43,0-64.5c0.1-5.2-1.2-7.3-6.8-7.1c-14.4,0.4-28.9,0.3-43.4,0c-4.9-0.1-6.9,1.1-6.9,6.5c0.3,24.8-0.6,49.7,0.4,74.4
		c1.4,33.9,11.1,65.7,28.4,95c8.5,14.4,15.6,29.3,18.3,45.9c3.4,21.3,0.4,42-5.9,62.4c-9.6,30.9-24.3,58.8-49.6,80
		c-11.9,10-25.4,16.7-40.4,20.4c-41.4,10.1-58.5,56-33.4,90.5c22.4,30.7,53.7,48,90.3,55.2c48.4,9.6,95.5,2.4,140.3-16.9
		c88.9-38.3,144.2-106.8,173.7-197.7c5.1-15.6,8.3-31.7,11.4-47.8c1.6-8.6,7-12.9,14.5-11.8c7.2,1.1,11.2,7.2,9.8,15.9
		c-5.9,38.1-17.6,74.4-35.2,108.7c-33.8,65.8-82.8,116.5-149.6,149.1c-33.5,16.3-68.9,25.5-106.2,28.5c-41,3.3-79.9-3.1-116-22.8
		c-27.1-14.8-49.6-34.6-63.1-63.2c-1.3-2.8-3.1-3.6-6-3.5c-7.5,0.3-12.9,6.3-13,15.2c-0.1,24-0.1,48.1-0.1,72.1c0,2.1,0,4.3-0.1,6.4
		c-0.2,6.1-2.5,11-8.2,13.8c-31.6,0-63.1-0.1-94.7,0.1c-3.3,0-3.9-0.7-3.9-3.9C215.6,810.6,215.6,775.9,215.6,741.2z M354.6,659.3
		c-13,0.1-24.4-0.6-35.9,1.3c-42.1,7-77.1,46.2-78.3,88.8c-0.6,23.2-0.1,46.4-0.4,69.7c-0.1,5.1,2,6.2,6.7,6.2
		c14.6-0.2,29.3-0.3,43.9,0c5.1,0.1,6.7-1.4,6.7-6.6c-0.3-20.7-0.1-41.4-0.1-62.1c0-2.9,0-5.9,0.7-8.7c4-16.5,14.2-27,30.9-30.7
		c3.8-0.8,6.5-1.8,6.1-6.7c-0.4-5.1,0.9-10.1,1.9-15C339.5,682.4,345.7,671,354.6,659.3z"/>
	<path d="M769.5,489.5c-2.4,83.5-29.8,157.1-88.8,217.4c-39.8,40.7-87.9,66.4-144.5,75.3c-36.8,5.8-72.8,3.9-106.8-13.5
		c-16.4-8.4-30.4-19.8-41-35c-14.2-20.5-4.7-48.4,19.5-54.3c41.1-10,68.9-35.9,89.2-71.4c14.7-25.8,22.5-53.8,24.5-83.5
		c1-14.9,0.2-29.7,0.9-44.5c2.3-50.9,33.3-95.9,79.5-111.2c52.1-17.2,113.8,1.7,145.3,45.2C763.4,436.3,770.1,461.8,769.5,489.5z
		 M500.9,759.8c7-0.2,14-0.4,21.1-1.1c50.6-5.3,94.2-26.1,131.4-60.1c49.3-45.2,77.3-101.7,87.8-167.4c0.6-3.8-1-5.3-3.7-6.9
		c-13.1-7.7-31.4-6.3-43.5,3.4c-10.6,8.5-12.7,8.5-23.8,0.1c-15.7-11.9-34.9-11.5-50.2,1.1c-8.4,6.9-12.6,6.9-21.1,0
		c-13.7-11.1-32.6-12.4-47.1-3.4c-4.1,2.5-6.1,5.8-6.3,10.5c-0.4,7.8-1.9,15.5-3.6,23.1c-9.6,42.9-29.1,80.2-61.9,110
		c-18.3,16.6-39.5,27.7-63.5,33.7c-9.5,2.4-12.2,9.8-6.6,17.7c3.4,4.8,7.2,9.2,11.8,13C444.6,752.8,471.5,760,500.9,759.8z
		 M744.1,484c-0.3-27.7-9.4-51.6-30.4-70.3c-17.5-15.6-38.5-23.8-61.6-25.8c-29.1-2.5-55.5,4.2-76.6,25.9
		c-22,22.8-29.7,50.7-28.2,81.6c0.2,3.2,1.6,3.5,4.2,2.7c19-6.3,37.3-4.5,54.7,5.6c2.1,1.2,3.8,1.2,6,0
		c22.1-12.4,44.2-12.4,66.3-0.2c2,1.1,3.7,1.7,6,0.4c17.5-10.4,35.9-12.1,55.2-5.7c2.9,1,4.5,0.5,4.4-2.9
		C744,491.5,744.1,487.7,744.1,484z"/>
	<path d="M791.8,488.1c0.1-6.9,5.4-12.2,12.2-12.2c6.9,0,12.2,5.3,12.2,12.1c0.1,7-5.8,12.8-12.5,12.6
		C797.1,500.4,791.8,494.9,791.8,488.1z"/>
	<path d="M645.4,561.4c19.8,0,35.8,15.9,35.9,35.7c0.1,19.4-16.1,35.8-35.8,36.1c-19.5,0.3-36.4-16.6-36.3-36.2
		C609.4,577.3,625.5,561.4,645.4,561.4z M645.3,586.6c-6.2,0.1-10.8,4.6-10.8,10.6c0,6,5.3,11.2,11.2,11.1
		c5.8-0.2,10.4-5.2,10.4-11.2C656,590.9,651.4,586.5,645.3,586.6z"/>
	<path d="M528.2,669.8c0-19.9,15.8-35.6,35.7-35.6c20,0,35.6,16,35.5,36.4c-0.1,19.5-15.9,35.4-35.4,35.6
		C544.2,706.3,528.2,690.1,528.2,669.8z M563.7,659.4c-6.1,0-10.9,4.6-10.9,10.5c0,5.9,5.5,11.2,11.3,11c5.8-0.2,10.6-5.3,10.5-11.1
		C574.5,663.7,569.9,659.4,563.7,659.4z"/>
	<path d="M586.1,593.7c0.2,6.2-5.8,12.5-12.1,12.7c-6.6,0.3-12.8-5.7-12.8-12.5c0-6.4,5.9-12.3,12.4-12.4
		C580.1,581.4,586,587.1,586.1,593.7z"/>
	<path d="M649.7,670c0,6.7-5.5,12.4-12,12.5c-7,0.1-12.4-5.5-12.3-12.7c0.1-7,5.4-12.2,12.2-12.1C644.6,657.8,649.8,663.1,649.7,670
		z"/>
</g>
</svg>
